GeoramaExtraExtended-ExtraLightItalic.ufo
<glyph name="exclam" format="2">
  <advance width="330.85"/>
  <unicode hex="0021"/>
  <outline>
    <contour>
      <point x="144.34" y="263.55" type="line"/>
      <point x="181.42" y="263.55" type="line"/>
      <point x="258.31" y="740.0" type="line"/>
      <point x="217.9" y="740.0" type="line"/>
    </contour>
    <contour>
      <point x="96.17" y="16.21" type="curve" smooth="yes"/>
      <point x="95.26" y="2.71"/>
      <point x="102.32" y="-0.8999999999999999"/>
      <point x="120.06" y="-0.8999999999999999" type="curve" smooth="yes"/>
      <point x="145.53" y="-0.8999999999999999"/>
      <point x="152.64999999999998" y="3.249999999999999"/>
      <point x="155.38" y="33.54" type="curve" smooth="yes"/>
      <point x="156.29000000000002" y="47.04"/>
      <point x="149.23" y="50.65"/>
      <point x="131.58" y="50.65" type="curve" smooth="yes"/>
      <point x="105.66" y="50.65"/>
      <point x="98.9" y="46.05"/>
    </contour>
  </outline>
</glyph>
<glyph name="numbersign" format="2">
  <advance width="1035.44"/>
  <unicode hex="0023"/>
  <outline>
    <contour>
      <point x="240.26000000000002" y="470.78000000000003" type="line"/>
      <point x="404.62" y="470.78000000000003" type="line"/>
      <point x="301.20000000000005" y="215.47" type="line"/>
      <point x="146.20999999999998" y="215.47" type="line"/>
      <point x="141.96" y="185.42" type="line"/>
      <point x="289.61" y="185.42" type="line"/>
      <point x="215.31" y="0.0" type="line"/>
      <point x="258.8" y="0.0" type="line"/>
      <point x="332.19" y="185.42" type="line"/>
      <point x="599.29" y="185.42" type="line"/>
      <point x="525.9" y="0.0" type="line"/>
      <point x="569.3900000000001" y="0.0" type="line"/>
      <point x="642.7800000000001" y="185.42" type="line"/>
      <point x="812.38" y="185.42" type="line"/>
      <point x="816.5400000000001" y="215.47" type="line"/>
      <point x="655.46" y="215.47" type="line"/>
      <point x="757.7900000000001" y="470.78000000000003" type="line"/>
      <point x="910.5899999999999" y="470.78000000000003" type="line"/>
      <point x="915.75" y="500.65000000000003" type="line"/>
      <point x="770.29" y="500.65000000000003" type="line"/>
      <point x="850.78" y="700.0" type="line"/>
      <point x="807.29" y="700.0" type="line"/>
      <point x="726.8" y="500.65000000000003" type="line"/>
      <point x="459.7" y="500.65000000000003" type="line"/>
      <point x="540.19" y="700.0" type="line"/>
      <point x="496.7" y="700.0" type="line"/>
      <point x="416.21000000000004" y="500.65000000000003" type="line"/>
      <point x="245.33" y="500.65000000000003" type="line"/>
    </contour>
    <contour>
      <point x="448.10999999999996" y="470.78000000000003" type="line"/>
      <point x="715.21" y="470.78000000000003" type="line"/>
      <point x="611.7900000000001" y="215.47" type="line"/>
      <point x="344.68999999999994" y="215.47" type="line"/>
    </contour>
  </outline>
</glyph>
<glyph name="dollar" format="2">
  <advance width="1035.44"/>
  <unicode hex="0024"/>
  <outline>
    <contour>
      <point x="910.04" y="661.54" type="line"/>
      <point x="867.43" y="674.9"/>
      <point x="764.86" y="707.46"/>
      <point x="624.28" y="709.91" type="curve"/>
      <point x="640.28" y="805.0" type="line"/>
      <point x="607.16" y="805.0" type="line"/>
      <point x="592.07" y="709.7299999999999" type="line"/>
      <point x="437.21000000000004" y="708.01"/>
      <point x="198.14000000000001" y="678.6800000000001"/>
      <point x="198.14000000000001" y="495.59999999999997" type="curve" smooth="yes"/>
      <point x="198.14000000000001" y="246.79999999999998"/>
      <point x="849.6600000000001" y="403.59999999999997"/>
      <point x="849.6600000000001" y="195.98999999999998" type="curve" smooth="yes"/>
      <point x="849.6600000000001" y="43.400000000000006"/>
      <point x="603.26" y="24.57"/>
      <point x="486.77" y="24.57" type="curve" smooth="yes"/>
      <point x="335.39" y="24.57"/>
      <point x="154.63000000000002" y="76.05000000000001"/>
      <point x="106.24000000000001" y="93.48" type="curve"/>
      <point x="91.76" y="57.190000000000005" type="line"/>
      <point x="161.37" y="36.379999999999995"/>
      <point x="312.58" y="-7.7299999999999995"/>
      <point x="475.25" y="-9.91" type="curve"/>
      <point x="460.25" y="-105.0" type="line"/>
      <point x="493.28" y="-105.0" type="line"/>
      <point x="508.28000000000003" y="-9.459999999999999" type="line"/>
      <point x="664.62" y="-6.57"/>
      <point x="895.76" y="21.600000000000005"/>
      <point x="895.76" y="203.58" type="curve" smooth="yes"/>
      <point x="895.76" y="448.29"/>
      <point x="242.88" y="292.95"/>
      <point x="242.88" y="503.74" type="curve" smooth="yes"/>
      <point x="242.88" y="658.24"/>
      <point x="486.64" y="675.07"/>
      <point x="595.4100000000001" y="675.07" type="curve" smooth="yes"/>
      <point x="736.98" y="675.07"/>
      <point x="833.0500000000001" y="647.7800000000001"/>
      <point x="896.1000000000001" y="625.52" type="curve"/>
    </contour>
  </outline>
</glyph>
<glyph name="ampersand" format="2">
  <advance width="1061.96"/>
  <unicode hex="0026"/>
  <outline>
    <contour>
      <point x="414.68" y="-10.0" type="curve" smooth="yes"/>
      <point x="616.32" y="-10.0"/>
      <point x="797.32" y="52.31999999999999"/>
      <point x="875.04" y="283.13999999999993" type="curve"/>
      <point x="838.68" y="289.59999999999997" type="line"/>
      <point x="770.0" y="80.22000000000001"/>
      <point x="597.8" y="23.4"/>
      <point x="417.20000000000005" y="23.4" type="curve" smooth="yes"/>
      <point x="221.66" y="23.4"/>
      <point x="119.44" y="92.72"/>
      <point x="119.44" y="177.58" type="curve" smooth="yes"/>
      <point x="119.44" y="317.5"/>
      <point x="313.24" y="343.88"/>
      <point x="482.44" y="343.88" type="curve" smooth="yes"/>
      <point x="496.54" y="343.88" type="line"/>
      <point x="499.42" y="373.42" type="line"/>
      <point x="492.08" y="373.78" type="line" smooth="yes"/>
      <point x="345.18000000000006" y="375.94"/>
      <point x="235.45999999999998" y="429.26"/>
      <point x="235.45999999999998" y="527.96" type="curve" smooth="yes"/>
      <point x="235.45999999999998" y="599.5400000000001"/>
      <point x="304.76" y="680.96"/>
      <point x="458.22" y="680.96" type="curve" smooth="yes"/>
      <point x="548.5399999999998" y="680.96"/>
      <point x="646.6" y="643.12"/>
      <point x="697.42" y="590.4599999999999" type="curve"/>
      <point x="722.8399999999999" y="614.5400000000001" type="line"/>
      <point x="667.6" y="671.26"/>
      <point x="557.68" y="710.0"/>
      <point x="454.34000000000003" y="710.0" type="curve" smooth="yes"/>
      <point x="274.28000000000003" y="710.0"/>
      <point x="191.16" y="617.62"/>
      <point x="191.16" y="532.1" type="curve" smooth="yes"/>
      <point x="191.16" y="437.05999999999995"/>
      <point x="280.58" y="371.70000000000005"/>
      <point x="396.26" y="363.62" type="curve"/>
      <point x="214.58" y="359.26"/>
      <point x="74.6" y="306.62"/>
      <point x="74.6" y="176.32" type="curve" smooth="yes"/>
      <point x="74.6" y="72.82000000000001"/>
      <point x="181.74" y="-10.0"/>
    </contour>
    <contour>
      <point x="603.18" y="216.43999999999997" type="line"/>
      <point x="607.0799999999999" y="282.2"/>
      <point x="656.7399999999999" y="313.06"/>
      <point x="705.9399999999999" y="313.06" type="curve" smooth="yes"/>
      <point x="805.6999999999999" y="313.06"/>
      <point x="841.92" y="260.54"/>
      <point x="941.06" y="260.54" type="curve" smooth="yes"/>
      <point x="1023.3199999999999" y="260.54"/>
      <point x="1076.5800000000002" y="322.52"/>
      <point x="1076.5800000000002" y="401.20000000000005" type="curve"/>
      <point x="1045.16" y="401.20000000000005" type="line"/>
      <point x="1045.1599999999999" y="339.0"/>
      <point x="1002.78" y="292.86"/>
      <point x="935.5799999999999" y="292.86" type="curve" smooth="yes"/>
      <point x="841.72" y="292.86"/>
      <point x="804.46" y="346.46"/>
      <point x="704.9599999999999" y="346.46" type="curve" smooth="yes"/>
      <point x="641.0" y="346.46"/>
      <point x="580.1" y="302.02"/>
      <point x="576.2" y="227.50000000000003" type="curve"/>
    </contour>
  </outline>
</glyph>
<glyph name="quotesingle" format="2">
  <advance width="190.81"/>
  <unicode hex="0027"/>
  <outline>
    <contour>
      <point x="103.86" y="427.0" type="line"/>
      <point x="134.76999999999998" y="427.0" type="line"/>
      <point x="182.31" y="700.0" type="line"/>
      <point x="142.5" y="700.0" type="line"/>
    </contour>
  </outline>
</glyph>
<glyph name="parenleft" format="2">
  <advance width="463.6"/>
  <unicode hex="0028"/>
  <outline>
    <contour>
      <point x="135.34" y="126.60000000000001" type="curve" smooth="yes"/>
      <point x="135.34" y="-42.739999999999995"/>
      <point x="194.22" y="-188.81"/>
      <point x="344.87" y="-220.0" type="curve"/>
      <point x="349.94" y="-189.22" type="line"/>
      <point x="233.36999999999998" y="-162.77"/>
      <point x="172.16" y="-39.17"/>
      <point x="172.16" y="130.81" type="curve" smooth="yes"/>
      <point x="172.16" y="413.64"/>
      <point x="301.6" y="683.59"/>
      <point x="492.62" y="718.5" type="curve"/>
      <point x="497.69" y="750.0" type="line"/>
      <point x="230.01" y="701.04"/>
      <point x="135.34" y="364.35"/>
    </contour>
  </outline>
</glyph>
<glyph name="parenright" format="2">
  <advance width="463.6"/>
  <unicode hex="0029"/>
  <outline>
    <contour>
      <point x="325.17" y="401.58000000000004" type="curve" smooth="yes"/>
      <point x="325.17" y="576.83"/>
      <point x="264.47" y="718.8100000000001"/>
      <point x="112.91" y="750.0" type="curve"/>
      <point x="107.84" y="716.95" type="line"/>
      <point x="233.51" y="688.68"/>
      <point x="288.34999999999997" y="558.7099999999999"/>
      <point x="288.34999999999997" y="396.91999999999996" type="curve" smooth="yes"/>
      <point x="288.34999999999997" y="136.84000000000003"/>
      <point x="165.27999999999997" y="-146.31"/>
      <point x="-33.93000000000001" y="-186.68" type="curve"/>
      <point x="-39.0" y="-220.0" type="line"/>
      <point x="195.01000000000002" y="-176.69000000000003"/>
      <point x="325.17" y="120.14000000000001"/>
    </contour>
  </outline>
</glyph>
<glyph name="asterisk" format="2">
  <advance width="462.70000000000005"/>
  <unicode hex="002A"/>
  <outline>
    <contour>
      <point x="124.96000000000001" y="308.39000000000004" type="line"/>
      <point x="263.55" y="476.83" type="line"/>
      <point x="346.65999999999997" y="308.39" type="line"/>
      <point x="367.58" y="321.61" type="line"/>
      <point x="287.71999999999997" y="495.58" type="line"/>
      <point x="474.34" y="558.86" type="line"/>
      <point x="470.26" y="582.23" type="line"/>
      <point x="286.01" y="524.01" type="line"/>
      <point x="317.49" y="730.0" type="line"/>
      <point x="291.12" y="730.0" type="line"/>
      <point x="257.12" y="524.01" type="line"/>
      <point x="88.88000000000001" y="582.23" type="line"/>
      <point x="79.00999999999999" y="558.86" type="line"/>
      <point x="244.9" y="495.58" type="line"/>
      <point x="107.2" y="323.43" type="line"/>
    </contour>
  </outline>
</glyph>
<glyph name="plus" format="2">
  <advance width="532.7"/>
  <unicode hex="002B"/>
  <outline>
    <contour>
      <point x="216.72" y="73.35" type="line"/>
      <point x="253.89" y="73.35" type="line"/>
      <point x="284.80999999999995" y="274.24" type="line"/>
      <point x="469.89" y="274.24" type="line"/>
      <point x="475.68" y="309.07" type="line"/>
      <point x="290.59999999999997" y="309.07" type="line"/>
      <point x="322.52" y="509.87" type="line"/>
      <point x="285.53000000000003" y="509.87" type="line"/>
      <point x="253.43" y="309.07" type="line"/>
      <point x="68.62" y="309.07" type="line"/>
      <point x="62.83" y="274.24" type="line"/>
      <point x="247.82" y="274.24" type="line"/>
    </contour>
  </outline>
</glyph>
<glyph name="comma" format="2">
  <advance width="229.04"/>
  <unicode hex="002C"/>
  <outline>
    <contour>
      <point x="58.29" y="35.47" type="line"/>
      <point x="61.84" y="20.75"/>
      <point x="63.3" y="5.029999999999999"/>
      <point x="62.94" y="-10.6" type="curve" smooth="yes"/>
      <point x="61.68" y="-73.77000000000001"/>
      <point x="16.48" y="-153.32"/>
      <point x="-53.62" y="-182.46" type="curve"/>
      <point x="-29.26000000000001" y="-200.0" type="line"/>
      <point x="54.74" y="-168.5"/>
      <point x="105.63000000000001" y="-73.67999999999999"/>
      <point x="105.63000000000001" y="-0.9899999999999998" type="curve" smooth="yes"/>
      <point x="105.63000000000001" y="15.47"/>
      <point x="102.81" y="31.02"/>
      <point x="97.99" y="43.75" type="curve"/>
    </contour>
  </outline>
</glyph>
<glyph name="hyphen" format="2">
  <advance width="475.47999999999996"/>
  <unicode hex="002D"/>
  <outline>
    <contour>
      <point x="75.49" y="251.31" type="line"/>
      <point x="392.64000000000004" y="251.31" type="line"/>
      <point x="398.43" y="287.32" type="line"/>
      <point x="81.28" y="287.32" type="line"/>
    </contour>
  </outline>
</glyph>
<glyph name="period" format="2">
  <advance width="230.21"/>
  <unicode hex="002E"/>
  <outline>
    <contour>
      <point x="45.67" y="16.209999999999997" type="curve" smooth="yes"/>
      <point x="44.760000000000005" y="2.71"/>
      <point x="51.82" y="-0.9"/>
      <point x="69.56" y="-0.9" type="curve" smooth="yes"/>
      <point x="95.03" y="-0.9"/>
      <point x="102.15" y="3.25"/>
      <point x="104.88" y="33.54" type="curve" smooth="yes"/>
      <point x="105.78999999999999" y="47.04"/>
      <point x="98.73" y="50.65"/>
      <point x="81.08" y="50.65" type="curve" smooth="yes"/>
      <point x="55.160000000000004" y="50.65"/>
      <point x="48.400000000000006" y="46.05"/>
    </contour>
  </outline>
</glyph>
<glyph name="slash" format="2">
  <advance width="449.57"/>
  <unicode hex="002F"/>
  <outline>
    <contour>
      <point x="-67.0" y="-210.0" type="line"/>
      <point x="-27.450000000000003" y="-210.0" type="line"/>
      <point x="513.57" y="740.0" type="line"/>
      <point x="473.93" y="740.0" type="line"/>
    </contour>
  </outline>
</glyph>
<glyph name="zero" format="2">
  <advance width="1035.44"/>
  <unicode hex="0030"/>
  <outline>
    <contour>
      <point x="509.97999999999996" y="-10.0" type="curve" smooth="yes"/>
      <point x="795.1" y="-10.0"/>
      <point x="975.98" y="123.84"/>
      <point x="975.98" y="376.99999999999994" type="curve" smooth="yes"/>
      <point x="975.98" y="593.36"/>
      <point x="817.0" y="710.0"/>
      <point x="548.46" y="710.0" type="curve" smooth="yes"/>
      <point x="262.34" y="710.0"/>
      <point x="83.46000000000001" y="578.3399999999999"/>
      <point x="83.46000000000001" y="325.18" type="curve" smooth="yes"/>
      <point x="83.46000000000001" y="108.82000000000001"/>
      <point x="243.44" y="-10.0"/>
    </contour>
    <contour>
      <point x="510.52000000000004" y="23.94" type="curve" smooth="yes"/>
      <point x="270.53999999999996" y="23.94"/>
      <point x="128.38" y="128.54"/>
      <point x="128.38" y="325.90000000000003" type="curve" smooth="yes"/>
      <point x="128.38" y="556.56"/>
      <point x="283.58" y="676.0600000000001"/>
      <point x="548.1" y="676.0600000000001" type="curve" smooth="yes"/>
      <point x="789.72" y="676.0600000000001"/>
      <point x="931.0600000000001" y="573.28"/>
      <point x="931.0600000000001" y="375.91999999999996" type="curve" smooth="yes"/>
      <point x="931.06" y="146.26000000000002"/>
      <point x="774.0400000000001" y="23.94"/>
    </contour>
  </outline>
</glyph>
<glyph name="one" format="2">
  <advance width="1035.44"/>
  <unicode hex="0031"/>
  <outline>
    <contour>
      <point x="102.47999999999999" y="0.0" type="line"/>
      <point x="911.39" y="0.0" type="line"/>
      <point x="917.0899999999999" y="35.29" type="line"/>
      <point x="572.7700000000001" y="35.29" type="line"/>
      <point x="680.25" y="709.1" type="line"/>
      <point x="657.37" y="709.1" type="line"/>
      <point x="173.42000000000002" y="502.78" type="line"/>
      <point x="180.66" y="468.13" type="line"/>
      <point x="629.27" y="660.25" type="line"/>
      <point x="530.0200000000001" y="35.29" type="line"/>
      <point x="108.17999999999999" y="35.29" type="line"/>
    </contour>
  </outline>
</glyph>
<glyph name="two" format="2">
  <advance width="1035.44"/>
  <unicode hex="0032"/>
  <outline>
    <contour>
      <point x="115.94" y="28.88" type="curve"/>
      <point x="114.14" y="0.0" type="line"/>
      <point x="888.8" y="0.0" type="line"/>
      <point x="892.04" y="35.38" type="line"/>
      <point x="206.06" y="35.38" type="line"/>
      <point x="718.18" y="263.12"/>
      <point x="808.36" y="353.86"/>
      <point x="808.36" y="501.64" type="curve" smooth="yes"/>
      <point x="808.36" y="645.7800000000001"/>
      <point x="676.1400000000001" y="710.0"/>
      <point x="503.40000000000003" y="710.0" type="curve" smooth="yes"/>
      <point x="403.82" y="710.0"/>
      <point x="284.12" y="682.1"/>
      <point x="203.14" y="642.84" type="curve"/>
      <point x="211.2" y="608.0999999999999" type="line"/>
      <point x="289.9" y="644.28"/>
      <point x="400.58" y="674.28"/>
      <point x="498.34" y="674.28" type="curve" smooth="yes"/>
      <point x="646.0400000000001" y="674.28"/>
      <point x="763.4399999999999" y="620.8"/>
      <point x="763.4399999999999" y="494.58" type="curve" smooth="yes"/>
      <point x="763.44" y="357.28"/>
      <point x="643.14" y="262.38"/>
    </contour>
  </outline>
</glyph>
<glyph name="three" format="2">
  <advance width="1035.44"/>
  <unicode hex="0033"/>
  <outline>
    <contour>
      <point x="43.099999999999994" y="83.04" type="line"/>
      <point x="161.55999999999997" y="21.2"/>
      <point x="298.74" y="-10.0"/>
      <point x="480.42" y="-10.0" type="curve" smooth="yes"/>
      <point x="757.2399999999999" y="-10.0"/>
      <point x="905.34" y="73.6"/>
      <point x="905.34" y="215.88000000000002" type="curve" smooth="yes"/>
      <point x="905.34" y="305.35999999999996"/>
      <point x="820.92" y="357.92"/>
      <point x="688.24" y="371.0" type="curve"/>
      <point x="789.9799999999999" y="385.36"/>
      <point x="888.2" y="442.79999999999995"/>
      <point x="888.2" y="548.0" type="curve" smooth="yes"/>
      <point x="888.2" y="652.46"/>
      <point x="767.56" y="710.0"/>
      <point x="543.44" y="710.0" type="curve" smooth="yes"/>
      <point x="445.06" y="710.0"/>
      <point x="303.9" y="692.1"/>
      <point x="200.52" y="666.2" type="curve"/>
      <point x="208.4" y="631.82" type="line"/>
      <point x="309.32" y="656.54"/>
      <point x="443.52" y="674.5400000000001"/>
      <point x="533.6" y="674.5400000000001" type="curve" smooth="yes"/>
      <point x="729.4999999999999" y="674.5400000000001"/>
      <point x="842.46" y="626.22"/>
      <point x="842.46" y="539.34" type="curve" smooth="yes"/>
      <point x="842.46" y="434.34"/>
      <point x="718.34" y="384.76"/>
      <point x="583.4200000000001" y="384.76" type="curve" smooth="yes"/>
      <point x="321.94" y="384.76" type="line"/>
      <point x="316.42" y="349.64" type="line"/>
      <point x="561.88" y="349.64" type="line" smooth="yes"/>
      <point x="757.06" y="349.64"/>
      <point x="858.96" y="302.24"/>
      <point x="858.96" y="209.62" type="curve" smooth="yes"/>
      <point x="858.96" y="95.08"/>
      <point x="724.6" y="25.279999999999998"/>
      <point x="488.03999999999996" y="25.279999999999998" type="curve" smooth="yes"/>
      <point x="304.98" y="25.279999999999998"/>
      <point x="176.72" y="55.66"/>
      <point x="60.86" y="116.7" type="curve"/>
    </contour>
  </outline>
</glyph>
<glyph name="four" format="2">
  <advance width="1035.44"/>
  <unicode hex="0034"/>
  <outline>
    <contour>
      <point x="75.88" y="195.38" type="line"/>
      <point x="695.98" y="195.38" type="line"/>
      <point x="663.78" y="-6.46" type="line"/>
      <point x="706.62" y="-6.46" type="line"/>
      <point x="738.8199999999999" y="195.38" type="line"/>
      <point x="940.16" y="195.38" type="line"/>
      <point x="945.4999999999999" y="228.78" type="line"/>
      <point x="744.1599999999999" y="228.78" type="line"/>
      <point x="817.98" y="693.72" type="line"/>
      <point x="793.4" y="702.82" type="line"/>
      <point x="77.86" y="222.72" type="line"/>
    </contour>
    <contour>
      <point x="139.32" y="228.78" type="line"/>
      <point x="767.82" y="648.44" type="line"/>
      <point x="701.32" y="228.78" type="line"/>
    </contour>
  </outline>
</glyph>
<glyph name="five" format="2">
  <advance width="1035.44"/>
  <unicode hex="0035"/>
  <outline>
    <contour>
      <point x="76.63999999999999" y="83.04" type="line"/>
      <point x="171.9" y="24.66"/>
      <point x="285.88" y="-10.0"/>
      <point x="467.02" y="-10.0" type="curve" smooth="yes"/>
      <point x="781.4399999999999" y="-10.0"/>
      <point x="907.5200000000001" y="89.82000000000001"/>
      <point x="907.5200000000001" y="235.14" type="curve" smooth="yes"/>
      <point x="907.5200000000001" y="357.24"/>
      <point x="816.5799999999999" y="415.7"/>
      <point x="619.6" y="415.7" type="curve" smooth="yes"/>
      <point x="223.05999999999997" y="415.70000000000005" type="line"/>
      <point x="306.04" y="663.9000000000001" type="line"/>
      <point x="908.36" y="663.9000000000001" type="line"/>
      <point x="915.24" y="700.0" type="line"/>
      <point x="280.08" y="700.0" type="line"/>
      <point x="176.84" y="391.94" type="line"/>
      <point x="184.02000000000004" y="382.3" type="line"/>
      <point x="593.3399999999999" y="382.3" type="line" smooth="yes"/>
      <point x="779.78" y="382.3"/>
      <point x="863.6600000000001" y="339.16"/>
      <point x="863.6600000000001" y="227.51999999999998" type="curve" smooth="yes"/>
      <point x="863.6600000000001" y="99.62"/>
      <point x="715.9399999999999" y="25.56"/>
      <point x="472.64" y="25.56" type="curve" smooth="yes"/>
      <point x="296.76" y="25.56"/>
      <point x="184.6" y="61.580000000000005"/>
      <point x="93.58" y="116.16000000000001" type="curve"/>
    </contour>
  </outline>
</glyph>
<glyph name="six" format="2">
  <advance width="1035.44"/>
  <unicode hex="0036"/>
  <note>
14
</note>
  <outline>
    <contour>
      <point x="499.0" y="-10.0" type="curve" smooth="yes"/>
      <point x="786.4399999999999" y="-10.0"/>
      <point x="955.44" y="71.24000000000001"/>
      <point x="955.44" y="233.44000000000003" type="curve" smooth="yes"/>
      <point x="955.44" y="370.64"/>
      <point x="838.8" y="443.44"/>
      <point x="613.98" y="443.44" type="curve" smooth="yes"/>
      <point x="457.38" y="443.44"/>
      <point x="267.02" y="400.86"/>
      <point x="146.62" y="337.74" type="curve"/>
      <point x="144.54" y="298.59999999999997" type="line"/>
      <point x="255.60000000000002" y="364.56"/>
      <point x="440.26" y="409.14"/>
      <point x="601.1800000000001" y="409.14" type="curve" smooth="yes"/>
      <point x="805.52" y="409.14"/>
      <point x="910.5999999999999" y="348.0"/>
      <point x="910.5999999999999" y="234.00000000000003" type="curve" smooth="yes"/>
      <point x="910.5999999999999" y="99.26"/>
      <point x="769.68" y="25.020000000000003"/>
      <point x="513.06" y="25.020000000000003" type="curve" smooth="yes"/>
      <point x="261.74" y="25.020000000000003"/>
      <point x="149.34" y="102.34"/>
      <point x="149.34" y="280.88" type="curve" smooth="yes"/>
      <point x="149.34" y="417.94"/>
      <point x="205.08" y="526.36"/>
      <point x="308.48" y="593.94" type="curve" smooth="yes"/>
      <point x="389.6" y="647.0600000000001"/>
      <point x="500.28" y="674.44"/>
      <point x="631.0600000000001" y="674.44" type="curve" smooth="yes"/>
      <point x="751.8" y="674.44"/>
      <point x="854.74" y="660.8"/>
      <point x="963.4" y="629.88" type="curve"/>
      <point x="976.16" y="665.36" type="line"/>
      <point x="872.76" y="693.8199999999999"/>
      <point x="753.76" y="710.0"/>
      <point x="635.06" y="710.0" type="curve" smooth="yes"/>
      <point x="303.88" y="710.0"/>
      <point x="104.76" y="550.16"/>
      <point x="104.76" y="273.88" type="curve" smooth="yes"/>
      <point x="104.76" y="80.17999999999999"/>
      <point x="234.72" y="-10.0"/>
    </contour>
  </outline>
</glyph>
<glyph name="seven" format="2">
  <advance width="1035.44"/>
  <unicode hex="0037"/>
  <note>
9
</note>
  <outline>
    <contour>
      <point x="324.38" y="0.0" type="curve"/>
      <point x="372.40000000000003" y="0.0" type="line"/>
      <point x="398.21999999999997" y="160.87999999999997"/>
      <point x="482.6" y="243.32"/>
      <point x="680.28" y="428.18" type="curve" smooth="yes"/>
      <point x="936.88" y="667.96" type="line"/>
      <point x="942.22" y="700.0" type="line"/>
      <point x="162.33999999999997" y="700.0" type="line"/>
      <point x="156.64000000000001" y="662.36" type="line"/>
      <point x="880.18" y="662.36" type="line"/>
      <point x="636.5600000000001" y="436.91999999999996" type="line" smooth="yes"/>
      <point x="441.78000000000003" y="256.32"/>
      <point x="351.66" y="171.60000000000002"/>
    </contour>
  </outline>
</glyph>
<glyph name="eight" format="2">
  <advance width="1035.44"/>
  <unicode hex="0038"/>
  <outline>
    <contour>
      <point x="475.34000000000003" y="-10.0" type="curve" smooth="yes"/>
      <point x="723.78" y="-10.0"/>
      <point x="938.86" y="29.460000000000004"/>
      <point x="938.86" y="213.8" type="curve" smooth="yes"/>
      <point x="938.86" y="493.38"/>
      <point x="211.79999999999998" y="288.32"/>
      <point x="211.79999999999998" y="520.3000000000001" type="curve" smooth="yes"/>
      <point x="211.79999999999998" y="643.6800000000001"/>
      <point x="375.22" y="676.4200000000001"/>
      <point x="570.84" y="676.4200000000001" type="curve" smooth="yes"/>
      <point x="803.98" y="676.4200000000001"/>
      <point x="899.3" y="629.4799999999999"/>
      <point x="899.3" y="540.42" type="curve" smooth="yes"/>
      <point x="899.3" y="445.61999999999995"/>
      <point x="832.06" y="403.96"/>
      <point x="703.54" y="360.94" type="curve"/>
      <point x="746.5600000000001" y="352.44" type="line"/>
      <point x="859.78" y="389.18"/>
      <point x="939.9" y="439.90000000000003"/>
      <point x="939.9" y="545.02" type="curve" smooth="yes"/>
      <point x="939.9" y="651.74"/>
      <point x="831.82" y="710.0"/>
      <point x="572.46" y="710.0" type="curve" smooth="yes"/>
      <point x="355.84000000000003" y="710.0"/>
      <point x="170.12" y="671.74"/>
      <point x="170.12" y="515.96" type="curve" smooth="yes"/>
      <point x="170.12" y="244.23999999999998"/>
      <point x="893.58" y="455.28"/>
      <point x="893.58" y="209.2" type="curve" smooth="yes"/>
      <point x="893.58" y="55.61999999999999"/>
      <point x="702.54" y="22.32"/>
      <point x="478.14" y="22.32" type="curve" smooth="yes"/>
      <point x="221.56" y="22.32"/>
      <point x="113.03999999999999" y="75.44"/>
      <point x="113.03999999999999" y="183.88" type="curve" smooth="yes"/>
      <point x="113.03999999999999" y="291.78"/>
      <point x="204.12" y="352.0"/>
      <point x="338.36" y="385.2" type="curve"/>
      <point x="288.42" y="397.68" type="line"/>
      <point x="162.86" y="363.02000000000004"/>
      <point x="69.38" y="299.48"/>
      <point x="69.38" y="177.62" type="curve" smooth="yes"/>
      <point x="69.38" y="52.260000000000005"/>
      <point x="189.46" y="-10.0"/>
    </contour>
  </outline>
</glyph>
<glyph name="nine" format="2">
  <advance width="1035.44"/>
  <unicode hex="0039"/>
  <outline>
    <contour>
      <point x="572.9" y="710.0" type="curve" smooth="yes"/>
      <point x="276.64" y="710.0"/>
      <point x="124.66" y="622.64"/>
      <point x="124.66" y="465.29999999999995" type="curve" smooth="yes"/>
      <point x="124.66" y="328.1"/>
      <point x="241.3" y="256.56"/>
      <point x="466.12" y="256.56" type="curve" smooth="yes"/>
      <point x="622.72" y="256.56"/>
      <point x="813.0799999999999" y="299.14000000000004"/>
      <point x="933.48" y="362.26" type="curve"/>
      <point x="935.5600000000001" y="401.4" type="line"/>
      <point x="824.5" y="335.44"/>
      <point x="639.84" y="290.86"/>
      <point x="478.92" y="290.86" type="curve" smooth="yes"/>
      <point x="274.58" y="290.86"/>
      <point x="169.49999999999997" y="352.0"/>
      <point x="169.49999999999997" y="466.0" type="curve" smooth="yes"/>
      <point x="169.49999999999997" y="600.7399999999999"/>
      <point x="302.22" y="674.98"/>
      <point x="558.84" y="674.98" type="curve" smooth="yes"/>
      <point x="810.16" y="674.98"/>
      <point x="930.76" y="597.66"/>
      <point x="930.76" y="419.12000000000006" type="curve" smooth="yes"/>
      <point x="930.76" y="282.06"/>
      <point x="875.02" y="173.64"/>
      <point x="771.62" y="106.06" type="curve" smooth="yes"/>
      <point x="690.5" y="52.940000000000005"/>
      <point x="579.8199999999999" y="25.560000000000002"/>
      <point x="449.04" y="25.560000000000002" type="curve" smooth="yes"/>
      <point x="328.3" y="25.560000000000002"/>
      <point x="225.35999999999999" y="39.2"/>
      <point x="116.7" y="70.12" type="curve"/>
      <point x="103.94" y="34.64" type="line"/>
      <point x="207.33999999999997" y="6.18"/>
      <point x="326.34" y="-10.0"/>
      <point x="445.03999999999996" y="-10.0" type="curve" smooth="yes"/>
      <point x="776.22" y="-10.0"/>
      <point x="975.34" y="149.84"/>
      <point x="975.34" y="426.11999999999995" type="curve" smooth="yes"/>
      <point x="975.34" y="618.38"/>
      <point x="839.16" y="710.0"/>
    </contour>
  </outline>
</glyph>
<glyph name="less" format="2">
  <advance width="533.61"/>
  <unicode hex="003C"/>
  <outline>
    <contour>
      <point x="436.98" y="64.67999999999999" type="line"/>
      <point x="442.77" y="102.96000000000001" type="line"/>
      <point x="104.17" y="291.61" type="line"/>
      <point x="502.71000000000004" y="480.17" type="line"/>
      <point x="508.5" y="519.5400000000001" type="line"/>
      <point x="68.62" y="311.15000000000003" type="line"/>
      <point x="62.74" y="273.15000000000003" type="line"/>
    </contour>
  </outline>
</glyph>
<glyph name="equal" format="2">
  <advance width="532.79"/>
  <unicode hex="003D"/>
  <outline>
    <contour>
      <point x="459.32" y="205.82" type="line"/>
      <point x="52.26" y="205.82" type="line"/>
      <point x="46.47" y="170.99" type="line"/>
      <point x="453.53000000000003" y="170.99" type="line"/>
    </contour>
    <contour>
      <point x="492.13" y="415.05" type="line"/>
      <point x="84.98" y="415.05" type="line"/>
      <point x="79.27999999999999" y="380.21999999999997" type="line"/>
      <point x="486.34" y="380.21999999999997" type="line"/>
    </contour>
  </outline>
</glyph>
<glyph name="greater" format="2">
  <advance width="533.61"/>
  <unicode hex="003E"/>
  <outline>
    <contour>
      <point x="469.98" y="273.15" type="line"/>
      <point x="475.68" y="309.8" type="line"/>
      <point x="101.62" y="518.6399999999999" type="line"/>
      <point x="95.64999999999999" y="481.08" type="line"/>
      <point x="434.34" y="291.61" type="line"/>
      <point x="35.89" y="103.87" type="line"/>
      <point x="30.01" y="64.68" type="line"/>
    </contour>
  </outline>
</glyph>
<glyph name="question" format="2">
  <advance width="664.25"/>
  <unicode hex="003F"/>
  <outline>
    <contour>
      <point x="281.17" y="260.90999999999997" type="line"/>
      <point x="318.16" y="260.90999999999997" type="line"/>
      <point x="329.07" y="324.84000000000003" type="line"/>
      <point x="548.0600000000001" y="365.46"/>
      <point x="662.9499999999999" y="436.13"/>
      <point x="662.9499999999999" y="578.66" type="curve" smooth="yes"/>
      <point x="662.9499999999999" y="710.21"/>
      <point x="530.32" y="750.0"/>
      <point x="411.09" y="750.0" type="curve" smooth="yes"/>
      <point x="301.62999999999994" y="750.0"/>
      <point x="174.1" y="720.91"/>
      <point x="74.17999999999999" y="667.2700000000001" type="curve"/>
      <point x="83.16" y="636.34" type="line"/>
      <point x="181.17" y="684.26"/>
      <point x="298.94" y="715.2700000000001"/>
      <point x="403.59000000000003" y="715.2700000000001" type="curve" smooth="yes"/>
      <point x="512.9300000000001" y="715.2700000000001"/>
      <point x="618.73" y="685.5"/>
      <point x="618.73" y="570.0600000000001" type="curve" smooth="yes"/>
      <point x="618.73" y="472.08000000000004"/>
      <point x="550.67" y="391.82"/>
      <point x="294.8" y="351.37" type="curve"/>
    </contour>
    <contour>
      <point x="240.01" y="13.569999999999999" type="curve" smooth="yes"/>
      <point x="240.1" y="2.62"/>
      <point x="247.07000000000002" y="-0.8999999999999999"/>
      <point x="263.90000000000003" y="-0.8999999999999999" type="curve" smooth="yes"/>
      <point x="287.64" y="-0.8999999999999999"/>
      <point x="299.58" y="3.249999999999999"/>
      <point x="299.31" y="35.27" type="curve" smooth="yes"/>
      <point x="299.21999999999997" y="47.04"/>
      <point x="292.15999999999997" y="50.559999999999995"/>
      <point x="275.51" y="50.559999999999995" type="curve" smooth="yes"/>
      <point x="251.41000000000003" y="50.559999999999995"/>
      <point x="239.74" y="46.14"/>
    </contour>
  </outline>
</glyph>
<glyph name="at" format="2">
  <advance width="1077.3999999999999"/>
  <unicode hex="0040"/>
  <outline>
    <contour>
      <point x="457.12" y="-117.72" type="curve" smooth="yes"/>
      <point x="561.52" y="-117.72"/>
      <point x="671.5" y="-91.06"/>
      <point x="768.62" y="-43.660000000000004" type="curve"/>
      <point x="760.2600000000001" y="-17.940000000000005" type="line"/>
      <point x="663.5" y="-63.8"/>
      <point x="559.64" y="-87.28"/>
      <point x="461.02000000000004" y="-87.28" type="curve" smooth="yes"/>
      <point x="240.42" y="-87.28"/>
      <point x="105.19999999999999" y="34.94"/>
      <point x="105.19999999999999" y="231.92000000000002" type="curve" smooth="yes"/>
      <point x="105.19999999999999" y="504.82"/>
      <point x="316.32000000000005" y="713.88"/>
      <point x="623.42" y="713.88" type="curve" smooth="yes"/>
      <point x="852.72" y="713.88"/>
      <point x="989.12" y="589.28"/>
      <point x="989.12" y="404.61999999999995" type="curve" smooth="yes"/>
      <point x="989.12" y="246.81999999999996"/>
      <point x="901.24" y="118.12"/>
      <point x="811.82" y="118.12" type="curve" smooth="yes"/>
      <point x="742.4" y="118.12"/>
      <point x="739.06" y="186.92"/>
      <point x="757.1600000000001" y="276.7" type="curve" smooth="yes"/>
      <point x="805.24" y="513.5" type="line"/>
      <point x="735.6" y="532.58"/>
      <point x="677.22" y="542.02"/>
      <point x="628.3399999999999" y="542.02" type="curve" smooth="yes"/>
      <point x="430.26" y="542.02"/>
      <point x="283.26" y="417.3"/>
      <point x="283.26" y="251.12" type="curve" smooth="yes"/>
      <point x="283.26" y="146.14"/>
      <point x="343.34000000000003" y="90.41999999999999"/>
      <point x="456.16" y="90.41999999999999" type="curve" smooth="yes"/>
      <point x="547.62" y="90.41999999999999"/>
      <point x="653.12" y="140.88"/>
      <point x="711.0600000000001" y="219.56" type="curve"/>
      <point x="702.66" y="124.62"/>
      <point x="742.9799999999999" y="86.52000000000001"/>
      <point x="810.0600000000001" y="86.52000000000001" type="curve" smooth="yes"/>
      <point x="921.0799999999999" y="86.52000000000001"/>
      <point x="1020.1800000000001" y="229.52"/>
      <point x="1020.1800000000001" y="403.7" type="curve" smooth="yes"/>
      <point x="1020.1800000000001" y="609.5"/>
      <point x="867.46" y="744.14"/>
      <point x="624.84" y="744.14" type="curve" smooth="yes"/>
      <point x="303.58" y="744.14"/>
      <point x="74.78" y="527.4000000000001"/>
      <point x="74.78" y="227.38" type="curve" smooth="yes"/>
      <point x="74.78" y="12.64"/>
      <point x="219.58" y="-117.72"/>
    </contour>
    <contour>
      <point x="472.14" y="125.9" type="curve" smooth="yes"/>
      <point x="375.16" y="125.9"/>
      <point x="324.94" y="171.20000000000002"/>
      <point x="324.94" y="257.26" type="curve" smooth="yes"/>
      <point x="324.94" y="399.35999999999996"/>
      <point x="450.32" y="508.08"/>
      <point x="613.6400000000001" y="508.08" type="curve" smooth="yes"/>
      <point x="667.1200000000001" y="508.08"/>
      <point x="706.42" y="502.43999999999994"/>
      <point x="760.1" y="486.34" type="curve"/>
      <point x="715.26" y="266.91999999999996" type="line" smooth="yes"/>
      <point x="672.22" y="187.22"/>
      <point x="566.76" y="125.9"/>
    </contour>
  </outline>
</glyph>
<glyph name="A" format="2">
  <advance width="895.67"/>
  <unicode hex="0041"/>
  <anchor x="404.73400000000004" y="0.0" name="bottom"/>
  <anchor x="838.75" y="0.0" name="ogonek"/>
  <anchor x="516.83" y="700.0" name="top"/>
  <outline>
    <contour>
      <point x="-31.080000000000002" y="0.0" type="line"/>
      <point x="21.0" y="0.0" type="line"/>
      <point x="177.56" y="211.11" type="line"/>
      <point x="699.4200000000001" y="211.11" type="line"/>
      <point x="787.9399999999999" y="0.0" type="line"/>
      <point x="838.75" y="0.0" type="line"/>
      <point x="534.97" y="710.0" type="line"/>
      <point x="498.06000000000006" y="710.0" type="line"/>
    </contour>
    <contour>
      <point x="200.2" y="245.5" type="line"/>
      <point x="511.59000000000003" y="664.1899999999999" type="line"/>
      <point x="688.18" y="245.5" type="line"/>
    </contour>
  </outline>
</glyph>
<glyph name="B" format="2">
  <advance width="988.9799999999999"/>
  <unicode hex="0042"/>
  <outline>
    <contour>
      <point x="89.06" y="5.0" type="line"/>
      <point x="278.46" y="-5.18"/>
      <point x="366.6" y="-10.0"/>
      <point x="492.2" y="-10.0" type="curve" smooth="yes"/>
      <point x="655.6800000000001" y="-10.0"/>
      <point x="907.46" y="-3.540000000000009"/>
      <point x="907.46" y="217.98" type="curve" smooth="yes"/>
      <point x="907.46" y="306.08"/>
      <point x="825.7" y="368.17999999999995"/>
      <point x="714.9200000000001" y="374.26" type="curve"/>
      <point x="809.08" y="390.23999999999995"/>
      <point x="905.28" y="450.55999999999995"/>
      <point x="905.28" y="555.9200000000001" type="curve" smooth="yes"/>
      <point x="905.28" y="673.7600000000001"/>
      <point x="799.46" y="710.0"/>
      <point x="576.08" y="710.0" type="curve" smooth="yes"/>
      <point x="491.1" y="710.0"/>
      <point x="394.96" y="706.0"/>
      <point x="198.60000000000002" y="695.0" type="curve"/>
    </contour>
    <contour>
      <point x="193.52" y="383.86" type="line"/>
      <point x="237.1" y="660.98" type="line"/>
      <point x="351.24" y="667.62"/>
      <point x="455.69999999999993" y="675.08"/>
      <point x="566.94" y="675.08" type="curve" smooth="yes"/>
      <point x="762.3800000000001" y="675.08"/>
      <point x="859.1800000000001" y="649.4399999999999"/>
      <point x="859.1800000000001" y="547.36" type="curve" smooth="yes"/>
      <point x="859.1800000000001" y="430.28000000000003"/>
      <point x="716.64" y="383.86"/>
      <point x="613.3600000000001" y="383.86" type="curve" smooth="yes"/>
    </contour>
    <contour>
      <point x="187.99999999999997" y="352.17999999999995" type="line"/>
      <point x="618.96" y="352.17999999999995" type="line" smooth="yes"/>
      <point x="714.7800000000001" y="352.17999999999995"/>
      <point x="861.64" y="328.44"/>
      <point x="861.64" y="214.8" type="curve" smooth="yes"/>
      <point x="861.64" y="39.76"/>
      <point x="651.8400000000001" y="25.2"/>
      <point x="497.84" y="25.2" type="curve" smooth="yes"/>
      <point x="359.36" y="25.2"/>
      <point x="276.34000000000003" y="32.660000000000004"/>
      <point x="138.78" y="39.120000000000005" type="curve"/>
    </contour>
  </outline>
</glyph>
<glyph name="C" format="2">
  <advance width="1001.1"/>
  <unicode hex="0043"/>
  <anchor x="547.3" y="0.0" name="bottom"/>
  <anchor x="642.9399999999999" y="700.0" name="top"/>
  <outline>
    <contour>
      <point x="566.54" y="-10.0" type="curve" smooth="yes"/>
      <point x="702.2" y="-10.0"/>
      <point x="817.1200000000001" y="6.64"/>
      <point x="909.9" y="39.92" type="curve"/>
      <point x="902.28" y="74.19999999999999" type="line"/>
      <point x="813.0200000000001" y="43.82000000000001"/>
      <point x="701.08" y="26.819999999999997"/>
      <point x="572.78" y="26.819999999999997" type="curve" smooth="yes"/>
      <point x="298.76" y="26.819999999999997"/>
      <point x="133.68" y="127.26"/>
      <point x="133.68" y="312.34" type="curve" smooth="yes"/>
      <point x="133.68" y="535.36"/>
      <point x="318.42" y="673.1800000000001"/>
      <point x="632.2199999999999" y="673.1800000000001" type="curve" smooth="yes"/>
      <point x="753.7799999999999" y="673.1800000000001"/>
      <point x="850.3799999999999" y="658.92"/>
      <point x="961.96" y="628.0" type="curve"/>
      <point x="972.9999999999999" y="662.9200000000001" type="line"/>
      <point x="853.38" y="697.1800000000001"/>
      <point x="756.5999999999999" y="710.0"/>
      <point x="633.5200000000001" y="710.0" type="curve" smooth="yes"/>
      <point x="288.68" y="710.0"/>
      <point x="88.22" y="557.9000000000001"/>
      <point x="88.22" y="309.81999999999994" type="curve" smooth="yes"/>
      <point x="88.22" y="101.66"/>
      <point x="266.32" y="-10.0"/>
    </contour>
  </outline>
</glyph>
<glyph name="D" format="2">
  <advance width="1073.9"/>
  <unicode hex="0044"/>
  <anchor x="465.52" y="0.0" name="bottom"/>
  <anchor x="522.24" y="350.0" name="center"/>
  <anchor x="562.76" y="700.0" name="top"/>
  <outline>
    <contour>
      <point x="445.86" y="-10.0" type="curve" smooth="yes"/>
      <point x="758.9" y="-10.0"/>
      <point x="1006.86" y="98.34"/>
      <point x="1006.86" y="373.9" type="curve" smooth="yes"/>
      <point x="1006.86" y="660.52"/>
      <point x="752.84" y="710.0"/>
      <point x="515.24" y="710.0" type="curve" smooth="yes"/>
      <point x="401.23999999999995" y="710.0"/>
      <point x="303.82" y="707.0"/>
      <point x="198.60000000000002" y="700.0" type="curve"/>
      <point x="87.24000000000001" y="2.220446049250313e-16" type="line"/>
      <point x="214.14" y="-8.82"/>
      <point x="299.1" y="-10.0"/>
    </contour>
    <contour>
      <point x="442.09999999999997" y="24.84" type="curve" smooth="yes"/>
      <point x="323.41999999999996" y="24.84"/>
      <point x="238.82" y="26.84"/>
      <point x="136.96" y="33.480000000000004" type="curve"/>
      <point x="237.28" y="665.06" type="line"/>
      <point x="295.29999999999995" y="670.6999999999999"/>
      <point x="414.56" y="675.34"/>
      <point x="516.5" y="675.34" type="curve" smooth="yes"/>
      <point x="725.4000000000001" y="675.34"/>
      <point x="960.94" y="631.72"/>
      <point x="960.94" y="370.81999999999994" type="curve" smooth="yes"/>
      <point x="960.94" y="125.41999999999999"/>
      <point x="738.34" y="24.84"/>
    </contour>
  </outline>
</glyph>
<glyph name="E" format="2">
  <advance width="901.84"/>
  <unicode hex="0045"/>
  <anchor x="444.26000000000005" y="0.0" name="bottom"/>
  <anchor x="800.4599999999999" y="0.0" name="ogonek"/>
  <anchor x="541.08" y="700.0" name="top"/>
  <anchor x="114.3" y="700.0" name="topleft"/>
  <outline>
    <contour>
      <point x="87.24000000000001" y="0.0" type="line"/>
      <point x="800.4599999999999" y="0.0" type="line"/>
      <point x="806.7" y="38.08" type="line"/>
      <point x="136.78000000000003" y="38.08" type="line"/>
      <point x="188.56" y="361.21999999999997" type="line"/>
      <point x="801.3" y="361.21999999999997" type="line"/>
      <point x="807.36" y="398.58000000000004" type="line"/>
      <point x="193.61999999999998" y="398.58000000000004" type="line"/>
      <point x="235.66" y="661.92" type="line"/>
      <point x="878.5799999999999" y="661.92" type="line"/>
      <point x="884.82" y="700.0" type="line"/>
      <point x="198.6" y="700.0" type="line"/>
    </contour>
  </outline>
</glyph>
<glyph name="F" format="2">
  <advance width="859.12"/>
  <unicode hex="0046"/>
  <outline>
    <contour>
      <point x="87.24000000000001" y="0.0" type="line"/>
      <point x="131.44" y="0.0" type="line"/>
      <point x="178.64000000000001" y="291.58000000000004" type="line"/>
      <point x="752.7600000000001" y="291.58000000000004" type="line"/>
      <point x="757.8199999999999" y="329.65999999999997" type="line"/>
      <point x="183.88" y="329.65999999999997" type="line"/>
      <point x="236.56" y="661.92" type="line"/>
      <point x="877.8599999999999" y="661.92" type="line"/>
      <point x="884.1" y="700.0" type="line"/>
      <point x="198.6" y="700.0" type="line"/>
    </contour>
  </outline>
</glyph>
<glyph name="G" format="2">
  <advance width="1017.8100000000002"/>
  <unicode hex="0047"/>
  <anchor x="505.71999999999997" y="0.0" name="bottom"/>
  <anchor x="636.2900000000001" y="700.0" name="top"/>
  <outline>
    <contour>
      <point x="535.3000000000001" y="-10.0" type="curve" smooth="yes"/>
      <point x="686.6999999999999" y="-10.0"/>
      <point x="811.24" y="19.54"/>
      <point x="891.32" y="52.54" type="curve"/>
      <point x="934.21" y="319.71" type="line"/>
      <point x="549.4200000000001" y="319.71" type="line"/>
      <point x="543.99" y="285.86" type="line"/>
      <point x="887.91" y="285.86" type="line"/>
      <point x="854.61" y="77.69" type="line"/>
      <point x="780.2900000000001" y="45.85"/>
      <point x="671.95" y="25.02"/>
      <point x="544.6999999999999" y="25.02" type="curve" smooth="yes"/>
      <point x="319.26" y="25.02"/>
      <point x="132.04999999999998" y="116.25"/>
      <point x="132.04999999999998" y="311.26000000000005" type="curve" smooth="yes"/>
      <point x="132.04999999999998" y="540.8199999999999"/>
      <point x="325.24" y="673.4499999999999"/>
      <point x="631.37" y="673.4499999999999" type="curve" smooth="yes"/>
      <point x="748.83" y="673.4499999999999"/>
      <point x="832.37" y="660.45"/>
      <point x="943.3" y="628.8" type="curve"/>
      <point x="956.59" y="662.63" type="line"/>
      <point x="861.3499999999999" y="693.63"/>
      <point x="749.8100000000001" y="710.0"/>
      <point x="633.66" y="710.0" type="curve" smooth="yes"/>
      <point x="294.96000000000004" y="710.0"/>
      <point x="87.22" y="564.99"/>
      <point x="87.22" y="304.55" type="curve" smooth="yes"/>
      <point x="87.22" y="94.45"/>
      <point x="288.35" y="-10.0"/>
    </contour>
  </outline>
</glyph>
<glyph name="H" format="2">
  <advance width="1104.57"/>
  <unicode hex="0048"/>
  <anchor x="509.1840000000001" y="0.0" name="bottom"/>
  <anchor x="564.619" y="350.0" name="center"/>
  <anchor x="620.053" y="700.0" name="top"/>
  <anchor x="87.313" y="700.0" name="topleft"/>
  <outline>
    <contour>
      <point x="87.15" y="0.0" type="line"/>
      <point x="131.44" y="0.0" type="line"/>
      <point x="176.36" y="284.16" type="line"/>
      <point x="930.6800000000001" y="284.16" type="line"/>
      <point x="885.58" y="0.0" type="line"/>
      <point x="929.06" y="0.0" type="line"/>
      <point x="1040.42" y="700.0" type="line"/>
      <point x="997.0300000000001" y="700.0" type="line"/>
      <point x="936.74" y="322.24" type="line"/>
      <point x="182.42000000000002" y="322.24" type="line"/>
      <point x="242.79999999999998" y="700.0" type="line"/>
      <point x="198.51" y="700.0" type="line"/>
    </contour>
  </outline>
</glyph>
<glyph name="I" format="2">
  <advance width="306.95"/>
  <unicode hex="0049"/>
  <anchor x="110.33404" y="0.0" name="bottom"/>
  <anchor x="131.44" y="0.0" name="ogonek"/>
  <anchor x="221.21482999999998" y="700.0" name="top"/>
  <anchor x="114.3" y="700.0" name="topleft"/>
  <outline>
    <contour>
      <point x="87.15" y="0.0" type="line"/>
      <point x="131.44" y="0.0" type="line"/>
      <point x="242.79999999999998" y="700.0" type="line"/>
      <point x="198.51" y="700.0" type="line"/>
    </contour>
  </outline>
</glyph>
<glyph name="J" format="2">
  <advance width="744.6999999999999"/>
  <unicode hex="004A"/>
  <anchor x="325.76" y="0.0" name="bottom"/>
  <anchor x="437.66" y="700.0" name="top"/>
  <outline>
    <contour>
      <point x="-6.17" y="40.73" type="line"/>
      <point x="57.12" y="17.56"/>
      <point x="136.97" y="-10.0"/>
      <point x="281.18" y="-10.0" type="curve" smooth="yes"/>
      <point x="456.81" y="-10.0"/>
      <point x="598.1999999999999" y="71.71000000000001"/>
      <point x="632.47" y="277.78999999999996" type="curve" smooth="yes"/>
      <point x="699.47" y="700.0" type="line"/>
      <point x="169.65" y="700.0" type="line"/>
      <point x="163.41" y="661.74" type="line"/>
      <point x="648.94" y="661.74" type="line"/>
      <point x="587.99" y="280.76" type="line" smooth="yes"/>
      <point x="559.4300000000001" y="98.85000000000001"/>
      <point x="431.34999999999997" y="27.45"/>
      <point x="281.39" y="27.45" type="curve" smooth="yes"/>
      <point x="145.04999999999998" y="27.45"/>
      <point x="69.61" y="56.190000000000005"/>
      <point x="5.400000000000001" y="78.82000000000001" type="curve"/>
    </contour>
  </outline>
</glyph>
<glyph name="K" format="2">
  <advance width="971.14"/>
  <unicode hex="004B"/>
  <anchor x="450.24" y="0.0" name="bottom"/>
  <anchor x="540.3199999999999" y="700.0" name="top"/>
  <outline>
    <contour>
      <point x="87.24" y="0.0" type="line"/>
      <point x="131.44" y="0.0" type="line"/>
      <point x="242.79999999999998" y="700.0" type="line"/>
      <point x="198.78" y="700.0" type="line"/>
    </contour>
    <contour>
      <point x="897.8399999999999" y="-10.0" type="curve" smooth="yes"/>
      <point x="901.5600000000001" y="-10.0"/>
      <point x="911.44" y="-9.82"/>
      <point x="916.98" y="-8.64" type="curve"/>
      <point x="921.22" y="28.8" type="line"/>
      <point x="916.5" y="28.8"/>
      <point x="911.96" y="28.8"/>
      <point x="907.4200000000001" y="28.8" type="curve" smooth="yes"/>
      <point x="837.6800000000001" y="28.8"/>
      <point x="789.5" y="58.54"/>
      <point x="684.8399999999999" y="129.29999999999998" type="curve" smooth="yes"/>
      <point x="192.56" y="462.71999999999997" type="line"/>
      <point x="186.5" y="421.48" type="line"/>
      <point x="618.64" y="123.06" type="line" smooth="yes"/>
      <point x="748.6800000000001" y="33.199999999999996"/>
      <point x="815.28" y="-10.0"/>
    </contour>
    <contour>
      <point x="368.78" y="323.96000000000004" type="line"/>
      <point x="535.24" y="379.15999999999997"/>
      <point x="831.0799999999999" y="511.62"/>
      <point x="986.42" y="684.86" type="curve"/>
      <point x="957.94" y="710.9" type="line"/>
      <point x="787.0" y="531.04"/>
      <point x="495.94" y="403.38"/>
      <point x="333.58" y="348.12" type="curve"/>
    </contour>
  </outline>
</glyph>
<glyph name="L" format="2">
  <advance width="806.99"/>
  <unicode hex="004C"/>
  <anchor x="416.17" y="0.0" name="bottom"/>
  <anchor x="415.829" y="350.0" name="center"/>
  <anchor x="220.20000000000002" y="700.0" name="top"/>
  <anchor x="607.75" y="700.0" name="topright"/>
  <outline>
    <contour>
      <point x="87.15" y="0.0" type="line"/>
      <point x="744.28" y="0.0" type="line"/>
      <point x="750.61" y="37.54" type="line"/>
      <point x="137.59" y="37.54" type="line"/>
      <point x="242.79999999999998" y="700.0" type="line"/>
      <point x="198.51" y="700.0" type="line"/>
    </contour>
  </outline>
</glyph>
<glyph name="M" format="2">
  <advance width="1253.9099999999999"/>
  <unicode hex="004D"/>
  <outline>
    <contour>
      <point x="87.15" y="0.0" type="line"/>
      <point x="131.54999999999998" y="0.0" type="line"/>
      <point x="233.87" y="647.38" type="line"/>
      <point x="616.8599999999999" y="274.72999999999996" type="line"/>
      <point x="635.84" y="274.72999999999996" type="line"/>
      <point x="1139.1299999999999" y="647.7299999999999" type="line"/>
      <point x="1036.18" y="0.0" type="line"/>
      <point x="1078.4" y="0.0" type="line"/>
      <point x="1189.76" y="700.0" type="line"/>
      <point x="1143.9299999999998" y="700.0" type="line"/>
      <point x="630.41" y="316.34" type="line"/>
      <point x="240.89999999999998" y="700.0" type="line"/>
      <point x="198.51" y="700.0" type="line"/>
    </contour>
  </outline>
</glyph>
<glyph name="N" format="2">
  <advance width="1099.6399999999999"/>
  <unicode hex="004E"/>
  <anchor x="496.34996" y="0.0" name="bottom"/>
  <anchor x="619.16817" y="700.0" name="top"/>
  <outline>
    <contour>
      <point x="87.15" y="0.0" type="line"/>
      <point x="129.74" y="0.0" type="line"/>
      <point x="232.97" y="652.68" type="line"/>
      <point x="882.71" y="-9.1" type="line"/>
      <point x="922.22" y="-9.1" type="line"/>
      <point x="1035.49" y="700.0" type="line"/>
      <point x="992.9" y="700.0" type="line"/>
      <point x="889.3100000000001" y="44.61" type="line"/>
      <point x="239.93" y="709.1" type="line"/>
      <point x="200.42" y="709.1" type="line"/>
    </contour>
  </outline>
</glyph>
<glyph name="O" format="2">
  <advance width="1137.14"/>
  <unicode hex="004F"/>
  <note>
8
</note>
  <anchor x="524.84408" y="0.0" name="bottom"/>
  <anchor x="580.38078" y="350.0" name="center"/>
  <anchor x="622.44" y="-0.18000000000000005" name="ogonek"/>
  <anchor x="615.74" y="700.0" name="top"/>
  <anchor x="95.92" y="700.0" name="topleft"/>
  <anchor x="931.38" y="656.06" name="topright"/>
  <outline>
    <contour>
      <point x="568.4" y="-10.0" type="curve" smooth="yes"/>
      <point x="888.8399999999999" y="-10.0"/>
      <point x="1072.5600000000002" y="137.56"/>
      <point x="1072.5600000000002" y="395.66" type="curve" smooth="yes"/>
      <point x="1072.5600000000002" y="601.56"/>
      <point x="919.0999999999999" y="710.18"/>
      <point x="592.5600000000001" y="710.18" type="curve" smooth="yes"/>
      <point x="272.12" y="710.18"/>
      <point x="88.4" y="562.62"/>
      <point x="88.4" y="304.52" type="curve" smooth="yes"/>
      <point x="88.4" y="98.62"/>
      <point x="241.86" y="-10.0"/>
    </contour>
    <contour>
      <point x="569.66" y="25.02" type="curve" smooth="yes"/>
      <point x="270.85999999999996" y="25.02"/>
      <point x="132.96" y="120.60000000000001"/>
      <point x="132.96" y="307.59999999999997" type="curve" smooth="yes"/>
      <point x="132.96" y="542.9"/>
      <point x="296.68" y="675.1600000000001"/>
      <point x="591.3" y="675.1600000000001" type="curve" smooth="yes"/>
      <point x="890.1" y="675.1600000000001"/>
      <point x="1028.0" y="579.5799999999999"/>
      <point x="1028.0" y="392.58000000000004" type="curve" smooth="yes"/>
      <point x="1028.0" y="157.28"/>
      <point x="864.28" y="25.02"/>
    </contour>
  </outline>
</glyph>
<glyph name="P" format="2">
  <advance width="976.7299999999999"/>
  <unicode hex="0050"/>
  <outline>
    <contour>
      <point x="87.15" y="0.0" type="line"/>
      <point x="131.35" y="0.0" type="line"/>
      <point x="170.36" y="242.52999999999997" type="line"/>
      <point x="302.58" y="238.53"/>
      <point x="378.08" y="236.62"/>
      <point x="496.15999999999997" y="236.62" type="curve" smooth="yes"/>
      <point x="821.4300000000001" y="236.62"/>
      <point x="947.24" y="318.72"/>
      <point x="949.0600000000001" y="503.13" type="curve" smooth="yes"/>
      <point x="949.97" y="659.37"/>
      <point x="833.9" y="710.0"/>
      <point x="548.06" y="710.0" type="curve" smooth="yes"/>
      <point x="492.70000000000005" y="710.0"/>
      <point x="425.59" y="707.91"/>
      <point x="198.6" y="700.0" type="curve"/>
    </contour>
    <contour>
      <point x="237.19" y="664.8000000000001" type="line"/>
      <point x="397.7" y="671.53"/>
      <point x="476.94999999999993" y="674.26"/>
      <point x="547.22" y="674.26" type="curve" smooth="yes"/>
      <point x="809.45" y="674.26"/>
      <point x="903.69" y="636.97"/>
      <point x="903.69" y="497.14" type="curve" smooth="yes"/>
      <point x="903.69" y="343.5"/>
      <point x="790.7900000000001" y="272.72"/>
      <point x="499.45" y="272.72" type="curve" smooth="yes"/>
      <point x="389.37" y="272.72"/>
      <point x="309.40000000000003" y="275.53999999999996"/>
      <point x="176.24" y="278.63" type="curve"/>
    </contour>
  </outline>
</glyph>
<glyph name="Q" format="2">
  <advance width="1136.4199999999998"/>
  <unicode hex="0051"/>
  <note>
14
</note>
  <outline>
    <contour>
      <point x="788.09" y="-219.28" type="curve" smooth="yes"/>
      <point x="850.38" y="-219.28"/>
      <point x="897.47" y="-204.08999999999997"/>
      <point x="940.5500000000001" y="-179.07999999999998" type="curve"/>
      <point x="933.27" y="-144.98" type="line"/>
      <point x="887.42" y="-170.91"/>
      <point x="844.9399999999999" y="-182.01"/>
      <point x="795.8199999999999" y="-182.01" type="curve" smooth="yes"/>
      <point x="683.65" y="-182.01"/>
      <point x="593.88" y="-101.75999999999999"/>
      <point x="558.96" y="-0.050000000000000266" type="curve"/>
      <point x="515.9200000000001" y="-2.9200000000000004" type="line"/>
      <point x="562.46" y="-147.28"/>
      <point x="671.11" y="-219.28"/>
    </contour>
    <component base="O"/>
  </outline>
</glyph>
<glyph name="R" format="2">
  <advance width="1013.4399999999999"/>
  <unicode hex="0052"/>
  <anchor x="495.42" y="0.0" name="bottom"/>
  <anchor x="520.12" y="700.0" name="top"/>
  <outline>
    <contour>
      <point x="88.06" y="0.0" type="line"/>
      <point x="132.44" y="0.0" type="line"/>
      <point x="180.82" y="300.84" type="line"/>
      <point x="317.6" y="297.84"/>
      <point x="433.08" y="296.02"/>
      <point x="595.98" y="296.02" type="curve"/>
      <point x="608.52" y="296.38" type="line"/>
      <point x="823.08" y="296.56"/>
      <point x="934.24" y="373.04"/>
      <point x="934.24" y="521.58" type="curve" smooth="yes"/>
      <point x="934.24" y="662.14"/>
      <point x="851.82" y="710.0"/>
      <point x="522.92" y="710.0" type="curve" smooth="yes"/>
      <point x="404.03999999999996" y="710.0"/>
      <point x="327.4" y="708.0"/>
      <point x="199.42" y="701.8199999999999" type="curve"/>
    </contour>
    <contour>
      <point x="966.5400000000001" y="-10.0" type="curve" smooth="yes"/>
      <point x="970.26" y="-10.0"/>
      <point x="978.9599999999999" y="-10.0"/>
      <point x="984.3199999999999" y="-9.0" type="curve"/>
      <point x="985.9200000000001" y="29.259999999999998" type="line"/>
      <point x="981.56" y="28.259999999999998"/>
      <point x="973.6600000000001" y="28.259999999999998"/>
      <point x="970.12" y="28.259999999999998" type="curve" smooth="yes"/>
      <point x="878.64" y="28.259999999999998"/>
      <point x="744.1800000000001" y="168.82000000000002"/>
      <point x="614.4000000000001" y="310.02000000000004" type="curve"/>
      <point x="563.22" y="303.72" type="line"/>
      <point x="700.62" y="152.04"/>
      <point x="850.52" y="-10.0"/>
    </contour>
    <contour>
      <point x="591.64" y="330.86" type="curve" smooth="yes"/>
      <point x="410.08" y="330.86"/>
      <point x="297.12" y="333.68"/>
      <point x="186.34" y="337.04" type="curve"/>
      <point x="238.1" y="667.7" type="line"/>
      <point x="354.47999999999996" y="673.5200000000001"/>
      <point x="399.06" y="675.34"/>
      <point x="519.2" y="675.34" type="curve" smooth="yes"/>
      <point x="816.1999999999999" y="675.34"/>
      <point x="887.6" y="638.14"/>
      <point x="887.6" y="518.24" type="curve" smooth="yes"/>
      <point x="887.6" y="391.0"/>
      <point x="788.8599999999999" y="330.86"/>
    </contour>
  </outline>
</glyph>
<glyph name="S" format="2">
  <advance width="908.92"/>
  <unicode hex="0053"/>
  <anchor x="413.99999999999994" y="0.0" name="bottom"/>
  <anchor x="523.5999999999999" y="700.0" name="top"/>
  <outline>
    <contour>
      <point x="844.6" y="661.9" type="line"/>
      <point x="724.34" y="696.18"/>
      <point x="646.1999999999999" y="710.0"/>
      <point x="535.86" y="710.0" type="curve" smooth="yes"/>
      <point x="257.84000000000003" y="710.0"/>
      <point x="124.42" y="632.36"/>
      <point x="124.42" y="507.22" type="curve" smooth="yes"/>
      <point x="124.42" y="247.64000000000001"/>
      <point x="783.68" y="403.76"/>
      <point x="783.68" y="180.6" type="curve" smooth="yes"/>
      <point x="783.68" y="87.34"/>
      <point x="683.54" y="25.38"/>
      <point x="440.28000000000003" y="25.38" type="curve" smooth="yes"/>
      <point x="310.32" y="25.38"/>
      <point x="146.58" y="55.559999999999995"/>
      <point x="32.519999999999996" y="94.92" type="curve"/>
      <point x="17.5" y="57.82" type="line"/>
      <point x="153.77999999999997" y="14.54"/>
      <point x="301.76" y="-10.0"/>
      <point x="432.15999999999997" y="-10.0" type="curve" smooth="yes"/>
      <point x="721.36" y="-10.0"/>
      <point x="829.68" y="63.52"/>
      <point x="829.68" y="187.74" type="curve" smooth="yes"/>
      <point x="829.68" y="447.28"/>
      <point x="170.23999999999998" y="293.04"/>
      <point x="170.23999999999998" y="513.02" type="curve" smooth="yes"/>
      <point x="170.23999999999998" y="614.1800000000001"/>
      <point x="300.06000000000006" y="674.44"/>
      <point x="524.8399999999999" y="674.44" type="curve" smooth="yes"/>
      <point x="633.0600000000001" y="674.44"/>
      <point x="733.2199999999999" y="657.62"/>
      <point x="830.12" y="624.8000000000001" type="curve"/>
    </contour>
  </outline>
</glyph>
<glyph name="T" format="2">
  <advance width="794.6999999999999"/>
  <unicode hex="0054"/>
  <anchor x="353.34999999999997" y="0.0" name="bottom"/>
  <anchor x="409.23989000000006" y="350.0" name="center"/>
  <anchor x="464.63482999999997" y="700.0" name="top"/>
  <outline>
    <contour>
      <point x="846.02" y="663.81" type="line"/>
      <point x="852.26" y="700.0" type="line"/>
      <point x="77.07" y="700.0" type="line"/>
      <point x="70.74000000000001" y="663.81" type="line"/>
      <point x="436.78000000000003" y="663.81" type="line"/>
      <point x="331.57" y="0.0" type="line"/>
      <point x="375.86" y="0.0" type="line"/>
      <point x="480.98" y="663.81" type="line"/>
    </contour>
  </outline>
</glyph>
<glyph name="U" format="2">
  <advance width="1068.46"/>
  <unicode hex="0055"/>
  <anchor x="490.76995999999997" y="0.0" name="bottom"/>
  <anchor x="563.84" y="0.0" name="ogonek"/>
  <anchor x="598.11817" y="700.0" name="top"/>
  <anchor x="1023.0500000000001" y="700.0" name="topright"/>
  <outline>
    <contour>
      <point x="488.46" y="-10.0" type="curve" smooth="yes"/>
      <point x="770.7900000000001" y="-10.0"/>
      <point x="925.87" y="87.91000000000001"/>
      <point x="957.14" y="282.9" type="curve" smooth="yes"/>
      <point x="1023.2300000000001" y="700.0" type="line"/>
      <point x="979.5699999999999" y="700.0" type="line"/>
      <point x="913.02" y="285.78" type="line" smooth="yes"/>
      <point x="885.5500000000001" y="113.23"/>
      <point x="745.02" y="26.82"/>
      <point x="494.61" y="26.82" type="curve" smooth="yes"/>
      <point x="256.76" y="26.82"/>
      <point x="132.51" y="118.78"/>
      <point x="159.16" y="288.51" type="curve" smooth="yes"/>
      <point x="224.07" y="700.0" type="line"/>
      <point x="180.41" y="700.0" type="line"/>
      <point x="115.22999999999999" y="292.0" type="line" smooth="yes"/>
      <point x="111.23" y="263.0"/>
      <point x="110.22999999999999" y="248.82000000000002"/>
      <point x="110.22999999999999" y="235.64000000000001" type="curve" smooth="yes"/>
      <point x="110.22999999999999" y="76.19"/>
      <point x="244.41" y="-10.0"/>
    </contour>
  </outline>
</glyph>
<glyph name="V" format="2">
  <advance width="885.7600000000001"/>
  <unicode hex="0056"/>
  <outline>
    <contour>
      <point x="405.28" y="0.0" type="line"/>
      <point x="866.6999999999999" y="550.0200000000001"/>
      <point x="921.76" y="627.5"/>
      <point x="923.9200000000001" y="678.8199999999999" type="curve" smooth="yes"/>
      <point x="924.1" y="686.0"/>
      <point x="923.2800000000001" y="694.82"/>
      <point x="921.6400000000001" y="700.0" type="curve"/>
      <point x="873.9200000000001" y="700.0" type="line"/>
      <point x="876.56" y="691.54"/>
      <point x="876.7400000000001" y="683.08"/>
      <point x="876.7400000000001" y="678.18" type="curve" smooth="yes"/>
      <point x="876.74" y="628.08"/>
      <point x="824.5600000000001" y="562.12"/>
      <point x="389.28000000000003" y="41.42" type="curve"/>
      <point x="119.1" y="710.1" type="line"/>
      <point x="74.74" y="701.82" type="line"/>
      <point x="360.26" y="0.0" type="line"/>
    </contour>
  </outline>
</glyph>
<glyph name="W" format="2">
  <advance width="1328.9799999999998"/>
  <unicode hex="0057"/>
  <anchor x="612.7199999999999" y="0.0" name="bottom"/>
  <anchor x="725.34" y="700.0" name="top"/>
  <outline>
    <contour>
      <point x="964.84" y="0.0" type="line"/>
      <point x="1294.18" y="513.8000000000001"/>
      <point x="1368.06" y="632.42"/>
      <point x="1368.06" y="686.4599999999999" type="curve" smooth="yes"/>
      <point x="1368.06" y="689.82"/>
      <point x="1367.88" y="695.36"/>
      <point x="1366.06" y="700.0" type="curve"/>
      <point x="1323.02" y="700.0" type="line"/>
      <point x="1323.8400000000001" y="695.64"/>
      <point x="1324.66" y="692.9200000000001"/>
      <point x="1324.48" y="684.74" type="curve" smooth="yes"/>
      <point x="1323.04" y="631.66"/>
      <point x="1267.3999999999999" y="544.7399999999999"/>
      <point x="945.7800000000001" y="42.0" type="curve"/>
      <point x="739.4399999999999" y="654.7199999999999" type="line"/>
      <point x="690.92" y="654.7199999999999" type="line"/>
      <point x="570.6600000000001" y="449.84000000000003"/>
      <point x="449.5" y="248.22"/>
      <point x="326.17999999999995" y="41.18" type="curve"/>
      <point x="120.3" y="700.0" type="line"/>
      <point x="74.28" y="700.0" type="line"/>
      <point x="295.82" y="0.0" type="line"/>
      <point x="341.46" y="0.0" type="line"/>
      <point x="464.24" y="201.9"/>
      <point x="587.74" y="405.52"/>
      <point x="709.2600000000001" y="608.32" type="curve"/>
      <point x="917.6800000000001" y="0.0" type="line"/>
    </contour>
  </outline>
</glyph>
<glyph name="X" format="2">
  <advance width="898.6"/>
  <unicode hex="0058"/>
  <outline>
    <contour>
      <point x="809.84" y="-7.28" type="line"/>
      <point x="854.7" y="4.64" type="line"/>
      <point x="489.74" y="369.6" type="line"/>
      <point x="709.52" y="492.02"/>
      <point x="852.82" y="569.98"/>
      <point x="910.3000000000001" y="701.0" type="curve"/>
      <point x="863.52" y="709.1" type="line"/>
      <point x="804.7400000000001" y="582.6"/>
      <point x="679.2" y="517.32"/>
      <point x="466.2" y="398.54" type="curve"/>
      <point x="158.72" y="707.28" type="line"/>
      <point x="112.12" y="694.54" type="line"/>
      <point x="428.02" y="380.53999999999996" type="line"/>
      <point x="198.24" y="254.38000000000002"/>
      <point x="55.78" y="163.26"/>
      <point x="19.04" y="0.0" type="curve"/>
      <point x="69.56" y="0.0" type="line"/>
      <point x="111.5" y="158.73999999999998"/>
      <point x="230.92" y="232.72"/>
      <point x="451.20000000000005" y="351.24" type="curve"/>
    </contour>
  </outline>
</glyph>
<glyph name="Y" format="2">
  <advance width="826.44"/>
  <unicode hex="0059"/>
  <anchor x="363.4" y="0.0" name="bottom"/>
  <anchor x="488.04" y="700.0" name="top"/>
  <anchor x="75.18" y="700.0" name="topleft"/>
  <outline>
    <contour>
      <point x="361.62" y="0.0" type="line"/>
      <point x="405.46" y="0.0" type="line"/>
      <point x="455.38" y="293.34000000000003" type="line"/>
      <point x="730.8199999999999" y="496.06"/>
      <point x="809.02" y="572.3399999999999"/>
      <point x="853.6800000000001" y="661.08" type="curve" smooth="yes"/>
      <point x="860.32" y="673.72"/>
      <point x="865.96" y="686.36"/>
      <point x="870.78" y="700.0" type="curve"/>
      <point x="826.24" y="708.28" type="line"/>
      <point x="820.6" y="692.82"/>
      <point x="814.14" y="679.36"/>
      <point x="806.6799999999998" y="664.9" type="curve" smooth="yes"/>
      <point x="764.12" y="583.92"/>
      <point x="698.64" y="516.7"/>
      <point x="435.22" y="324.35999999999996" type="curve"/>
      <point x="109.54" y="709.1" type="line"/>
      <point x="66.28" y="697.36" type="line"/>
      <point x="410.36" y="293.34000000000003" type="line"/>
    </contour>
  </outline>
</glyph>
<glyph name="Z" format="2">
  <advance width="866.72"/>
  <unicode hex="005A"/>
  <anchor x="397.96" y="0.0" name="bottom"/>
  <anchor x="442.04" y="350.0" name="center"/>
  <anchor x="495.32" y="700.0" name="top"/>
  <outline>
    <contour>
      <point x="-3.5399999999999996" y="0.0" type="line"/>
      <point x="799.28" y="0.0" type="line"/>
      <point x="804.98" y="35.56" type="line"/>
      <point x="72.18" y="35.56" type="line"/>
      <point x="862.74" y="669.88" type="line"/>
      <point x="867.26" y="700.0" type="line"/>
      <point x="144.56" y="700.0" type="line"/>
      <point x="138.86" y="664.4399999999999" type="line"/>
      <point x="793.6199999999999" y="664.4399999999999" type="line"/>
      <point x="0.9800000000000006" y="30.12" type="line"/>
    </contour>
  </outline>
</glyph>
<glyph name="bracketleft" format="2">
  <advance width="463.6"/>
  <unicode hex="005B"/>
  <outline>
    <contour>
      <point x="126.8" y="-179.4" type="line"/>
      <point x="267.84" y="710.31" type="line"/>
      <point x="507.45" y="710.31" type="line"/>
      <point x="512.4300000000001" y="740.0" type="line"/>
      <point x="236.89999999999998" y="740.0" type="line"/>
      <point x="85.99" y="-210.0" type="line"/>
      <point x="361.43" y="-210.0" type="line"/>
      <point x="366.40999999999997" y="-179.4" type="line"/>
    </contour>
  </outline>
</glyph>
<glyph name="backslash" format="2">
  <advance width="449.56"/>
  <unicode hex="005C"/>
  <outline>
    <contour>
      <point x="136.69" y="740.0" type="line"/>
      <point x="100.94" y="740.0" type="line"/>
      <point x="339.41999999999996" y="-210.0" type="line"/>
      <point x="375.17" y="-210.0" type="line"/>
    </contour>
  </outline>
</glyph>
<glyph name="bracketright" format="2">
  <advance width="463.6"/>
  <unicode hex="005D"/>
  <outline>
    <contour>
      <point x="-45.94" y="-179.4" type="line"/>
      <point x="-50.83" y="-210.0" type="line"/>
      <point x="223.7" y="-210.0" type="line"/>
      <point x="374.70000000000005" y="740.0" type="line"/>
      <point x="99.17" y="740.0" type="line"/>
      <point x="94.19" y="709.4" type="line"/>
      <point x="333.79999999999995" y="709.4" type="line"/>
      <point x="192.76" y="-179.4" type="line"/>
    </contour>
  </outline>
</glyph>
<glyph name="asciicircum" format="2">
  <advance width="531.4300000000001"/>
  <unicode hex="005E"/>
  <outline>
    <contour>
      <point x="56.39" y="269.34000000000003" type="line"/>
      <point x="95.21000000000001" y="269.34000000000003" type="line"/>
      <point x="327.48" y="664.66" type="line"/>
      <point x="435.88000000000005" y="269.34000000000003" type="line"/>
      <point x="472.88" y="269.34000000000003" type="line"/>
      <point x="352.53" y="709.1" type="line"/>
      <point x="315.99" y="709.1" type="line"/>
    </contour>
  </outline>
</glyph>
<glyph name="underscore" format="2">
  <advance width="1019.8800000000001"/>
  <unicode hex="005F"/>
  <outline>
    <contour>
      <point x="-43.35" y="-142.66" type="line"/>
      <point x="931.07" y="-142.66" type="line"/>
      <point x="936.23" y="-111.16" type="line"/>
      <point x="-38.190000000000005" y="-111.16" type="line"/>
    </contour>
  </outline>
</glyph>
<glyph name="a" format="2">
  <advance width="799.63"/>
  <unicode hex="0061"/>
  <note>
15
</note>
  <anchor x="340.42996" y="0.0" name="bottom"/>
  <anchor x="745.8" y="0.3600000000000001" name="ogonek"/>
  <anchor x="442.23" y="531.8" name="top"/>
  <outline>
    <contour>
      <point x="696.88" y="-10.0" type="curve" smooth="yes"/>
      <point x="714.49" y="-10.0"/>
      <point x="732.1800000000001" y="-7.55"/>
      <point x="746.7099999999999" y="-2.37" type="curve"/>
      <point x="744.89" y="29.93" type="line"/>
      <point x="735.25" y="26.2"/>
      <point x="723.43" y="24.29"/>
      <point x="710.24" y="24.29" type="curve" smooth="yes"/>
      <point x="671.58" y="24.29"/>
      <point x="653.02" y="47.76"/>
      <point x="653.02" y="96.07" type="curve" smooth="yes"/>
      <point x="653.02" y="103.52"/>
      <point x="687.5" y="319.68"/>
      <point x="716.49" y="497.89" type="curve"/>
      <point x="655.14" y="525.3499999999999"/>
      <point x="563.23" y="541.8"/>
      <point x="476.65999999999997" y="541.8" type="curve" smooth="yes"/>
      <point x="222.49" y="541.8"/>
      <point x="51.57" y="413.21999999999997"/>
      <point x="51.57" y="214.17" type="curve" smooth="yes"/>
      <point x="51.57" y="70.64999999999999"/>
      <point x="151.37" y="-10.0"/>
      <point x="316.57" y="-10.0" type="curve" smooth="yes"/>
      <point x="415.94" y="-10.0"/>
      <point x="533.61" y="26.28"/>
      <point x="612.53" y="80.92999999999999" type="curve"/>
      <point x="615.95" y="23.64"/>
      <point x="648.0799999999999" y="-10.0"/>
    </contour>
    <contour>
      <point x="610.0799999999999" y="112.99" type="line"/>
      <point x="533.04" y="60.769999999999996"/>
      <point x="423.98" y="24.93"/>
      <point x="331.02" y="24.93" type="curve" smooth="yes"/>
      <point x="181.92000000000002" y="24.93"/>
      <point x="95.33" y="96.52000000000001"/>
      <point x="95.33" y="220.67999999999998" type="curve" smooth="yes"/>
      <point x="95.33" y="389.14000000000004"/>
      <point x="248.88" y="508.95"/>
      <point x="467.1" y="508.95" type="curve" smooth="yes"/>
      <point x="547.42" y="508.95"/>
      <point x="617.82" y="496.84999999999997"/>
      <point x="667.75" y="473.29" type="curve"/>
    </contour>
  </outline>
</glyph>
<glyph name="b" format="2">
  <advance width="795.46"/>
  <unicode hex="0062"/>
  <note>
12
</note>
  <outline>
    <contour>
      <point x="235.0" y="740.0" type="line"/>
      <point x="192.06000000000003" y="740.0" type="line"/>
      <point x="78.06" y="21.18" type="line"/>
      <point x="149.4" y="5.36"/>
      <point x="232.16" y="-10.0"/>
      <point x="327.2" y="-10.0" type="curve" smooth="yes"/>
      <point x="543.61" y="-10.0"/>
      <point x="742.25" y="101.85000000000001"/>
      <point x="742.25" y="326.90000000000003" type="curve" smooth="yes"/>
      <point x="742.25" y="454.99"/>
      <point x="663.06" y="541.8"/>
      <point x="507.33" y="541.8" type="curve" smooth="yes"/>
      <point x="386.65999999999997" y="541.8"/>
      <point x="286.73" y="489.77"/>
      <point x="183.9" y="418.93000000000006" type="curve"/>
    </contour>
    <contour>
      <point x="489.82" y="506.06" type="curve" smooth="yes"/>
      <point x="629.64" y="506.06"/>
      <point x="699.22" y="431.46000000000004"/>
      <point x="699.22" y="319.13" type="curve" smooth="yes"/>
      <point x="699.22" y="125.74"/>
      <point x="521.2" y="22.95"/>
      <point x="331.99" y="22.95" type="curve" smooth="yes"/>
      <point x="247.58" y="22.95"/>
      <point x="174.17999999999998" y="38.05"/>
      <point x="125.89" y="48.870000000000005" type="curve"/>
      <point x="178.92" y="382.51" type="line"/>
      <point x="300.0" y="468.31"/>
      <point x="392.04" y="506.06"/>
    </contour>
  </outline>
</glyph>
<glyph name="c" format="2">
  <advance width="747.22"/>
  <unicode hex="0063"/>
  <note>
10
</note>
  <anchor x="394.59999999999997" y="0.0" name="bottom"/>
  <anchor x="471.8" y="531.8" name="top"/>
  <outline>
    <contour>
      <point x="385.18" y="-10.0" type="curve" smooth="yes"/>
      <point x="503.74" y="-10.0"/>
      <point x="590.06" y="7.739999999999999"/>
      <point x="664.66" y="30.639999999999997" type="curve"/>
      <point x="659.84" y="63.04" type="line"/>
      <point x="584.24" y="41.4"/>
      <point x="509.24000000000007" y="23.94"/>
      <point x="394.65999999999997" y="23.94" type="curve" smooth="yes"/>
      <point x="217.58" y="23.94"/>
      <point x="101.78" y="105.35999999999999"/>
      <point x="101.78" y="227.12" type="curve" smooth="yes"/>
      <point x="101.78" y="408.44"/>
      <point x="248.52" y="507.85999999999996"/>
      <point x="465.44" y="507.85999999999996" type="curve" smooth="yes"/>
      <point x="547.64" y="507.85999999999996"/>
      <point x="632.64" y="495.58000000000004"/>
      <point x="717.8" y="471.12" type="curve"/>
      <point x="728.84" y="505.52" type="line"/>
      <point x="645.02" y="529.98"/>
      <point x="558.42" y="541.8"/>
      <point x="468.97999999999996" y="541.8" type="curve" smooth="yes"/>
      <point x="220.5" y="541.8"/>
      <point x="58.300000000000004" y="431.62"/>
      <point x="58.300000000000004" y="226.42000000000002" type="curve" smooth="yes"/>
      <point x="58.300000000000004" y="82.64"/>
      <point x="181.14000000000001" y="-10.0"/>
    </contour>
  </outline>
</glyph>
<glyph name="d" format="2">
  <advance width="809.8199999999999"/>
  <unicode hex="0064"/>
  <note>
17
</note>
  <anchor x="339.46" y="0.0" name="bottom"/>
  <anchor x="399.86" y="275.0" name="center"/>
  <anchor x="481.34" y="740.0" name="top"/>
  <anchor x="864.1199999999999" y="740.0" name="topright"/>
  <outline>
    <contour>
      <point x="699.7" y="-10.0" type="curve" smooth="yes"/>
      <point x="712.76" y="-10.0"/>
      <point x="729.5400000000001" y="-7.64"/>
      <point x="745.8000000000001" y="-2.2800000000000002" type="curve"/>
      <point x="741.34" y="30.02" type="line"/>
      <point x="731.7" y="26.199999999999996"/>
      <point x="719.88" y="24.38"/>
      <point x="706.6" y="24.38" type="curve" smooth="yes"/>
      <point x="669.9399999999999" y="24.38"/>
      <point x="649.38" y="47.58"/>
      <point x="649.38" y="87.88" type="curve" smooth="yes"/>
      <point x="649.38" y="94.77999999999999"/>
      <point x="752.2199999999999" y="740.0"/>
      <point x="752.2199999999999" y="740.0" type="curve"/>
      <point x="709.64" y="740.0" type="line"/>
      <point x="674.0" y="517.0600000000001" type="line"/>
      <point x="621.62" y="528.52"/>
      <point x="558.3399999999999" y="541.8"/>
      <point x="469.4" y="541.8" type="curve" smooth="yes"/>
      <point x="234.66000000000003" y="541.8"/>
      <point x="51.660000000000004" y="419.76"/>
      <point x="51.660000000000004" y="213.9" type="curve" smooth="yes"/>
      <point x="51.660000000000004" y="65.46000000000001"/>
      <point x="159.92000000000002" y="-10.0"/>
      <point x="310.2" y="-10.0" type="curve" smooth="yes"/>
      <point x="410.48" y="-10.0"/>
      <point x="537.34" y="26.279999999999998"/>
      <point x="607.9799999999999" y="70.92" type="curve"/>
      <point x="612.4" y="19.18"/>
      <point x="646.26" y="-10.0"/>
    </contour>
    <contour>
      <point x="322.91999999999996" y="25.019999999999996" type="curve" smooth="yes"/>
      <point x="190.2" y="25.019999999999996"/>
      <point x="95.42" y="92.06"/>
      <point x="95.42" y="222.5" type="curve" smooth="yes"/>
      <point x="95.42" y="392.78000000000003"/>
      <point x="257.97999999999996" y="509.03999999999996"/>
      <point x="461.64" y="509.03999999999996" type="curve" smooth="yes"/>
      <point x="554.6999999999999" y="509.03999999999996"/>
      <point x="619.64" y="494.12"/>
      <point x="668.66" y="483.3" type="curve"/>
      <point x="608.26" y="102.97999999999999" type="line"/>
      <point x="529.4" y="57.220000000000006"/>
      <point x="418.52" y="25.019999999999996"/>
    </contour>
  </outline>
</glyph>
<glyph name="e" format="2">
  <advance width="764.5799999999999"/>
  <unicode hex="0065"/>
  <note>
14 points
</note>
  <anchor x="375.92" y="0.0" name="bottom"/>
  <anchor x="551.4" y="13.18" name="ogonek"/>
  <anchor x="469.56" y="531.8" name="top"/>
  <outline>
    <contour>
      <point x="95.28" y="288.84" type="curve"/>
      <point x="93.25999999999999" y="258.52" type="line"/>
      <point x="163.56" y="245.14"/>
      <point x="256.42" y="236.22"/>
      <point x="344.52" y="236.4" type="curve" smooth="yes"/>
      <point x="592.0" y="236.76"/>
      <point x="721.7399999999999" y="284.56"/>
      <point x="721.7399999999999" y="392.74" type="curve" smooth="yes"/>
      <point x="721.7399999999999" y="488.53999999999996"/>
      <point x="617.4" y="541.8"/>
      <point x="454.8" y="541.8" type="curve" smooth="yes"/>
      <point x="210.86" y="541.8"/>
      <point x="57.940000000000005" y="422.09999999999997"/>
      <point x="57.940000000000005" y="226.34" type="curve" smooth="yes"/>
      <point x="57.940000000000005" y="84.63999999999999"/>
      <point x="179.1" y="-10.0"/>
      <point x="368.32" y="-10.0" type="curve" smooth="yes"/>
      <point x="474.21999999999997" y="-10.0"/>
      <point x="581.22" y="11.92"/>
      <point x="676.12" y="50.12" type="curve"/>
      <point x="668.86" y="82.7" type="line"/>
      <point x="567.5" y="43.32"/>
      <point x="467.68000000000006" y="23.4"/>
      <point x="374.90000000000003" y="23.4" type="curve" smooth="yes"/>
      <point x="203.51999999999998" y="23.4"/>
      <point x="100.88" y="104.46"/>
      <point x="100.88" y="227.24" type="curve" smooth="yes"/>
      <point x="100.88" y="403.34"/>
      <point x="240.96" y="509.11999999999995"/>
      <point x="451.64000000000004" y="509.11999999999995" type="curve" smooth="yes"/>
      <point x="592.38" y="509.11999999999995"/>
      <point x="677.54" y="466.36"/>
      <point x="677.54" y="388.3" type="curve" smooth="yes"/>
      <point x="677.54" y="304.40000000000003"/>
      <point x="556.38" y="268.18"/>
      <point x="340.62" y="268.0" type="curve" smooth="yes"/>
      <point x="254.48" y="267.82"/>
      <point x="165.6" y="274.1"/>
    </contour>
  </outline>
</glyph>
<glyph name="f" format="2">
  <advance width="477.03000000000003"/>
  <unicode hex="0066"/>
  <outline>
    <contour>
      <point x="-6.390000000000007" y="-220.0" type="curve" smooth="yes"/>
      <point x="83.39" y="-220.0"/>
      <point x="127.25" y="-155.02"/>
      <point x="155.62" y="24.57" type="curve" smooth="yes"/>
      <point x="221.82" y="450.59999999999997" type="line"/>
      <point x="510.19" y="450.59999999999997" type="line"/>
      <point x="515.53" y="484.0" type="line"/>
      <point x="227.07000000000002" y="484.0" type="line"/>
      <point x="250.45" y="639.48"/>
      <point x="318.48" y="714.0799999999999"/>
      <point x="448.55" y="714.0799999999999" type="curve" smooth="yes"/>
      <point x="528.7700000000001" y="714.0799999999999"/>
      <point x="578.85" y="700.53"/>
      <point x="647.8" y="679.7" type="curve"/>
      <point x="658.84" y="713.27" type="line"/>
      <point x="583.46" y="738.8199999999999"/>
      <point x="520.3" y="750.0"/>
      <point x="450.76" y="750.0" type="curve" smooth="yes"/>
      <point x="295.63000000000005" y="750.0"/>
      <point x="214.41" y="669.29"/>
      <point x="183.4" y="484.0" type="curve"/>
      <point x="59.01" y="477.65" type="line"/>
      <point x="54.85" y="450.59999999999997" type="line"/>
      <point x="178.06" y="450.59999999999997" type="line"/>
      <point x="110.58000000000001" y="17.249999999999996" type="line" smooth="yes"/>
      <point x="86.47" y="-134.14000000000001"/>
      <point x="56.73" y="-186.07999999999998"/>
      <point x="-14.770000000000003" y="-186.07999999999998" type="curve" smooth="yes"/>
      <point x="-29.500000000000007" y="-186.07999999999998"/>
      <point x="-44.410000000000004" y="-183.17000000000002"/>
      <point x="-62.599999999999994" y="-176.53" type="curve"/>
      <point x="-72.02" y="-208.47" type="line"/>
      <point x="-48.68" y="-216.54999999999998"/>
      <point x="-27.979999999999997" y="-220.0"/>
    </contour>
  </outline>
</glyph>
<glyph name="g" format="2">
  <advance width="796.46"/>
  <unicode hex="0067"/>
  <note>
16
</note>
  <anchor x="294.11999999999995" y="-219.1" name="bottom"/>
  <anchor x="443.03999999999996" y="531.8" name="top"/>
  <outline>
    <contour>
      <point x="22.94" y="-169.28" type="line"/>
      <point x="107.3" y="-200.28"/>
      <point x="211.28" y="-220.0"/>
      <point x="305.02000000000004" y="-220.0" type="curve" smooth="yes"/>
      <point x="502.78000000000003" y="-220.0"/>
      <point x="615.58" y="-121.20000000000002"/>
      <point x="644.9399999999999" y="65.96000000000001" type="curve" smooth="yes"/>
      <point x="713.58" y="498.97999999999996" type="line"/>
      <point x="654.22" y="525.08"/>
      <point x="565.88" y="541.8"/>
      <point x="479.9" y="541.8" type="curve" smooth="yes"/>
      <point x="209.08" y="541.8"/>
      <point x="51.660000000000004" y="410.54"/>
      <point x="51.660000000000004" y="208.88" type="curve" smooth="yes"/>
      <point x="51.660000000000004" y="75.62"/>
      <point x="155.29999999999998" y="-6.220000000000001"/>
      <point x="319.21999999999997" y="-6.220000000000001" type="curve" smooth="yes"/>
      <point x="403.97999999999996" y="-6.220000000000001"/>
      <point x="520.44" y="29.34"/>
      <point x="603.82" y="82.08" type="curve"/>
      <point x="601.64" y="67.53999999999999" type="line" smooth="yes"/>
      <point x="577.5400000000001" y="-99.9"/>
      <point x="474.58" y="-186.70000000000002"/>
      <point x="298.59999999999997" y="-186.70000000000002" type="curve" smooth="yes"/>
      <point x="212.34" y="-186.70000000000002"/>
      <point x="112.06" y="-166.52"/>
      <point x="36.62" y="-135.06" type="curve"/>
    </contour>
    <contour>
      <point x="666.84" y="474.28" type="curve"/>
      <point x="610.4399999999999" y="117.78000000000002" type="line"/>
      <point x="534.32" y="68.19999999999999"/>
      <point x="412.24" y="28.259999999999998"/>
      <point x="332.74" y="28.259999999999998" type="curve" smooth="yes"/>
      <point x="185.2" y="28.259999999999998"/>
      <point x="95.6" y="99.14"/>
      <point x="95.6" y="214.66" type="curve" smooth="yes"/>
      <point x="95.6" y="390.96"/>
      <point x="237.88000000000002" y="508.94"/>
      <point x="472.2" y="508.94" type="curve" smooth="yes"/>
      <point x="569.1600000000001" y="508.94"/>
      <point x="622.36" y="490.02"/>
    </contour>
  </outline>
</glyph>
<glyph name="h" format="2">
  <advance width="831.98"/>
  <unicode hex="0068"/>
  <note>
16
</note>
  <anchor x="392.54" y="0.0" name="bottom"/>
  <anchor x="435.44000000000005" y="372.34" name="center"/>
  <anchor x="491.46" y="740.0" name="top"/>
  <outline>
    <contour>
      <point x="687.1800000000001" y="81.6" type="curve" smooth="yes"/>
      <point x="687.1800000000001" y="131.34"/>
      <point x="725.9200000000001" y="308.5"/>
      <point x="725.9200000000001" y="382.43999999999994" type="curve" smooth="yes"/>
      <point x="725.9200000000001" y="482.0"/>
      <point x="665.1" y="541.8"/>
      <point x="536.9399999999999" y="541.8" type="curve" smooth="yes"/>
      <point x="407.34000000000003" y="541.8"/>
      <point x="306.02" y="494.85999999999996"/>
      <point x="186.89999999999998" y="439.94" type="curve"/>
      <point x="234.82" y="740.0" type="line"/>
      <point x="192.06" y="740.0" type="line"/>
      <point x="74.88" y="0.0" type="line"/>
      <point x="117.82" y="0.0" type="line"/>
      <point x="181.73999999999998" y="403.97999999999996" type="line"/>
      <point x="303.28" y="461.84"/>
      <point x="396.24" y="506.42"/>
      <point x="521.52" y="506.42" type="curve" smooth="yes"/>
      <point x="635.14" y="506.42"/>
      <point x="681.26" y="454.84"/>
      <point x="681.26" y="375.69999999999993" type="curve" smooth="yes"/>
      <point x="681.26" y="285.82"/>
      <point x="643.52" y="123.24"/>
      <point x="643.52" y="71.75999999999999" type="curve" smooth="yes"/>
      <point x="643.52" y="16.8"/>
      <point x="678.3800000000001" y="-10.0"/>
      <point x="729.14" y="-10.0" type="curve" smooth="yes"/>
      <point x="745.2" y="-10.0"/>
      <point x="769.6199999999999" y="-7.819999999999999"/>
      <point x="787.24" y="-0.9999999999999999" type="curve"/>
      <point x="783.6" y="32.660000000000004" type="line"/>
      <point x="771.32" y="28.02"/>
      <point x="754.04" y="25.2"/>
      <point x="738.94" y="25.2" type="curve" smooth="yes"/>
      <point x="708.5600000000001" y="25.2"/>
      <point x="687.1800000000001" y="44.300000000000004"/>
    </contour>
  </outline>
</glyph>
<glyph name="i" format="2">
  <advance width="279.15000000000003"/>
  <unicode hex="0069"/>
  <note>
Ajuster pts sur points
8
</note>
  <anchor x="95.15996000000001" y="0.0" name="bottom"/>
  <anchor x="117.08999999999999" y="0.0" name="ogonek"/>
  <anchor x="180.35004" y="531.8" name="top"/>
  <outline>
    <contour>
      <point x="74.15" y="0.0" type="line"/>
      <point x="117.08999999999999" y="0.0" type="line"/>
      <point x="201.27" y="531.8" type="line"/>
      <point x="158.51" y="531.8" type="line"/>
    </contour>
    <contour>
      <point x="209.01999999999998" y="717.2" type="curve" smooth="yes"/>
      <point x="185.76" y="717.2"/>
      <point x="175.63" y="713.51"/>
      <point x="174.72000000000003" y="682.11" type="curve" smooth="yes"/>
      <point x="174.72" y="670.52"/>
      <point x="184.23000000000002" y="666.46"/>
      <point x="198.40999999999997" y="666.46" type="curve" smooth="yes"/>
      <point x="223.70000000000002" y="666.46"/>
      <point x="232.62" y="668.8900000000001"/>
      <point x="234.44" y="702.55" type="curve" smooth="yes"/>
      <point x="234.44" y="713.1400000000001"/>
      <point x="227.66" y="717.2"/>
    </contour>
  </outline>
</glyph>
<glyph name="l" format="2">
  <advance width="352.03000000000003"/>
  <unicode hex="006C"/>
  <anchor x="207.34" y="0.0" name="bottom"/>
  <anchor x="160.25054" y="372.25" name="center"/>
  <anchor x="213.94" y="740.0" name="top"/>
  <anchor x="347.72" y="740.0" name="topright"/>
  <outline>
    <contour>
      <point x="192.06000000000003" y="740.0" type="line"/>
      <point x="101.23" y="168.47" type="line" smooth="yes"/>
      <point x="98.96" y="153.57999999999998"/>
      <point x="94.96" y="126.31"/>
      <point x="94.96" y="102.04" type="curve" smooth="yes"/>
      <point x="94.96" y="39.46"/>
      <point x="127.66" y="-10.0"/>
      <point x="210.70999999999998" y="-10.0" type="curve" smooth="yes"/>
      <point x="251.94000000000003" y="-10.0"/>
      <point x="287.44" y="-3.2800000000000002"/>
      <point x="318.76" y="4.98" type="curve"/>
      <point x="314.21000000000004" y="40.45" type="line"/>
      <point x="285.77" y="33.269999999999996"/>
      <point x="259.04" y="27.36"/>
      <point x="226.76000000000002" y="27.36" type="curve" smooth="yes"/>
      <point x="156.35" y="27.36"/>
      <point x="139.62" y="72.58"/>
      <point x="139.62" y="111.78" type="curve" smooth="yes"/>
      <point x="139.62" y="137.71"/>
      <point x="143.26000000000002" y="160.09"/>
      <point x="145.26" y="170.09" type="curve" smooth="yes"/>
      <point x="235.82" y="740.0" type="line"/>
    </contour>
  </outline>
</glyph>
<glyph name="m" format="2">
  <advance width="1255.2"/>
  <unicode hex="006D"/>
  <note>
24&gt;23 points
un point de trop dans la jointure avec 2e jambage
</note>
  <outline>
    <contour>
      <point x="1152.27" y="-10.0" type="curve" smooth="yes"/>
      <point x="1168.42" y="-10.0"/>
      <point x="1192.75" y="-7.819999999999999"/>
      <point x="1210.46" y="-0.9099999999999999" type="curve"/>
      <point x="1206.82" y="32.660000000000004" type="line"/>
      <point x="1194.4499999999998" y="28.02"/>
      <point x="1177.1699999999998" y="25.2"/>
      <point x="1162.07" y="25.2" type="curve" smooth="yes"/>
      <point x="1131.78" y="25.2"/>
      <point x="1111.31" y="43.3"/>
      <point x="1111.31" y="80.69" type="curve" smooth="yes"/>
      <point x="1111.31" y="130.43"/>
      <point x="1150.05" y="308.5"/>
      <point x="1150.05" y="382.35" type="curve" smooth="yes"/>
      <point x="1150.05" y="482.0"/>
      <point x="1087.78" y="541.8"/>
      <point x="959.71" y="541.8" type="curve" smooth="yes"/>
      <point x="842.78" y="541.8"/>
      <point x="749.37" y="491.87000000000006"/>
      <point x="651.27" y="435.87" type="curve"/>
      <point x="633.0" y="499.34000000000003"/>
      <point x="580.9" y="541.8"/>
      <point x="482.72" y="541.8" type="curve" smooth="yes"/>
      <point x="378.32000000000005" y="541.8"/>
      <point x="285.57" y="497.78000000000003"/>
      <point x="185.93" y="440.50000000000006" type="curve"/>
      <point x="198.66000000000003" y="531.8" type="line"/>
      <point x="158.42000000000002" y="531.8" type="line"/>
      <point x="75.05999999999999" y="0.0" type="line"/>
      <point x="117.91" y="0.0" type="line"/>
      <point x="182.74" y="405.7" type="line"/>
      <point x="289.82" y="467.65999999999997"/>
      <point x="374.61" y="506.42"/>
      <point x="464.59" y="506.42" type="curve" smooth="yes"/>
      <point x="585.2199999999999" y="506.42"/>
      <point x="617.23" y="440.1"/>
      <point x="617.23" y="363.88" type="curve" smooth="yes"/>
      <point x="617.23" y="348.43"/>
      <point x="613.0699999999999" y="317.28999999999996"/>
      <point x="566.77" y="0.0" type="curve"/>
      <point x="609.26" y="0.0" type="line"/>
      <point x="655.2900000000001" y="312.84999999999997"/>
      <point x="658.5500000000001" y="342.78000000000003"/>
      <point x="659.99" y="366.25" type="curve" smooth="yes"/>
      <point x="660.08" y="378.53000000000003"/>
      <point x="659.53" y="392.88"/>
      <point x="657.8000000000001" y="404.97999999999996" type="curve"/>
      <point x="755.1400000000001" y="462.93"/>
      <point x="841.6600000000001" y="506.15"/>
      <point x="945.47" y="506.15" type="curve" smooth="yes"/>
      <point x="1060.9999999999998" y="506.15"/>
      <point x="1104.3" y="453.48"/>
      <point x="1104.3" y="369.7" type="curve" smooth="yes"/>
      <point x="1104.3" y="284.55"/>
      <point x="1067.56" y="123.42"/>
      <point x="1067.56" y="71.75999999999999" type="curve" smooth="yes"/>
      <point x="1067.56" y="16.8"/>
      <point x="1101.6000000000001" y="-10.0"/>
    </contour>
  </outline>
</glyph>
<glyph name="n" format="2">
  <advance width="832.16"/>
  <unicode hex="006E"/>
  <note>
16
</note>
  <anchor x="393.27000000000004" y="0.0" name="bottom"/>
  <anchor x="443.98" y="531.8" name="top"/>
  <outline>
    <contour>
      <point x="158.42000000000002" y="531.8" type="line"/>
      <point x="75.05999999999999" y="0.0" type="line"/>
      <point x="117.82" y="0.0" type="line"/>
      <point x="181.83" y="403.97999999999996" type="line"/>
      <point x="308.02" y="464.21"/>
      <point x="396.15000000000003" y="506.42"/>
      <point x="521.6099999999999" y="506.42" type="curve" smooth="yes"/>
      <point x="634.14" y="506.42"/>
      <point x="680.4399999999999" y="454.11"/>
      <point x="680.4399999999999" y="370.15" type="curve" smooth="yes"/>
      <point x="680.4399999999999" y="284.55"/>
      <point x="643.6099999999999" y="124.32000000000001"/>
      <point x="643.6099999999999" y="71.75999999999999" type="curve" smooth="yes"/>
      <point x="643.6099999999999" y="16.8"/>
      <point x="678.56" y="-10.0"/>
      <point x="729.23" y="-10.0" type="curve" smooth="yes"/>
      <point x="745.38" y="-10.0"/>
      <point x="769.71" y="-7.819999999999999"/>
      <point x="787.4200000000001" y="-0.9099999999999999" type="curve"/>
      <point x="783.78" y="32.660000000000004" type="line"/>
      <point x="771.41" y="28.02"/>
      <point x="754.13" y="25.2"/>
      <point x="739.03" y="25.2" type="curve" smooth="yes"/>
      <point x="708.74" y="25.2"/>
      <point x="687.36" y="44.21"/>
      <point x="687.36" y="81.6" type="curve" smooth="yes"/>
      <point x="687.36" y="131.34"/>
      <point x="726.0999999999999" y="308.5"/>
      <point x="726.0999999999999" y="382.34999999999997" type="curve" smooth="yes"/>
      <point x="726.0999999999999" y="483.26"/>
      <point x="663.12" y="541.8"/>
      <point x="536.6700000000001" y="541.8" type="curve" smooth="yes"/>
      <point x="406.16999999999996" y="541.8"/>
      <point x="308.98" y="498.4200000000001"/>
      <point x="184.65" y="437.77" type="curve"/>
      <point x="199.20000000000002" y="531.8" type="line"/>
    </contour>
  </outline>
</glyph>
<glyph name="o" format="2">
  <advance width="832.4399999999999"/>
  <unicode hex="006F"/>
  <note>
8
</note>
  <anchor x="398.2" y="0.0" name="bottom"/>
  <anchor x="416.72" y="275.0" name="center"/>
  <anchor x="488.6" y="1.1102230246251565e-16" name="ogonek"/>
  <anchor x="438.62" y="531.8" name="top"/>
  <anchor x="566.9399999999999" y="530.9" name="topright"/>
  <outline>
    <contour>
      <point x="405.62" y="-10.0" type="curve" smooth="yes"/>
      <point x="643.06" y="-10.0"/>
      <point x="768.86" y="96.53999999999998"/>
      <point x="768.5" y="296.1" type="curve" smooth="yes"/>
      <point x="768.14" y="457.46000000000004"/>
      <point x="649.9799999999999" y="542.16"/>
      <point x="424.0" y="542.16" type="curve" smooth="yes"/>
      <point x="186.55999999999997" y="542.16"/>
      <point x="60.76" y="435.62"/>
      <point x="61.120000000000005" y="236.06" type="curve" smooth="yes"/>
      <point x="61.480000000000004" y="74.7"/>
      <point x="179.64" y="-10.0"/>
    </contour>
    <contour>
      <point x="405.8" y="22.68" type="curve" smooth="yes"/>
      <point x="208.57999999999998" y="22.68"/>
      <point x="104.06" y="95.72"/>
      <point x="104.06" y="238.4" type="curve" smooth="yes"/>
      <point x="104.06" y="416.34000000000003"/>
      <point x="211.68" y="509.47999999999996"/>
      <point x="423.82000000000005" y="509.47999999999996" type="curve" smooth="yes"/>
      <point x="621.0400000000001" y="509.47999999999996"/>
      <point x="725.5600000000001" y="436.61999999999995"/>
      <point x="725.5600000000001" y="293.94" type="curve" smooth="yes"/>
      <point x="725.5600000000001" y="115.99999999999999"/>
      <point x="617.9399999999999" y="22.68"/>
    </contour>
  </outline>
</glyph>
<glyph name="p" format="2">
  <advance width="796.4599999999999"/>
  <unicode hex="0070"/>
  <note>
14 point
</note>
  <outline>
    <contour>
      <point x="42.06" y="-210.0" type="line"/>
      <point x="84.72999999999999" y="-210.0" type="line"/>
      <point x="120.64" y="14.65" type="line"/>
      <point x="172.57" y="3.1899999999999995"/>
      <point x="239.67999999999998" y="-10.0"/>
      <point x="322.98999999999995" y="-10.0" type="curve" smooth="yes"/>
      <point x="571.94" y="-10.0"/>
      <point x="742.25" y="120.38"/>
      <point x="742.25" y="324.35" type="curve" smooth="yes"/>
      <point x="742.25" y="462.36"/>
      <point x="656.6899999999999" y="541.8"/>
      <point x="509.06" y="541.8" type="curve" smooth="yes"/>
      <point x="384.95000000000005" y="541.8"/>
      <point x="287.75" y="490.59000000000003"/>
      <point x="181.47" y="419.47999999999996" type="curve"/>
      <point x="198.93" y="531.8" type="line"/>
      <point x="158.42" y="531.8" type="line"/>
    </contour>
    <contour>
      <point x="324.71" y="22.95" type="curve" smooth="yes"/>
      <point x="240.3" y="22.95"/>
      <point x="174.17999999999998" y="38.959999999999994"/>
      <point x="125.89000000000001" y="49.78" type="curve"/>
      <point x="178.01" y="381.59999999999997" type="line"/>
      <point x="291.81" y="463.76"/>
      <point x="389.31" y="506.06"/>
      <point x="489.82" y="506.06" type="curve" smooth="yes"/>
      <point x="623.27" y="506.06"/>
      <point x="699.22" y="439.65"/>
      <point x="699.22" y="315.49" type="curve" smooth="yes"/>
      <point x="699.22" y="138.48000000000002"/>
      <point x="540.3100000000001" y="22.95"/>
    </contour>
  </outline>
</glyph>
<glyph name="q" format="2">
  <advance width="796.5500000000001"/>
  <unicode hex="0071"/>
  <note>
12
</note>
  <outline>
    <contour>
      <point x="715.58" y="509.81000000000006" type="line"/>
      <point x="643.97" y="526.53"/>
      <point x="558.5" y="541.8"/>
      <point x="463.46000000000004" y="541.8" type="curve" smooth="yes"/>
      <point x="208.41" y="541.8"/>
      <point x="51.57" y="415.15"/>
      <point x="51.57" y="206.16" type="curve" smooth="yes"/>
      <point x="51.57" y="84.17999999999999"/>
      <point x="145.85000000000002" y="-10.0"/>
      <point x="299.19000000000005" y="-10.0" type="curve" smooth="yes"/>
      <point x="408.59000000000003" y="-10.0"/>
      <point x="505.81" y="27.47"/>
      <point x="608.83" y="102.86" type="curve"/>
      <point x="558.55" y="-210.0" type="line"/>
      <point x="601.31" y="-210.0" type="line"/>
    </contour>
    <contour>
      <point x="668.6600000000001" y="481.48" type="curve"/>
      <point x="613.72" y="136.65" type="line"/>
      <point x="498.46000000000004" y="54.4"/>
      <point x="408.51000000000005" y="24.93"/>
      <point x="311.0" y="24.93" type="curve" smooth="yes"/>
      <point x="184.65" y="24.93"/>
      <point x="95.33000000000001" y="96.52000000000001"/>
      <point x="95.33000000000001" y="214.31" type="curve" smooth="yes"/>
      <point x="95.33000000000001" y="394.6"/>
      <point x="238.87" y="508.04"/>
      <point x="460.73" y="508.04" type="curve" smooth="yes"/>
      <point x="544.6899999999999" y="508.04"/>
      <point x="619.64" y="492.29999999999995"/>
    </contour>
  </outline>
</glyph>
<glyph name="r" format="2">
  <advance width="581.8699999999999"/>
  <unicode hex="0072"/>
  <anchor x="95.4" y="0.0" name="bottom"/>
  <anchor x="367.45000000000005" y="531.8" name="top"/>
  <outline>
    <contour>
      <point x="197.57" y="531.8" type="line"/>
      <point x="158.6" y="531.8" type="line"/>
      <point x="74.97" y="0.0" type="line"/>
      <point x="117.0" y="0.0" type="line"/>
      <point x="176.10000000000002" y="372.52" type="line"/>
      <point x="289.43" y="468.23"/>
      <point x="386.76" y="504.26"/>
      <point x="471.08000000000004" y="504.26" type="curve" smooth="yes"/>
      <point x="509.71999999999997" y="504.26"/>
      <point x="555.19" y="497.34999999999997"/>
      <point x="588.8199999999999" y="487.44" type="curve"/>
      <point x="600.9399999999999" y="524.25" type="line"/>
      <point x="574.4" y="533.16"/>
      <point x="527.75" y="541.8"/>
      <point x="477.73" y="541.8" type="curve" smooth="yes"/>
      <point x="388.08" y="541.8"/>
      <point x="299.95" y="507.70000000000005"/>
      <point x="179.11" y="413.13000000000005" type="curve"/>
    </contour>
  </outline>
</glyph>
<glyph name="s" format="2">
  <advance width="710.78"/>
  <unicode hex="0073"/>
  <anchor x="327.18" y="0.0" name="bottom"/>
  <anchor x="398.66" y="531.8" name="top"/>
  <outline>
    <contour>
      <point x="12.94" y="40.919999999999995" type="line"/>
      <point x="87.28" y="15.1"/>
      <point x="195.84" y="-10.0"/>
      <point x="322.21999999999997" y="-10.0" type="curve" smooth="yes"/>
      <point x="520.0" y="-10.0"/>
      <point x="636.28" y="43.58"/>
      <point x="636.28" y="144.94" type="curve" smooth="yes"/>
      <point x="636.28" y="344.86"/>
      <point x="134.28" y="233.62"/>
      <point x="134.28" y="395.2" type="curve" smooth="yes"/>
      <point x="134.28" y="463.08"/>
      <point x="221.44" y="509.29999999999995"/>
      <point x="392.58000000000004" y="509.29999999999995" type="curve" smooth="yes"/>
      <point x="484.52" y="509.29999999999995"/>
      <point x="567.5" y="494.65999999999997"/>
      <point x="634.9599999999999" y="472.84000000000003" type="curve"/>
      <point x="646.1" y="505.15999999999997" type="line"/>
      <point x="579.38" y="526.98"/>
      <point x="484.08" y="541.8"/>
      <point x="400.92" y="541.8" type="curve" smooth="yes"/>
      <point x="199.54000000000002" y="541.8"/>
      <point x="92.96000000000001" y="485.88000000000005"/>
      <point x="92.96000000000001" y="388.86" type="curve" smooth="yes"/>
      <point x="92.96000000000001" y="197.34000000000003"/>
      <point x="594.96" y="305.64"/>
      <point x="594.96" y="139.34" type="curve" smooth="yes"/>
      <point x="594.96" y="69.56"/>
      <point x="499.08" y="22.680000000000003"/>
      <point x="331.3" y="22.680000000000003" type="curve" smooth="yes"/>
      <point x="206.52" y="22.680000000000003"/>
      <point x="94.44" y="48.14"/>
      <point x="26.08" y="74.78" type="curve"/>
    </contour>
  </outline>
</glyph>
<glyph name="t" format="2">
  <advance width="560.14"/>
  <unicode hex="0074"/>
  <anchor x="297.74" y="0.0" name="bottom"/>
  <anchor x="275.34000000000003" y="275.0" name="center"/>
  <anchor x="240.19" y="665.0" name="top"/>
  <anchor x="500.53000000000003" y="794.55" name="topright"/>
  <outline>
    <contour>
      <point x="495.77000000000004" y="64.57" type="line"/>
      <point x="434.21999999999997" y="42.74"/>
      <point x="368.64" y="26.639999999999997"/>
      <point x="306.06" y="26.639999999999997" type="curve" smooth="yes"/>
      <point x="208.54" y="26.639999999999997"/>
      <point x="177.07" y="72.13"/>
      <point x="177.07" y="138.07999999999998" type="curve" smooth="yes"/>
      <point x="177.07" y="152.18"/>
      <point x="177.98000000000002" y="167.19"/>
      <point x="180.79999999999998" y="182.29" type="curve" smooth="yes"/>
      <point x="230.82999999999998" y="500.21999999999997" type="line"/>
      <point x="549.07" y="500.21999999999997" type="line"/>
      <point x="554.59" y="531.8" type="line"/>
      <point x="236.07999999999998" y="531.8" type="line"/>
      <point x="257.81" y="665.0" type="line"/>
      <point x="225.21" y="665.0" type="line"/>
      <point x="193.68" y="531.8" type="line"/>
      <point x="37.45" y="524.54" type="line"/>
      <point x="32.2" y="500.22" type="line"/>
      <point x="187.89000000000001" y="500.22" type="line"/>
      <point x="137.95" y="181.48" type="line" smooth="yes"/>
      <point x="134.76999999999998" y="162.39999999999998"/>
      <point x="132.77" y="140.04000000000002"/>
      <point x="132.77" y="127.87" type="curve" smooth="yes"/>
      <point x="132.77" y="28.36"/>
      <point x="192.84" y="-10.0"/>
      <point x="287.90000000000003" y="-10.0" type="curve" smooth="yes"/>
      <point x="344.78000000000003" y="-10.0"/>
      <point x="420.88" y="1.1800000000000002"/>
      <point x="500.6" y="30.189999999999998" type="curve"/>
    </contour>
  </outline>
</glyph>
<glyph name="u" format="2">
  <advance width="808.8599999999999"/>
  <unicode hex="0075"/>
  <note>
15
</note>
  <anchor x="351.33" y="0.0" name="bottom"/>
  <anchor x="749.84" y="2.34" name="ogonek"/>
  <anchor x="429.24" y="531.8" name="top"/>
  <anchor x="718.98" y="531.8" name="topright"/>
  <outline>
    <contour>
      <point x="278.75" y="-10.0" type="curve" smooth="yes"/>
      <point x="400.07" y="-10.0"/>
      <point x="494.16" y="25.279999999999998"/>
      <point x="613.02" y="87.11" type="curve"/>
      <point x="615.27" y="17.810000000000002"/>
      <point x="644.97" y="-10.0"/>
      <point x="697.13" y="-10.0" type="curve" smooth="yes"/>
      <point x="709.45" y="-10.0"/>
      <point x="733.0500000000001" y="-5.83"/>
      <point x="749.84" y="3.33" type="curve"/>
      <point x="746.93" y="32.660000000000004" type="line"/>
      <point x="733.02" y="27.75"/>
      <point x="717.01" y="25.02"/>
      <point x="710.37" y="25.02" type="curve" smooth="yes"/>
      <point x="674.8900000000001" y="25.02"/>
      <point x="654.88" y="42.85"/>
      <point x="654.88" y="97.16" type="curve" smooth="yes"/>
      <point x="654.88" y="110.25999999999999"/>
      <point x="655.88" y="138.28"/>
      <point x="718.98" y="531.8" type="curve"/>
      <point x="675.1299999999999" y="531.8" type="line"/>
      <point x="613.12" y="117.54" type="line"/>
      <point x="497.03" y="59.13"/>
      <point x="410.90000000000003" y="25.2"/>
      <point x="294.36" y="25.2" type="curve" smooth="yes"/>
      <point x="192.84" y="25.2"/>
      <point x="143.63" y="72.69"/>
      <point x="143.63" y="148.91" type="curve" smooth="yes"/>
      <point x="143.63" y="164.17"/>
      <point x="145.07999999999998" y="191.54000000000002"/>
      <point x="199.27" y="531.8" type="curve"/>
      <point x="156.33" y="531.8" type="line"/>
      <point x="100.88" y="171.44"/>
      <point x="99.88" y="153.16000000000003"/>
      <point x="99.88" y="140.26" type="curve" smooth="yes"/>
      <point x="99.88" y="50.0"/>
      <point x="157.77" y="-10.0"/>
    </contour>
  </outline>
</glyph>
<glyph name="v" format="2">
  <advance width="673.99"/>
  <unicode hex="0076"/>
  <outline>
    <contour>
      <point x="313.86" y="-1.1102230246251565e-16" type="line"/>
      <point x="627.81" y="403.87"/>
      <point x="684.2800000000001" y="437.27"/>
      <point x="691.25" y="531.8" type="curve"/>
      <point x="647.69" y="531.8" type="line"/>
      <point x="640.24" y="442.45"/>
      <point x="584.61" y="412.2"/>
      <point x="298.4" y="35.92" type="curve"/>
      <point x="82.85" y="540.9" type="line"/>
      <point x="40.29" y="534.53" type="line"/>
      <point x="269.4" y="-1.1102230246251565e-16" type="line"/>
    </contour>
  </outline>
</glyph>
<glyph name="w" format="2">
  <advance width="1003.0799999999999"/>
  <unicode hex="0077"/>
  <note>
15
</note>
  <anchor x="475.12" y="0.0" name="bottom"/>
  <anchor x="525.18" y="531.8" name="top"/>
  <outline>
    <contour>
      <point x="729.82" y="0.0" type="line"/>
      <point x="973.3399999999999" y="384.4"/>
      <point x="1019.36" y="475.18"/>
      <point x="1019.36" y="531.8" type="curve"/>
      <point x="980.66" y="531.8" type="line"/>
      <point x="980.3" y="484.96"/>
      <point x="950.76" y="421.02"/>
      <point x="711.8399999999999" y="34.22" type="curve"/>
      <point x="552.94" y="531.8000000000001" type="line"/>
      <point x="507.66" y="531.8000000000001" type="line"/>
      <point x="423.8" y="363.16"/>
      <point x="339.3" y="201.08"/>
      <point x="254.35999999999999" y="36.22" type="curve"/>
      <point x="82.7" y="540.9" type="line"/>
      <point x="43.46" y="534.62" type="line"/>
      <point x="226.54000000000002" y="0.0" type="line"/>
      <point x="273.61999999999995" y="0.0" type="line"/>
      <point x="357.66" y="160.89999999999998"/>
      <point x="443.32" y="326.84000000000003"/>
      <point x="525.1999999999999" y="485.94" type="curve"/>
      <point x="685.26" y="0.0" type="line"/>
    </contour>
  </outline>
</glyph>
<glyph name="x" format="2">
  <advance width="693.0"/>
  <unicode hex="0078"/>
  <outline>
    <contour>
      <point x="654.04" y="531.8" type="line"/>
      <point x="601.0999999999999" y="450.87999999999994"/>
      <point x="559.86" y="413.49999999999994"/>
      <point x="351.23999999999995" y="303.64000000000004" type="curve"/>
      <point x="123.84" y="542.98" type="line"/>
      <point x="82.66000000000001" y="529.9799999999999" type="line"/>
      <point x="312.08" y="289.08000000000004" type="line"/>
      <point x="83.14" y="160.51999999999998"/>
      <point x="29.059999999999995" y="88.8"/>
      <point x="-8.379999999999999" y="0.0" type="curve"/>
      <point x="36.54" y="0.0" type="line"/>
      <point x="71.63999999999999" y="66.82"/>
      <point x="90.9" y="127.28"/>
      <point x="335.44" y="262.66" type="curve"/>
      <point x="595.9" y="-8.92" type="line"/>
      <point x="634.9000000000001" y="3.1799999999999997" type="line"/>
      <point x="373.88" y="277.22" type="line"/>
      <point x="602.76" y="397.34"/>
      <point x="658.6199999999999" y="458.3"/>
      <point x="696.6" y="531.8" type="curve"/>
    </contour>
  </outline>
</glyph>
<glyph name="y" format="2">
  <advance width="686.9200000000001"/>
  <unicode hex="0079"/>
  <anchor x="414.16" y="-37.8" name="bottom"/>
  <anchor x="378.42" y="531.8" name="top"/>
  <outline>
    <contour>
      <point x="658.06" y="531.8" type="line"/>
      <point x="661.2800000000001" y="465.96"/>
      <point x="490.24" y="210.04"/>
      <point x="326.42" y="13.700000000000001" type="curve"/>
      <point x="82.4" y="540.9" type="line"/>
      <point x="40.56" y="534.62" type="line"/>
      <point x="293.62" y="-9.1" type="line"/>
      <point x="306.06" y="-9.1" type="line"/>
      <point x="233.85999999999999" y="-92.84"/>
      <point x="163.22" y="-164.66000000000003"/>
      <point x="109.24" y="-206.36" type="curve"/>
      <point x="148.78" y="-220.1" type="line"/>
      <point x="337.40000000000003" y="-76.18"/>
      <point x="716.96" y="442.55999999999995"/>
      <point x="700.18" y="531.8" type="curve"/>
    </contour>
  </outline>
</glyph>
<glyph name="z" format="2">
  <advance width="733.4"/>
  <unicode hex="007A"/>
  <anchor x="340.71000000000004" y="0.0" name="bottom"/>
  <anchor x="362.86999999999995" y="275.0" name="center"/>
  <anchor x="395.04" y="531.8" name="top"/>
  <outline>
    <contour>
      <point x="26.200000000000003" y="0.0" type="line"/>
      <point x="654.04" y="0.0" type="line"/>
      <point x="659.4699999999999" y="33.58" type="line"/>
      <point x="97.21" y="33.58" type="line"/>
      <point x="699.4999999999999" y="500.93" type="line"/>
      <point x="704.57" y="531.8" type="line"/>
      <point x="116.27" y="531.8" type="line"/>
      <point x="110.75" y="498.22" type="line"/>
      <point x="634.37" y="498.22" type="line"/>
      <point x="30.18" y="30.330000000000002" type="line"/>
    </contour>
  </outline>
</glyph>
<glyph name="braceleft" format="2">
  <advance width="463.6"/>
  <unicode hex="007B"/>
  <outline>
    <contour>
      <point x="130.26" y="-97.03" type="curve" smooth="yes"/>
      <point x="130.26" y="-160.08"/>
      <point x="167.12" y="-210.0"/>
      <point x="279.48999999999995" y="-210.0" type="curve" smooth="yes"/>
      <point x="347.78000000000003" y="-210.0" type="line"/>
      <point x="352.76" y="-177.57999999999998" type="line"/>
      <point x="291.21999999999997" y="-177.57999999999998" type="line" smooth="yes"/>
      <point x="198.25000000000003" y="-177.57999999999998"/>
      <point x="170.51000000000002" y="-136.36999999999998"/>
      <point x="170.51000000000002" y="-88.62" type="curve" smooth="yes"/>
      <point x="170.51000000000002" y="-0.14000000000000012"/>
      <point x="241.79" y="80.35"/>
      <point x="241.79" y="188.01999999999998" type="curve" smooth="yes"/>
      <point x="241.79" y="222.20000000000002"/>
      <point x="226.7" y="250.56000000000003"/>
      <point x="192.99999999999997" y="264.09" type="curve"/>
      <point x="257.81" y="276.15999999999997"/>
      <point x="278.96999999999997" y="346.19"/>
      <point x="278.96999999999997" y="434.39000000000004" type="curve" smooth="yes"/>
      <point x="278.96999999999997" y="475.21000000000004"/>
      <point x="273.62000000000006" y="513.2300000000001"/>
      <point x="273.62000000000006" y="546.3000000000001" type="curve" smooth="yes"/>
      <point x="273.62000000000006" y="612.5999999999999"/>
      <point x="292.34" y="707.58"/>
      <point x="432.26" y="707.58" type="curve" smooth="yes"/>
      <point x="493.8" y="707.58" type="line"/>
      <point x="498.78000000000003" y="740.0" type="line"/>
      <point x="430.49" y="740.0" type="line" smooth="yes"/>
      <point x="267.38" y="740.0"/>
      <point x="233.45" y="632.06"/>
      <point x="233.45" y="546.57" type="curve" smooth="yes"/>
      <point x="233.45" y="515.3199999999999"/>
      <point x="238.70999999999998" y="470.31"/>
      <point x="238.70999999999998" y="425.66" type="curve" smooth="yes"/>
      <point x="238.70999999999998" y="341.97999999999996"/>
      <point x="219.35" y="280.21000000000004"/>
      <point x="149.86" y="280.21000000000004" type="curve" smooth="yes"/>
      <point x="132.04" y="280.21000000000004" type="line"/>
      <point x="127.06000000000002" y="248.88000000000002" type="line"/>
      <point x="145.79" y="248.88000000000002" type="line" smooth="yes"/>
      <point x="185.98000000000002" y="248.88000000000002"/>
      <point x="203.35000000000002" y="221.5"/>
      <point x="203.35000000000002" y="188.58" type="curve" smooth="yes"/>
      <point x="203.35000000000002" y="77.34"/>
      <point x="130.26" y="0.8799999999999994"/>
    </contour>
  </outline>
</glyph>
<glyph name="bar" format="2">
  <advance width="305.78000000000003"/>
  <unicode hex="007C"/>
  <outline>
    <contour>
      <point x="252.70999999999998" y="790.0" type="line"/>
      <point x="217.34" y="790.0" type="line"/>
      <point x="58.07" y="-210.0" type="line"/>
      <point x="93.35" y="-210.0" type="line"/>
    </contour>
  </outline>
</glyph>
<glyph name="braceright" format="2">
  <advance width="463.6"/>
  <unicode hex="007D"/>
  <outline>
    <contour>
      <point x="329.43" y="627.0300000000001" type="curve" smooth="yes"/>
      <point x="329.43" y="690.0799999999999"/>
      <point x="292.57" y="740.0"/>
      <point x="180.20000000000002" y="740.0" type="curve" smooth="yes"/>
      <point x="111.91000000000001" y="740.0" type="line"/>
      <point x="106.92999999999999" y="707.58" type="line"/>
      <point x="168.47000000000003" y="707.58" type="line" smooth="yes"/>
      <point x="261.44" y="707.58"/>
      <point x="289.18" y="666.37"/>
      <point x="289.18" y="618.62" type="curve" smooth="yes"/>
      <point x="289.18" y="530.14"/>
      <point x="217.89999999999998" y="449.65"/>
      <point x="217.89999999999998" y="341.97999999999996" type="curve" smooth="yes"/>
      <point x="217.89999999999998" y="307.8"/>
      <point x="232.99" y="279.44"/>
      <point x="266.69" y="265.90999999999997" type="curve"/>
      <point x="201.88000000000002" y="253.84"/>
      <point x="180.72" y="183.81"/>
      <point x="180.72" y="95.61" type="curve" smooth="yes"/>
      <point x="180.72" y="54.79"/>
      <point x="186.07" y="16.77"/>
      <point x="186.07" y="-16.3" type="curve" smooth="yes"/>
      <point x="186.07" y="-82.6"/>
      <point x="167.35" y="-177.57999999999998"/>
      <point x="27.43" y="-177.57999999999998" type="curve" smooth="yes"/>
      <point x="-34.11000000000001" y="-177.57999999999998" type="line"/>
      <point x="-39.089999999999996" y="-210.0" type="line"/>
      <point x="29.2" y="-210.0" type="line" smooth="yes"/>
      <point x="192.31" y="-210.0"/>
      <point x="226.24" y="-102.06"/>
      <point x="226.24" y="-16.57" type="curve" smooth="yes"/>
      <point x="226.24" y="14.679999999999996"/>
      <point x="220.98" y="59.69"/>
      <point x="220.98" y="104.34" type="curve" smooth="yes"/>
      <point x="220.98" y="188.01999999999998"/>
      <point x="240.34000000000003" y="249.79"/>
      <point x="309.83" y="249.79" type="curve" smooth="yes"/>
      <point x="327.65" y="249.79" type="line"/>
      <point x="332.63" y="281.12" type="line"/>
      <point x="313.90000000000003" y="281.12" type="line" smooth="yes"/>
      <point x="273.71" y="281.12"/>
      <point x="256.34" y="308.5"/>
      <point x="256.34" y="341.42" type="curve" smooth="yes"/>
      <point x="256.34" y="452.65999999999997"/>
      <point x="329.43" y="529.1199999999999"/>
    </contour>
  </outline>
</glyph>
<glyph name="asciitilde" format="2">
  <advance width="535.7900000000001"/>
  <unicode hex="007E"/>
  <outline>
    <contour>
      <point x="460.41999999999996" y="266.04999999999995" type="curve"/>
      <point x="466.76" y="306.43" type="line"/>
      <point x="439.86" y="285.62"/>
      <point x="409.33" y="260.06"/>
      <point x="369.71000000000004" y="260.06" type="curve" smooth="yes"/>
      <point x="289.06" y="260.06"/>
      <point x="255.48999999999998" y="360.26"/>
      <point x="173.14000000000001" y="360.26" type="curve" smooth="yes"/>
      <point x="139.08999999999997" y="360.26"/>
      <point x="104.64" y="337.63"/>
      <point x="80.72" y="319.71" type="curve"/>
      <point x="73.92999999999999" y="278.42" type="line"/>
      <point x="98.64" y="295.96"/>
      <point x="129.1" y="323.15999999999997"/>
      <point x="169.08" y="323.15999999999997" type="curve" smooth="yes"/>
      <point x="248.83999999999997" y="323.15999999999997"/>
      <point x="280.96" y="222.96"/>
      <point x="367.27" y="222.96" type="curve" smooth="yes"/>
      <point x="406.18" y="222.96"/>
      <point x="435.97" y="245.6"/>
    </contour>
  </outline>
</glyph>
<glyph name="cent" format="2">
  <advance width="1035.44"/>
  <unicode hex="00A2"/>
  <outline>
    <contour>
      <point x="477.83" y="-104.91" type="line"/>
      <point x="511.04" y="-104.91" type="line"/>
      <point x="526.13" y="-9.0" type="line"/>
      <point x="654.81" y="-4.27"/>
      <point x="756.83" y="17.290000000000003"/>
      <point x="805.3399999999999" y="30.099999999999998" type="curve"/>
      <point x="800.7900000000001" y="63.589999999999996" type="line"/>
      <point x="744.1199999999999" y="50.14"/>
      <point x="622.4999999999999" y="24.57"/>
      <point x="527.73" y="24.57" type="curve" smooth="yes"/>
      <point x="344.92" y="24.57"/>
      <point x="246.6" y="95.80000000000001"/>
      <point x="246.6" y="235.53" type="curve" smooth="yes"/>
      <point x="246.6" y="395.78"/>
      <point x="376.64" y="506.78"/>
      <point x="610.53" y="506.78" type="curve" smooth="yes"/>
      <point x="716.39" y="506.78"/>
      <point x="796.34" y="488.04"/>
      <point x="858.8399999999999" y="469.68" type="curve"/>
      <point x="869.8799999999999" y="505.16" type="line"/>
      <point x="795.52" y="526.8"/>
      <point x="715.7700000000001" y="541.62"/>
      <point x="613.58" y="541.8000000000001" type="curve"/>
      <point x="628.76" y="636.8000000000001" type="line"/>
      <point x="595.55" y="636.8000000000001" type="line"/>
      <point x="580.1" y="539.18" type="line"/>
      <point x="332.03" y="528.3"/>
      <point x="203.12" y="404.65"/>
      <point x="203.12" y="232.85000000000002" type="curve" smooth="yes"/>
      <point x="203.12" y="65.34"/>
      <point x="323.17" y="-6.12"/>
      <point x="492.19" y="-8.190000000000001" type="curve"/>
    </contour>
  </outline>
</glyph>
<glyph name="sterling" format="2">
  <advance width="1035.44"/>
  <unicode hex="00A3"/>
  <outline>
    <contour>
      <point x="116.82000000000001" y="0.0" type="line"/>
      <point x="883.5799999999999" y="0.0" type="line"/>
      <point x="889.0999999999999" y="35.300000000000004" type="line"/>
      <point x="179.8" y="35.300000000000004" type="line"/>
      <point x="308.26" y="119.82000000000001"/>
      <point x="357.28" y="176.3"/>
      <point x="357.28" y="258.88" type="curve" smooth="yes"/>
      <point x="357.28" y="327.46000000000004"/>
      <point x="300.26" y="389.17999999999995"/>
      <point x="300.26" y="458.38" type="curve" smooth="yes"/>
      <point x="300.26" y="600.84"/>
      <point x="447.9" y="675.8"/>
      <point x="638.54" y="675.8" type="curve" smooth="yes"/>
      <point x="732.72" y="675.8"/>
      <point x="833.12" y="665.8"/>
      <point x="942.24" y="635.1600000000001" type="curve"/>
      <point x="953.64" y="667.64" type="line"/>
      <point x="843.7199999999999" y="701.28"/>
      <point x="725.3" y="710.0"/>
      <point x="639.9" y="710.0" type="curve" smooth="yes"/>
      <point x="430.94" y="710.0"/>
      <point x="258.76" y="629.5"/>
      <point x="258.76" y="458.88" type="curve" smooth="yes"/>
      <point x="258.76" y="383.52000000000004"/>
      <point x="316.32" y="327.62"/>
      <point x="316.32" y="257.24" type="curve" smooth="yes"/>
      <point x="316.32" y="169.48000000000002"/>
      <point x="236.46" y="110.18"/>
      <point x="121.8" y="32.42" type="curve"/>
    </contour>
    <contour>
      <point x="133.26000000000002" y="354.92" type="line"/>
      <point x="792.38" y="356.74" type="line"/>
      <point x="797.7199999999999" y="387.96" type="line"/>
      <point x="138.42" y="387.96" type="line"/>
    </contour>
  </outline>
</glyph>
<glyph name="currency" format="2">
  <advance width="430.85"/>
  <unicode hex="00A4"/>
  <outline>
    <contour>
      <point x="48.54" y="109.94000000000001" type="line"/>
      <point x="127.25999999999999" y="185.3" type="line"/>
      <point x="144.63" y="166.92"/>
      <point x="167.64000000000001" y="156.82"/>
      <point x="196.11" y="156.82" type="curve" smooth="yes"/>
      <point x="223.85000000000002" y="156.82"/>
      <point x="251.5" y="167.82999999999998"/>
      <point x="274.6" y="185.39000000000001" type="curve"/>
      <point x="331.14000000000004" y="109.94000000000001" type="line"/>
      <point x="355.13" y="133.12" type="line"/>
      <point x="300.66999999999996" y="207.13" type="line"/>
      <point x="325.59" y="236.04"/>
      <point x="342.69" y="274.32"/>
      <point x="342.69" y="317.51" type="curve" smooth="yes"/>
      <point x="342.69" y="339.25"/>
      <point x="337.14" y="360.08"/>
      <point x="327.04" y="376.27" type="curve"/>
      <point x="405.04999999999995" y="450.28000000000003" type="line"/>
      <point x="388.21000000000004" y="473.46" type="line"/>
      <point x="308.4" y="398.01" type="line"/>
      <point x="291.76" y="416.48"/>
      <point x="266.84000000000003" y="427.49"/>
      <point x="239.01000000000002" y="427.49" type="curve" smooth="yes"/>
      <point x="210.54" y="427.49"/>
      <point x="183.89" y="416.47999999999996"/>
      <point x="160.97" y="398.1" type="curve"/>
      <point x="105.52000000000001" y="473.46" type="line"/>
      <point x="81.53" y="450.28000000000003" type="line"/>
      <point x="134.63" y="376.72" type="line"/>
      <point x="108.62" y="348.71999999999997"/>
      <point x="92.42999999999999" y="310.26"/>
      <point x="92.43" y="267.98" type="curve" smooth="yes"/>
      <point x="92.42999999999999" y="244.15"/>
      <point x="97.98" y="223.04999999999998"/>
      <point x="108.16999999999999" y="205.76999999999998" type="curve"/>
      <point x="31.52" y="133.12" type="line"/>
    </contour>
    <contour>
      <point x="201.54999999999998" y="186.72" type="curve" smooth="yes"/>
      <point x="154.60999999999999" y="186.72"/>
      <point x="122.68" y="224.10999999999999"/>
      <point x="122.67999999999999" y="274.69" type="curve" smooth="yes"/>
      <point x="122.67999999999999" y="341.37"/>
      <point x="177.99" y="397.59000000000003"/>
      <point x="234.39" y="397.59000000000003" type="curve" smooth="yes"/>
      <point x="281.42" y="397.59000000000003"/>
      <point x="313.35" y="360.93"/>
      <point x="313.35" y="311.35" type="curve" smooth="yes"/>
      <point x="313.34999999999997" y="244.4"/>
      <point x="259.59000000000003" y="186.72"/>
    </contour>
  </outline>
</glyph>
<glyph name="yen" format="2">
  <advance width="1035.44"/>
  <unicode hex="00A5"/>
  <outline>
    <contour>
      <point x="194.48" y="357.0" type="line"/>
      <point x="513.24" y="357.0" type="line"/>
      <point x="490.12" y="206.62" type="line"/>
      <point x="171.35999999999999" y="206.62" type="line"/>
      <point x="165.92000000000002" y="176.35999999999999" type="line"/>
      <point x="484.68" y="176.35999999999999" type="line"/>
      <point x="457.5" y="0.0" type="line"/>
      <point x="501.96" y="0.0" type="line"/>
      <point x="529.14" y="176.35999999999999" type="line"/>
      <point x="849.8000000000001" y="176.35999999999999" type="line"/>
      <point x="855.24" y="206.62" type="line"/>
      <point x="534.58" y="206.62" type="line"/>
      <point x="557.7" y="357.0" type="line"/>
      <point x="878.36" y="357.0" type="line"/>
      <point x="883.8" y="387.26" type="line"/>
      <point x="563.1400000000001" y="387.26" type="line"/>
      <point x="965.34" y="692.72" type="line"/>
      <point x="930.16" y="707.28" type="line"/>
      <point x="545.34" y="417.68" type="line"/>
      <point x="243.1" y="707.2800000000001" type="line"/>
      <point x="202.28" y="692.72" type="line"/>
      <point x="518.68" y="387.26" type="line"/>
      <point x="200.10000000000002" y="387.26" type="line"/>
    </contour>
  </outline>
</glyph>
<glyph name="brokenbar" format="2">
  <advance width="305.78"/>
  <unicode hex="00A6"/>
  <outline>
    <contour>
      <point x="188.62" y="391.0" type="line"/>
      <point x="252.71" y="790.0" type="line"/>
      <point x="217.34000000000003" y="790.0" type="line"/>
      <point x="153.25" y="391.0" type="line"/>
    </contour>
    <contour>
      <point x="122.16" y="190.0" type="line"/>
      <point x="58.07" y="-210.0" type="line"/>
      <point x="93.35" y="-210.0" type="line"/>
      <point x="157.44" y="190.0" type="line"/>
    </contour>
  </outline>
</glyph>
<glyph name="section" format="2">
  <advance width="655.85"/>
  <unicode hex="00A7"/>
  <outline>
    <contour>
      <point x="13.7" y="-97.83999999999999" type="curve"/>
      <point x="-6.509999999999999" y="-131.21" type="line"/>
      <point x="57.93" y="-188.89000000000001"/>
      <point x="124.10000000000001" y="-220.0"/>
      <point x="219.94" y="-220.0" type="curve" smooth="yes"/>
      <point x="391.66999999999996" y="-220.0"/>
      <point x="564.35" y="-132.96"/>
      <point x="564.35" y="85.82000000000001" type="curve" smooth="yes"/>
      <point x="564.35" y="269.92"/>
      <point x="404.23" y="424.83"/>
      <point x="404.23" y="581.11" type="curve" smooth="yes"/>
      <point x="404.23" y="651.6800000000001"/>
      <point x="442.69" y="705.9100000000001"/>
      <point x="530.84" y="705.9100000000001" type="curve" smooth="yes"/>
      <point x="575.6" y="705.9100000000001"/>
      <point x="607.8000000000001" y="692.9"/>
      <point x="638.27" y="682.4399999999999" type="curve"/>
      <point x="651.22" y="720.71" type="line"/>
      <point x="597.6800000000001" y="739.54"/>
      <point x="532.9499999999999" y="750.0"/>
      <point x="466.49" y="750.0" type="curve" smooth="yes"/>
      <point x="287.40000000000003" y="750.0"/>
      <point x="110.88000000000001" y="639.03"/>
      <point x="110.88000000000001" y="405.1" type="curve" smooth="yes"/>
      <point x="110.88000000000001" y="219.01999999999998"/>
      <point x="265.35" y="67.39"/>
      <point x="265.35" y="-49.63999999999999" type="curve" smooth="yes"/>
      <point x="265.35" y="-126.59999999999998"/>
      <point x="204.29999999999998" y="-168.35"/>
      <point x="148.28" y="-168.35" type="curve" smooth="yes"/>
      <point x="95.07000000000001" y="-168.35"/>
      <point x="48.419999999999995" y="-132.41000000000003"/>
    </contour>
    <contour>
      <point x="472.04999999999995" y="723.85" type="curve"/>
      <point x="400.69" y="704.3199999999999"/>
      <point x="368.77" y="645.4100000000001"/>
      <point x="368.77" y="575.95" type="curve" smooth="yes"/>
      <point x="368.77" y="417.53"/>
      <point x="527.63" y="245.31"/>
      <point x="527.63" y="76.97" type="curve" smooth="yes"/>
      <point x="527.63" y="-120.12"/>
      <point x="342.34" y="-213.49"/>
      <point x="177.84" y="-190.37" type="curve"/>
      <point x="251.64000000000001" y="-178.2"/>
      <point x="301.81000000000006" y="-117.21000000000001"/>
      <point x="301.81000000000006" y="-47.769999999999996" type="curve" smooth="yes"/>
      <point x="301.81000000000006" y="91.36"/>
      <point x="151.14" y="224.45000000000002"/>
      <point x="151.14" y="408.89000000000004" type="curve" smooth="yes"/>
      <point x="151.14" y="598.9"/>
      <point x="277.49999999999994" y="717.68"/>
    </contour>
  </outline>
</glyph>
<glyph name="copyright" format="2">
  <advance width="992.4599999999999"/>
  <unicode hex="00A9"/>
  <outline>
    <contour>
      <point x="478.68000000000006" y="-9.18" type="curve" smooth="yes"/>
      <point x="752.52" y="-9.54"/>
      <point x="933.44" y="122.33999999999997"/>
      <point x="933.44" y="395.56000000000006" type="curve" smooth="yes"/>
      <point x="933.44" y="624.06"/>
      <point x="739.46" y="708.82"/>
      <point x="529.0400000000001" y="709.1800000000001" type="curve" smooth="yes"/>
      <point x="259.28" y="709.54"/>
      <point x="83.02" y="576.4599999999999"/>
      <point x="83.02" y="303.62" type="curve" smooth="yes"/>
      <point x="83.02" y="74.66"/>
      <point x="274.64" y="-8.82"/>
    </contour>
    <contour>
      <point x="497.31999999999994" y="183.29999999999998" type="curve" smooth="yes"/>
      <point x="567.94" y="183.29999999999998"/>
      <point x="620.18" y="195.02"/>
      <point x="664.98" y="209.92" type="curve"/>
      <point x="659.7199999999999" y="238.18" type="line"/>
      <point x="613.92" y="225.0"/>
      <point x="568.12" y="214.17999999999998"/>
      <point x="500.81999999999994" y="214.17999999999998" type="curve" smooth="yes"/>
      <point x="402.24" y="214.17999999999998"/>
      <point x="332.09999999999997" y="261.40000000000003"/>
      <point x="332.09999999999997" y="327.06000000000006" type="curve" smooth="yes"/>
      <point x="332.09999999999997" y="431.68"/>
      <point x="416.79999999999995" y="487.99999999999994"/>
      <point x="542.22" y="487.99999999999994" type="curve" smooth="yes"/>
      <point x="593.94" y="487.99999999999994"/>
      <point x="641.4000000000001" y="480.35999999999996"/>
      <point x="691.1200000000001" y="466.08" type="curve"/>
      <point x="700.64" y="496.06" type="line"/>
      <point x="650.8199999999999" y="510.7"/>
      <point x="599.38" y="518.88"/>
      <point x="544.5799999999999" y="518.88" type="curve" smooth="yes"/>
      <point x="396.5199999999999" y="518.88"/>
      <point x="297.08" y="453.23999999999995"/>
      <point x="297.08" y="327.44" type="curve" smooth="yes"/>
      <point x="297.08" y="239.20000000000002"/>
      <point x="374.34" y="183.29999999999998"/>
    </contour>
    <contour>
      <point x="482.76000000000005" y="18.28" type="curve" smooth="yes"/>
      <point x="289.58000000000004" y="18.28"/>
      <point x="112.1" y="95.08"/>
      <point x="112.1" y="308.52" type="curve" smooth="yes"/>
      <point x="112.1" y="557.06"/>
      <point x="272.34" y="681.9"/>
      <point x="525.96" y="681.9" type="curve" smooth="yes"/>
      <point x="722.3399999999999" y="681.9"/>
      <point x="904.36" y="604.92"/>
      <point x="904.36" y="388.84" type="curve" smooth="yes"/>
      <point x="904.36" y="138.66000000000003"/>
      <point x="738.02" y="18.28"/>
    </contour>
  </outline>
</glyph>
<glyph name="ordfeminine" format="2">
  <advance width="540.76"/>
  <unicode hex="00AA"/>
  <outline>
    <contour>
      <point x="56.85" y="265.55" type="line"/>
      <point x="457.65" y="265.55" type="line"/>
      <point x="462.27" y="294.08" type="line"/>
      <point x="61.47" y="294.08" type="line"/>
    </contour>
    <component base="a.superior" xOffset="17.1"/>
  </outline>
</glyph>
<glyph name="logicalnot" format="2">
  <advance width="533.52"/>
  <unicode hex="00AC"/>
  <outline>
    <contour>
      <point x="78.29" y="374.73" type="line"/>
      <point x="451.6" y="374.73" type="line"/>
      <point x="420.68" y="174.75" type="line"/>
      <point x="454.43" y="174.75" type="line"/>
      <point x="491.14" y="409.56" type="line"/>
      <point x="84.08" y="409.56" type="line"/>
    </contour>
  </outline>
</glyph>
<glyph name="registered" format="2">
  <advance width="967.8000000000001"/>
  <unicode hex="00AE"/>
  <outline>
    <contour>
      <point x="514.02" y="211.64" type="curve" smooth="yes"/>
      <point x="784.32" y="211.64"/>
      <point x="938.96" y="346.62000000000006"/>
      <point x="938.96" y="579.36" type="curve" smooth="yes"/>
      <point x="938.96" y="782.0199999999999"/>
      <point x="801.7600000000001" y="890.3600000000001"/>
      <point x="540.78" y="890.3600000000001" type="curve" smooth="yes"/>
      <point x="270.47999999999996" y="890.3600000000001"/>
      <point x="116.02000000000001" y="755.38"/>
      <point x="116.02000000000001" y="522.64" type="curve" smooth="yes"/>
      <point x="116.02000000000001" y="320.15999999999997"/>
      <point x="252.86" y="211.64"/>
    </contour>
    <contour>
      <point x="515.4599999999999" y="238.1" type="curve" smooth="yes"/>
      <point x="269.62" y="238.1"/>
      <point x="143.84" y="336.56"/>
      <point x="143.84" y="522.8199999999999" type="curve" smooth="yes"/>
      <point x="143.84" y="742.5000000000001"/>
      <point x="286.06" y="864.08"/>
      <point x="539.52" y="864.08" type="curve" smooth="yes"/>
      <point x="785.36" y="864.08"/>
      <point x="911.14" y="765.44"/>
      <point x="911.14" y="579.18" type="curve" smooth="yes"/>
      <point x="911.14" y="359.50000000000006"/>
      <point x="768.74" y="238.1"/>
    </contour>
    <contour>
      <point x="341.76" y="400.18" type="line"/>
      <point x="370.90000000000003" y="400.18" type="line"/>
      <point x="392.99999999999994" y="533.5999999999999" type="line"/>
      <point x="441.6" y="532.7800000000001"/>
      <point x="475.98" y="531.78"/>
      <point x="542.78" y="532.78" type="curve"/>
      <point x="564.1800000000001" y="537.0999999999999" type="line"/>
      <point x="663.24" y="539.5600000000001"/>
      <point x="703.48" y="563.66"/>
      <point x="703.48" y="632.18" type="curve" smooth="yes"/>
      <point x="703.48" y="692.46"/>
      <point x="651.2" y="713.1800000000001"/>
      <point x="529.14" y="713.1800000000001" type="curve" smooth="yes"/>
      <point x="480.38" y="713.1800000000001"/>
      <point x="447.52000000000004" y="713.18"/>
      <point x="390.75999999999993" y="709.9999999999999" type="curve"/>
    </contour>
    <contour>
      <point x="518.64" y="557.62" type="curve" smooth="yes"/>
      <point x="478.78" y="557.62"/>
      <point x="446.2" y="558.62"/>
      <point x="397.08" y="559.4399999999999" type="curve"/>
      <point x="416.46" y="682.26" type="line"/>
      <point x="465.55999999999995" y="685.9"/>
      <point x="476.66" y="685.9"/>
      <point x="525.9599999999999" y="685.9" type="curve" smooth="yes"/>
      <point x="630.76" y="685.9"/>
      <point x="671.8000000000001" y="672.98"/>
      <point x="671.8000000000001" y="626.3000000000001" type="curve" smooth="yes"/>
      <point x="671.8000000000001" y="572.54"/>
      <point x="639.8599999999999" y="557.62"/>
    </contour>
    <contour>
      <point x="722.02" y="398.82" type="curve" smooth="yes"/>
      <point x="724.0199999999999" y="398.82"/>
      <point x="727.02" y="398.82"/>
      <point x="729.2" y="398.82000000000005" type="curve"/>
      <point x="733.0" y="428.62" type="line"/>
      <point x="731.64" y="428.62"/>
      <point x="729.64" y="428.62"/>
      <point x="728.4600000000002" y="428.62" type="curve" smooth="yes"/>
      <point x="689.8800000000001" y="428.62"/>
      <point x="621.58" y="477.93999999999994"/>
      <point x="568.2800000000001" y="543.28" type="curve"/>
      <point x="529.4399999999999" y="537.96" type="line"/>
      <point x="590.42" y="463.28"/>
      <point x="669.3399999999999" y="398.82"/>
    </contour>
  </outline>
</glyph>
<glyph name="degree" format="2">
  <advance width="267.06"/>
  <unicode hex="00B0"/>
  <outline>
    <contour>
      <point x="170.28" y="501.1" type="curve" smooth="yes"/>
      <point x="233.58" y="501.1"/>
      <point x="290.35999999999996" y="553.4200000000001"/>
      <point x="290.35999999999996" y="631.54" type="curve" smooth="yes"/>
      <point x="290.35999999999996" y="683.6"/>
      <point x="257.09999999999997" y="726.2"/>
      <point x="203.54" y="726.2" type="curve" smooth="yes"/>
      <point x="141.24" y="726.2"/>
      <point x="83.64" y="669.42"/>
      <point x="83.64" y="593.12" type="curve" smooth="yes"/>
      <point x="83.64" y="542.0600000000001"/>
      <point x="116.72" y="501.1"/>
    </contour>
    <contour>
      <point x="174.72" y="533.7" type="curve" smooth="yes"/>
      <point x="139.16" y="533.7"/>
      <point x="115.60000000000001" y="562.08"/>
      <point x="115.60000000000001" y="599.0999999999999" type="curve" smooth="yes"/>
      <point x="115.60000000000001" y="654.4"/>
      <point x="156.08" y="693.6"/>
      <point x="199.28" y="693.6" type="curve" smooth="yes"/>
      <point x="237.48" y="693.6"/>
      <point x="259.21999999999997" y="664.4"/>
      <point x="259.21999999999997" y="626.3800000000001" type="curve" smooth="yes"/>
      <point x="259.21999999999997" y="573.9"/>
      <point x="217.73999999999998" y="533.7"/>
    </contour>
  </outline>
</glyph>
<glyph name="plusminus" format="2">
  <advance width="533.6999999999999"/>
  <unicode hex="00B1"/>
  <outline>
    <contour>
      <point x="437.62" y="67.25" type="line"/>
      <point x="443.40999999999997" y="102.08" type="line"/>
      <point x="258.33" y="102.08" type="line"/>
      <point x="288.98" y="299.9" type="line"/>
      <point x="474.06" y="299.9" type="line"/>
      <point x="479.85" y="334.73" type="line"/>
      <point x="294.77" y="334.73" type="line"/>
      <point x="326.6" y="535.53" type="line"/>
      <point x="289.61" y="535.53" type="line"/>
      <point x="257.59999999999997" y="334.73" type="line"/>
      <point x="72.78999999999999" y="334.73" type="line"/>
      <point x="67.00000000000001" y="299.9" type="line"/>
      <point x="251.99" y="299.9" type="line"/>
      <point x="221.16" y="102.08" type="line"/>
      <point x="36.35" y="102.08" type="line"/>
      <point x="30.560000000000002" y="67.25" type="line"/>
    </contour>
  </outline>
</glyph>
<glyph name="uni00B2" format="2">
  <advance width="619.27"/>
  <unicode hex="00B2"/>
  <outline>
    <contour>
      <point x="99.58" y="370.0" type="line"/>
      <point x="551.2299999999999" y="370.0" type="line"/>
      <point x="553.12" y="394.90999999999997" type="line"/>
      <point x="169.84" y="394.90999999999997" type="line"/>
      <point x="345.74999999999994" y="484.7"/>
      <point x="508.93" y="538.7"/>
      <point x="508.93" y="665.02" type="curve" smooth="yes"/>
      <point x="508.93" y="735.54"/>
      <point x="452.99" y="770.27"/>
      <point x="361.99999999999994" y="770.27" type="curve" smooth="yes"/>
      <point x="301.65000000000003" y="770.27"/>
      <point x="230.32999999999998" y="752.82"/>
      <point x="180.16" y="731.92" type="curve"/>
      <point x="187.95" y="706.0999999999999" type="line"/>
      <point x="235.67000000000002" y="728.4599999999999"/>
      <point x="299.22999999999996" y="744.1"/>
      <point x="354.61" y="744.1" type="curve" smooth="yes"/>
      <point x="430.47" y="744.1"/>
      <point x="473.12" y="714.81"/>
      <point x="473.12" y="659.87" type="curve" smooth="yes"/>
      <point x="473.12" y="556.92"/>
      <point x="328.78000000000003" y="499.9"/>
      <point x="100.75" y="390.84000000000003" type="curve"/>
    </contour>
  </outline>
</glyph>
<glyph name="uni00B3" format="2">
  <advance width="565.5"/>
  <unicode hex="00B3"/>
  <outline>
    <contour>
      <point x="47.27" y="417.47999999999996" type="line"/>
      <point x="111.63" y="379.83000000000004"/>
      <point x="187.88000000000002" y="363.82"/>
      <point x="302.73" y="363.82" type="curve" smooth="yes"/>
      <point x="465.56" y="363.82"/>
      <point x="550.21" y="400.19"/>
      <point x="550.21" y="487.8" type="curve" smooth="yes"/>
      <point x="550.21" y="537.0"/>
      <point x="508.01" y="571.64"/>
      <point x="434.08" y="582.0" type="curve"/>
      <point x="498.0" y="595.6400000000001"/>
      <point x="540.0" y="630.37"/>
      <point x="540.0" y="674.9100000000001" type="curve" smooth="yes"/>
      <point x="540.0" y="735.27"/>
      <point x="468.48" y="770.27"/>
      <point x="337.07" y="770.27" type="curve" smooth="yes"/>
      <point x="282.46999999999997" y="770.27"/>
      <point x="199.4" y="760.09"/>
      <point x="138.38" y="746.1800000000001" type="curve"/>
      <point x="142.92999999999998" y="721.27" type="line"/>
      <point x="205.11" y="735.09"/>
      <point x="283.02" y="744.64"/>
      <point x="332.1" y="744.64" type="curve" smooth="yes"/>
      <point x="441.96" y="744.64"/>
      <point x="506.97999999999996" y="717.98"/>
      <point x="506.97999999999996" y="672.4000000000001" type="curve" smooth="yes"/>
      <point x="506.97999999999996" y="622.73"/>
      <point x="434.48" y="589.7"/>
      <point x="355.13" y="589.7" type="curve" smooth="yes"/>
      <point x="207.64000000000001" y="589.7" type="line"/>
      <point x="204.2" y="565.96" type="line"/>
      <point x="343.34000000000003" y="565.96" type="line" smooth="yes"/>
      <point x="459.96999999999997" y="565.96"/>
      <point x="516.46" y="537.85"/>
      <point x="516.46" y="484.16999999999996" type="curve" smooth="yes"/>
      <point x="516.46" y="418.3"/>
      <point x="444.79999999999995" y="388.82"/>
      <point x="301.19" y="388.82" type="curve" smooth="yes"/>
      <point x="193.61" y="388.82"/>
      <point x="121.8" y="405.37"/>
      <point x="61.419999999999995" y="440.94" type="curve"/>
    </contour>
  </outline>
</glyph>
<glyph name="uni00B5" format="2">
  <advance width="810.95"/>
  <unicode hex="00B5"/>
  <outline>
    <contour>
      <point x="42.97" y="-210.0" type="line"/>
      <point x="85.73" y="-210.0" type="line"/>
      <point x="131.47" y="83.91" type="line"/>
      <point x="147.84" y="25.580000000000002"/>
      <point x="198.88" y="-10.0"/>
      <point x="287.23" y="-10.0" type="curve" smooth="yes"/>
      <point x="406.57000000000005" y="-10.0"/>
      <point x="498.23" y="25.28"/>
      <point x="615.11" y="87.11" type="curve"/>
      <point x="617.36" y="17.810000000000002"/>
      <point x="647.0600000000001" y="-10.0"/>
      <point x="699.22" y="-10.0" type="curve" smooth="yes"/>
      <point x="711.54" y="-10.0"/>
      <point x="735.14" y="-5.83"/>
      <point x="751.9300000000001" y="3.33" type="curve"/>
      <point x="749.02" y="32.660000000000004" type="line"/>
      <point x="735.11" y="27.75"/>
      <point x="719.0999999999999" y="25.02"/>
      <point x="712.46" y="25.02" type="curve" smooth="yes"/>
      <point x="676.98" y="25.02"/>
      <point x="656.97" y="42.85"/>
      <point x="656.97" y="97.16" type="curve" smooth="yes"/>
      <point x="656.97" y="110.25999999999999"/>
      <point x="657.97" y="138.28"/>
      <point x="721.07" y="531.8" type="curve"/>
      <point x="677.22" y="531.8" type="line"/>
      <point x="615.2099999999999" y="117.54" type="line"/>
      <point x="499.12" y="59.13"/>
      <point x="412.99" y="25.2"/>
      <point x="296.45000000000005" y="25.2" type="curve" smooth="yes"/>
      <point x="194.93" y="25.2"/>
      <point x="145.72000000000003" y="72.69000000000001"/>
      <point x="145.72" y="148.91" type="curve" smooth="yes"/>
      <point x="145.72000000000003" y="164.17000000000002"/>
      <point x="147.17" y="191.54"/>
      <point x="201.36" y="531.8" type="curve"/>
      <point x="158.42000000000002" y="531.8" type="line"/>
    </contour>
  </outline>
</glyph>
<glyph name="paragraph" format="2">
  <advance width="737.16"/>
  <unicode hex="00B6"/>
  <outline>
    <contour>
      <point x="500.46" y="-210.0" type="line"/>
      <point x="535.4699999999999" y="-210.0" type="line"/>
      <point x="685.56" y="740.0" type="line"/>
      <point x="650.55" y="740.0" type="line"/>
    </contour>
    <contour>
      <point x="308.26" y="215.97" type="line"/>
      <point x="203.89999999999998" y="225.7"/>
      <point x="125.83" y="297.39"/>
      <point x="125.83" y="406.56" type="curve" smooth="yes"/>
      <point x="125.83" y="578.95"/>
      <point x="236.93" y="705.17"/>
      <point x="465.91" y="707.9" type="curve"/>
      <point x="321.52" y="-210.0" type="line"/>
      <point x="356.53000000000003" y="-210.0" type="line"/>
      <point x="506.62" y="740.0" type="line"/>
      <point x="482.84000000000003" y="740.0" type="line" smooth="yes"/>
      <point x="229.10999999999999" y="740.0"/>
      <point x="87.74" y="618.8"/>
      <point x="87.74" y="401.64" type="curve" smooth="yes"/>
      <point x="87.74" y="276.73"/>
      <point x="175.49" y="196.99"/>
      <point x="299.84" y="186.9" type="curve"/>
    </contour>
  </outline>
</glyph>
<glyph name="periodcentered" format="2">
  <advance width="230.3"/>
  <unicode hex="00B7"/>
  <outline>
    <contour>
      <point x="87.86" y="281.61999999999995" type="curve" smooth="yes"/>
      <point x="86.85999999999999" y="267.94"/>
      <point x="94.46000000000001" y="263.88"/>
      <point x="111.66" y="263.88" type="curve" smooth="yes"/>
      <point x="137.22" y="263.88"/>
      <point x="144.33999999999997" y="268.47999999999996"/>
      <point x="146.98" y="297.59999999999997" type="curve" smooth="yes"/>
      <point x="147.98" y="311.46"/>
      <point x="140.38" y="315.5199999999999"/>
      <point x="123.17999999999999" y="315.5199999999999" type="curve" smooth="yes"/>
      <point x="97.8" y="315.5199999999999"/>
      <point x="90.5" y="310.38"/>
    </contour>
  </outline>
</glyph>
<glyph name="uni00B9" format="2">
  <advance width="513.23"/>
  <unicode hex="00B9"/>
  <outline>
    <contour>
      <point x="42.42" y="370.0" type="line"/>
      <point x="513.5200000000001" y="370.0" type="line"/>
      <point x="517.14" y="394.91" type="line"/>
      <point x="320.88" y="394.91" type="line"/>
      <point x="381.26" y="767.6400000000001" type="line"/>
      <point x="361.54" y="767.6400000000001" type="line"/>
      <point x="82.80000000000001" y="652.0699999999999" type="line"/>
      <point x="86.60000000000001" y="625.9000000000001" type="line"/>
      <point x="342.28000000000003" y="730.5999999999999" type="line"/>
      <point x="286.15000000000003" y="394.91" type="line"/>
      <point x="45.129999999999995" y="394.91" type="line"/>
    </contour>
  </outline>
</glyph>
<glyph name="ordmasculine" format="2">
  <advance width="500.65"/>
  <unicode hex="00BA"/>
  <outline>
    <contour>
      <point x="46.11" y="265.55" type="line"/>
      <point x="445.2" y="265.55" type="line"/>
      <point x="449.82" y="294.08" type="line"/>
      <point x="50.730000000000004" y="294.08" type="line"/>
    </contour>
    <component base="o.superior" xOffset="8.000000000000002"/>
  </outline>
</glyph>
<glyph name="AE" format="2">
  <advance width="1424.46"/>
  <unicode hex="00C6"/>
  <anchor x="668.32408" y="0.0" name="bottom"/>
  <anchor x="770.7600000000001" y="700.0" name="top"/>
  <outline>
    <contour>
      <point x="613.8199999999999" y="0.0" type="line"/>
      <point x="1323.08" y="0.0" type="line"/>
      <point x="1329.3200000000002" y="38.08" type="line"/>
      <point x="663.54" y="38.08" type="line"/>
      <point x="711.22" y="339.08000000000004" type="line"/>
      <point x="1297.68" y="339.08000000000004" type="line"/>
      <point x="1303.74" y="376.44" type="line"/>
      <point x="717.1" y="376.44" type="line"/>
      <point x="762.4200000000001" y="661.92" type="line"/>
      <point x="1401.2" y="661.92" type="line"/>
      <point x="1407.44" y="700.0" type="line"/>
      <point x="702.1399999999999" y="700.0" type="line"/>
      <point x="-39.54" y="0.0" type="line"/>
      <point x="13.92" y="0.0" type="line"/>
      <point x="363.97999999999996" y="328.63999999999993" type="line"/>
      <point x="665.94" y="328.63999999999993" type="line"/>
    </contour>
    <contour>
      <point x="396.58" y="362.94" type="line"/>
      <point x="719.48" y="666.7800000000001" type="line"/>
      <point x="671.2800000000001" y="362.94" type="line"/>
    </contour>
  </outline>
</glyph>
<glyph name="multiply" format="2">
  <advance width="523.4399999999999"/>
  <unicode hex="00D7"/>
  <outline>
    <contour>
      <point x="61.190000000000005" y="76.10000000000001" type="line"/>
      <point x="261.96" y="265.44" type="line"/>
      <point x="399.33" y="80.12" type="line"/>
      <point x="424.03000000000003" y="107.16999999999999" type="line"/>
      <point x="288.91" y="289.88" type="line"/>
      <point x="489.88" y="477.96000000000004" type="line"/>
      <point x="469.97" y="504.93" type="line"/>
      <point x="267.29" y="315.40999999999997" type="line"/>
      <point x="125.28" y="506.01" type="line"/>
      <point x="100.85000000000001" y="479.77000000000004" type="line"/>
      <point x="240.70000000000002" y="291.06" type="line"/>
      <point x="41.19" y="102.61999999999999" type="line"/>
    </contour>
  </outline>
</glyph>
<glyph name="Oslash" format="2">
  <advance width="1137.14"/>
  <unicode hex="00D8"/>
  <anchor x="613.76" y="700.0" name="top"/>
  <outline>
    <contour>
      <point x="1160.6799999999998" y="710.0" type="line"/>
      <point x="1103.3799999999999" y="710.0" type="line"/>
      <point x="948.06" y="609.0799999999999" type="line"/>
      <point x="948.4200000000001" y="608.72" type="line"/>
      <point x="184.34" y="114.0" type="line"/>
      <point x="184.51999999999998" y="113.64" type="line"/>
      <point x="-3.4999999999999996" y="-9.1" type="line"/>
      <point x="53.62" y="-9.1" type="line"/>
      <point x="209.67999999999998" y="91.92" type="line"/>
      <point x="209.32" y="92.28000000000002" type="line"/>
      <point x="977.36" y="589.7" type="line"/>
      <point x="977.18" y="590.06" type="line"/>
    </contour>
    <contour>
      <point x="566.42" y="-10.0" type="curve" smooth="yes"/>
      <point x="886.86" y="-10.0"/>
      <point x="1070.5800000000002" y="137.56000000000003"/>
      <point x="1070.5800000000002" y="395.65999999999997" type="curve" smooth="yes"/>
      <point x="1070.5800000000002" y="601.5600000000001"/>
      <point x="917.12" y="710.18"/>
      <point x="590.5799999999999" y="710.18" type="curve" smooth="yes"/>
      <point x="270.14" y="710.18"/>
      <point x="86.42" y="562.62"/>
      <point x="86.42" y="304.52" type="curve" smooth="yes"/>
      <point x="86.42" y="98.61999999999999"/>
      <point x="239.88" y="-10.0"/>
    </contour>
    <contour>
      <point x="567.68" y="25.02" type="curve" smooth="yes"/>
      <point x="268.88" y="25.02"/>
      <point x="130.98" y="120.60000000000001"/>
      <point x="130.98" y="307.59999999999997" type="curve" smooth="yes"/>
      <point x="130.98" y="542.9"/>
      <point x="294.7" y="675.16"/>
      <point x="589.3199999999999" y="675.16" type="curve" smooth="yes"/>
      <point x="888.12" y="675.16"/>
      <point x="1026.02" y="579.58"/>
      <point x="1026.02" y="392.58000000000004" type="curve" smooth="yes"/>
      <point x="1026.02" y="157.28"/>
      <point x="862.3000000000001" y="25.02"/>
    </contour>
  </outline>
</glyph>
<glyph name="Thorn" format="2">
  <advance width="976.82"/>
  <unicode hex="00DE"/>
  <outline>
    <contour>
      <point x="88.06" y="0.0" type="line"/>
      <point x="132.35" y="0.0" type="line"/>
      <point x="158.36" y="163.16" type="line"/>
      <point x="294.21999999999997" y="159.16000000000003"/>
      <point x="367.90000000000003" y="158.16000000000003"/>
      <point x="493.26" y="158.16000000000003" type="curve" smooth="yes"/>
      <point x="806.98" y="158.16000000000003"/>
      <point x="936.24" y="237.89000000000001"/>
      <point x="936.24" y="433.87" type="curve" smooth="yes"/>
      <point x="936.24" y="573.74"/>
      <point x="824.5999999999999" y="630.63"/>
      <point x="538.76" y="630.63" type="curve" smooth="yes"/>
      <point x="484.19000000000005" y="630.63"/>
      <point x="409.08" y="628.72"/>
      <point x="230.07000000000002" y="621.3499999999999" type="curve"/>
      <point x="242.98" y="700.0" type="line"/>
      <point x="198.69000000000003" y="700.0" type="line"/>
    </contour>
    <contour>
      <point x="491.09000000000003" y="193.35" type="curve" smooth="yes"/>
      <point x="362.81" y="193.35"/>
      <point x="293.76" y="194.35"/>
      <point x="164.24" y="199.26" type="curve"/>
      <point x="225.19" y="585.43" type="line"/>
      <point x="407.54" y="593.0699999999999"/>
      <point x="473.14000000000004" y="594.89"/>
      <point x="535.22" y="594.89" type="curve" smooth="yes"/>
      <point x="798.36" y="594.89"/>
      <point x="890.7800000000001" y="551.23"/>
      <point x="890.7800000000001" y="429.59999999999997" type="curve" smooth="yes"/>
      <point x="890.7800000000001" y="261.4"/>
      <point x="779.6999999999999" y="193.35"/>
    </contour>
  </outline>
</glyph>
<glyph name="germandbls" format="2">
  <advance width="876.04"/>
  <unicode hex="00DF"/>
  <outline>
    <contour>
      <point x="98.19999999999999" y="-56.46" type="line" smooth="yes"/>
      <point x="85.10000000000001" y="-139.6"/>
      <point x="57.18000000000001" y="-186.07999999999998"/>
      <point x="-0.7600000000000057" y="-186.07999999999998" type="curve" smooth="yes"/>
      <point x="-15.399999999999997" y="-186.07999999999998"/>
      <point x="-36.86" y="-184.07999999999998"/>
      <point x="-61.419999999999995" y="-173.79999999999998" type="curve"/>
      <point x="-69.84" y="-205.73999999999998" type="line"/>
      <point x="-48.32" y="-216.64"/>
      <point x="-8.419999999999996" y="-220.0"/>
      <point x="7.619999999999993" y="-220.0" type="curve" smooth="yes"/>
      <point x="83.84" y="-220.0"/>
      <point x="123.16" y="-163.3"/>
      <point x="138.70000000000002" y="-64.7" type="curve" smooth="yes"/>
      <point x="226.26" y="482.20000000000005" type="line" smooth="yes"/>
      <point x="253.82" y="651.74"/>
      <point x="336.02" y="719.24"/>
      <point x="527.8199999999999" y="719.24" type="curve" smooth="yes"/>
      <point x="661.6999999999999" y="719.24"/>
      <point x="728.26" y="689.22"/>
      <point x="728.26" y="629.26" type="curve" smooth="yes"/>
      <point x="728.26" y="578.04"/>
      <point x="687.8400000000001" y="548.92"/>
      <point x="545.64" y="530.28" type="curve" smooth="yes"/>
      <point x="385.22" y="509.18"/>
      <point x="324.49999999999994" y="467.92"/>
      <point x="324.49999999999994" y="384.68" type="curve" smooth="yes"/>
      <point x="324.49999999999994" y="300.24"/>
      <point x="389.68" y="268.44"/>
      <point x="589.4999999999999" y="246.8" type="curve" smooth="yes"/>
      <point x="748.76" y="229.16"/>
      <point x="807.9599999999999" y="201.40000000000003"/>
      <point x="807.9599999999999" y="139.26" type="curve" smooth="yes"/>
      <point x="807.9599999999999" y="59.1"/>
      <point x="708.24" y="22.86"/>
      <point x="541.56" y="22.86" type="curve" smooth="yes"/>
      <point x="456.64" y="22.86"/>
      <point x="341.46000000000004" y="43.49999999999999"/>
      <point x="256.9" y="74.41999999999999" type="curve"/>
      <point x="244.48" y="40.74000000000001" type="line"/>
      <point x="332.47999999999996" y="9.459999999999999"/>
      <point x="447.32" y="-11.0"/>
      <point x="535.6800000000001" y="-11.0" type="curve" smooth="yes"/>
      <point x="737.38" y="-11.0"/>
      <point x="847.66" y="35.540000000000006"/>
      <point x="847.66" y="144.24" type="curve" smooth="yes"/>
      <point x="847.66" y="218.04000000000002"/>
      <point x="779.58" y="260.38"/>
      <point x="598.04" y="279.84" type="curve" smooth="yes"/>
      <point x="417.14" y="299.29999999999995"/>
      <point x="363.12" y="322.05999999999995"/>
      <point x="363.12" y="388.65999999999997" type="curve" smooth="yes"/>
      <point x="363.12" y="451.44"/>
      <point x="414.4" y="481.12"/>
      <point x="562.0999999999999" y="501.22" type="curve" smooth="yes"/>
      <point x="720.4399999999999" y="522.32"/>
      <point x="765.44" y="560.74"/>
      <point x="765.44" y="633.62" type="curve" smooth="yes"/>
      <point x="765.44" y="710.94"/>
      <point x="688.56" y="750.0"/>
      <point x="522.7200000000001" y="750.0" type="curve" smooth="yes"/>
      <point x="316.34000000000003" y="750.0"/>
      <point x="218.58" y="675.9000000000001"/>
      <point x="186.94" y="493.71999999999997" type="curve" smooth="yes"/>
      <point x="185.76000000000002" y="484.0" type="line"/>
      <point x="37.620000000000005" y="474.09999999999997" type="line"/>
      <point x="32.46" y="449.78" type="line"/>
      <point x="178.42000000000002" y="449.78" type="line"/>
    </contour>
  </outline>
</glyph>
<glyph name="ae" format="2">
  <advance width="1339.9"/>
  <unicode hex="00E6"/>
  <anchor x="622.4000000000001" y="0.0" name="bottom"/>
  <anchor x="693.2" y="531.8" name="top"/>
  <outline>
    <contour>
      <point x="314.42" y="-10.0" type="curve" smooth="yes"/>
      <point x="421.82" y="-10.0"/>
      <point x="532.86" y="31.38"/>
      <point x="603.86" y="77.47999999999999" type="curve"/>
      <point x="591.4" y="0.0" type="line"/>
      <point x="631.1" y="0.0" type="line"/>
      <point x="652.94" y="140.96" type="line"/>
      <point x="679.36" y="42.12"/>
      <point x="771.38" y="-10.0"/>
      <point x="924.44" y="-10.0" type="curve" smooth="yes"/>
      <point x="1027.4599999999998" y="-10.0"/>
      <point x="1159.24" y="14.74"/>
      <point x="1251.44" y="50.12" type="curve"/>
      <point x="1244.1799999999998" y="82.69999999999999" type="line"/>
      <point x="1144.26" y="45.96"/>
      <point x="1018.4000000000001" y="23.4"/>
      <point x="926.6999999999999" y="23.4" type="curve" smooth="yes"/>
      <point x="763.0" y="23.4"/>
      <point x="668.1" y="92.24000000000001"/>
      <point x="668.1" y="211.85999999999999" type="curve" smooth="yes"/>
      <point x="668.1" y="385.14"/>
      <point x="815.46" y="509.11999999999995"/>
      <point x="1041.6999999999998" y="509.11999999999995" type="curve" smooth="yes"/>
      <point x="1178.8" y="509.11999999999995"/>
      <point x="1253.04" y="470.0"/>
      <point x="1253.04" y="397.4" type="curve" smooth="yes"/>
      <point x="1253.04" y="312.34000000000003"/>
      <point x="1131.8799999999999" y="264.94"/>
      <point x="915.94" y="264.76" type="curve" smooth="yes"/>
      <point x="826.1600000000001" y="264.58"/>
      <point x="733.82" y="273.68"/>
      <point x="663.5" y="290.24" type="curve"/>
      <point x="661.48" y="260.34" type="line"/>
      <point x="731.6" y="244.06"/>
      <point x="828.2800000000001" y="234.42"/>
      <point x="920.02" y="234.6" type="curve" smooth="yes"/>
      <point x="1167.32" y="234.78"/>
      <point x="1297.06" y="294.65999999999997"/>
      <point x="1297.06" y="402.65999999999997" type="curve" smooth="yes"/>
      <point x="1297.06" y="490.35999999999996"/>
      <point x="1206.52" y="541.8"/>
      <point x="1051.88" y="541.8" type="curve" smooth="yes"/>
      <point x="885.5200000000001" y="541.8"/>
      <point x="754.18" y="479.47999999999996"/>
      <point x="690.52" y="376.71999999999997" type="curve"/>
      <point x="715.4599999999999" y="531.8" type="line"/>
      <point x="675.5799999999999" y="531.8" type="line"/>
      <point x="666.9399999999999" y="481.88000000000005" type="line"/>
      <point x="605.46" y="520.52"/>
      <point x="525.24" y="541.8"/>
      <point x="445.32000000000005" y="541.8" type="curve" smooth="yes"/>
      <point x="230.16" y="541.8"/>
      <point x="52.300000000000004" y="428.47999999999996"/>
      <point x="52.300000000000004" y="213.9" type="curve" smooth="yes"/>
      <point x="52.300000000000004" y="71.1"/>
      <point x="149.76000000000002" y="-10.0"/>
    </contour>
    <contour>
      <point x="331.47999999999996" y="25.02" type="curve" smooth="yes"/>
      <point x="184.74" y="25.02"/>
      <point x="95.88" y="95.8"/>
      <point x="95.88" y="217.32000000000002" type="curve" smooth="yes"/>
      <point x="95.88" y="427.16"/>
      <point x="279.52" y="510.12"/>
      <point x="448.62" y="510.12" type="curve" smooth="yes"/>
      <point x="528.58" y="510.12"/>
      <point x="598.64" y="492.28000000000003"/>
      <point x="663.14" y="451.97999999999996" type="curve"/>
      <point x="609.66" y="112.35999999999999" type="line"/>
      <point x="531.16" y="60.32"/>
      <point x="423.71999999999997" y="25.02"/>
    </contour>
  </outline>
</glyph>
<glyph name="eth" format="2">
  <advance width="895.86"/>
  <unicode hex="00F0"/>
  <outline>
    <contour>
      <point x="812.04" y="386.14" type="curve"/>
      <point x="817.1999999999999" y="417.38" type="line"/>
      <point x="739.92" y="494.43999999999994"/>
      <point x="597.96" y="533.5600000000001"/>
      <point x="444.98" y="533.5600000000001" type="curve" smooth="yes"/>
      <point x="216.95999999999998" y="533.5600000000001"/>
      <point x="61.04" y="442.02"/>
      <point x="61.04" y="249.1" type="curve" smooth="yes"/>
      <point x="61.04" y="47.9"/>
      <point x="213.14" y="-9.82"/>
      <point x="410.04" y="-9.82" type="curve" smooth="yes"/>
      <point x="647.9200000000001" y="-9.82"/>
      <point x="805.74" y="93.72"/>
      <point x="841.2800000000001" y="318.71999999999997" type="curve" smooth="yes"/>
      <point x="845.46" y="342.26"/>
      <point x="846.46" y="364.98"/>
      <point x="846.46" y="387.34000000000003" type="curve" smooth="yes"/>
      <point x="846.46" y="601.62"/>
      <point x="670.26" y="715.22"/>
      <point x="374.4" y="715.22" type="curve" smooth="yes"/>
      <point x="287.74" y="715.22"/>
      <point x="229.73999999999998" y="705.76"/>
      <point x="159.36" y="693.12" type="curve"/>
      <point x="160.01999999999998" y="662.6" type="line"/>
      <point x="224.22" y="673.0600000000001"/>
      <point x="278.8" y="684.16"/>
      <point x="371.06" y="684.16" type="curve" smooth="yes"/>
      <point x="650.72" y="684.16"/>
      <point x="803.0600000000001" y="580.18"/>
      <point x="803.0600000000001" y="390.65999999999997" type="curve" smooth="yes"/>
      <point x="803.0600000000001" y="368.94"/>
      <point x="802.0600000000001" y="346.86"/>
      <point x="797.7" y="322.24" type="curve" smooth="yes"/>
      <point x="764.7800000000001" y="118.26"/>
      <point x="633.24" y="23.4"/>
      <point x="416.38" y="23.4" type="curve" smooth="yes"/>
      <point x="240.64000000000001" y="23.4"/>
      <point x="103.44" y="73.6"/>
      <point x="103.44" y="252.35999999999999" type="curve" smooth="yes"/>
      <point x="103.44" y="416.82"/>
      <point x="246.16" y="501.6"/>
      <point x="449.02" y="501.6" type="curve" smooth="yes"/>
      <point x="600.46" y="501.6"/>
      <point x="731.28" y="461.48"/>
    </contour>
    <contour>
      <point x="261.92" y="548.38" type="line"/>
      <point x="637.08" y="654.9200000000001" type="line"/>
      <point x="633.1" y="656.28" type="line"/>
      <point x="874.1" y="726.1199999999999" type="line"/>
      <point x="790.1" y="726.1199999999999" type="line"/>
      <point x="598.02" y="670.7" type="line"/>
      <point x="604.36" y="669.6999999999999" type="line"/>
      <point x="177.74" y="548.38" type="line"/>
    </contour>
  </outline>
</glyph>
<glyph name="divide" format="2">
  <advance width="533.6999999999999"/>
  <unicode hex="00F7"/>
  <outline>
    <contour>
      <point x="211.16000000000003" y="84.42" type="curve" smooth="yes"/>
      <point x="210.16000000000003" y="72.17999999999999"/>
      <point x="216.86" y="69.19999999999999"/>
      <point x="232.44" y="69.19999999999999" type="curve" smooth="yes"/>
      <point x="255.66" y="69.19999999999999"/>
      <point x="261.7" y="72.53999999999999"/>
      <point x="264.52" y="100.76" type="curve" smooth="yes"/>
      <point x="265.52" y="113.0"/>
      <point x="259.0" y="115.98"/>
      <point x="243.24" y="115.98" type="curve" smooth="yes"/>
      <point x="220.38" y="115.98"/>
      <point x="213.98000000000002" y="112.46000000000001"/>
    </contour>
    <contour>
      <point x="275.62" y="482.82" type="curve" smooth="yes"/>
      <point x="274.62" y="470.76"/>
      <point x="281.14" y="467.59999999999997"/>
      <point x="296.9" y="467.59999999999997" type="curve" smooth="yes"/>
      <point x="320.12" y="467.59999999999997"/>
      <point x="325.98" y="471.3"/>
      <point x="328.79999999999995" y="499.34" type="curve" smooth="yes"/>
      <point x="329.79999999999995" y="511.58"/>
      <point x="323.28000000000003" y="514.38"/>
      <point x="307.52" y="514.38" type="curve" smooth="yes"/>
      <point x="284.48" y="514.38"/>
      <point x="278.44" y="510.86"/>
    </contour>
    <contour>
      <point x="62.92" y="273.42" type="line"/>
      <point x="469.98" y="273.42" type="line"/>
      <point x="476.68" y="309.97999999999996" type="line"/>
      <point x="69.61999999999999" y="309.97999999999996" type="line"/>
    </contour>
  </outline>
</glyph>
<glyph name="oslash" format="2">
  <advance width="832.4399999999999"/>
  <unicode hex="00F8"/>
  <anchor x="438.62" y="531.8" name="top"/>
  <outline>
    <contour>
      <point x="759.08" y="542.16" type="line"/>
      <point x="664.28" y="470.28000000000003" type="line"/>
      <point x="664.28" y="470.28000000000003" type="line"/>
      <point x="148.54" y="79.56" type="line"/>
      <point x="148.54" y="79.56" type="line"/>
      <point x="31.339999999999996" y="-10.0" type="line"/>
      <point x="75.66" y="-10.0" type="line"/>
      <point x="170.48" y="62.25999999999999" type="line"/>
      <point x="170.48" y="62.26" type="line"/>
      <point x="687.56" y="453.78000000000003" type="line"/>
      <point x="687.56" y="453.78000000000003" type="line"/>
      <point x="803.4000000000001" y="542.16" type="line"/>
    </contour>
    <contour>
      <point x="405.62" y="-10.0" type="curve" smooth="yes"/>
      <point x="643.06" y="-10.0"/>
      <point x="768.86" y="96.53999999999998"/>
      <point x="768.5000000000001" y="296.1" type="curve" smooth="yes"/>
      <point x="768.1400000000001" y="457.46000000000004"/>
      <point x="649.98" y="542.16"/>
      <point x="424.00000000000006" y="542.16" type="curve" smooth="yes"/>
      <point x="186.56" y="542.16"/>
      <point x="60.76" y="435.62"/>
      <point x="61.12" y="236.06" type="curve" smooth="yes"/>
      <point x="61.480000000000004" y="74.7"/>
      <point x="179.64" y="-10.0"/>
    </contour>
    <contour>
      <point x="405.8" y="22.68" type="curve" smooth="yes"/>
      <point x="208.58" y="22.68"/>
      <point x="104.06" y="95.72"/>
      <point x="104.06" y="238.4" type="curve" smooth="yes"/>
      <point x="104.06" y="416.34"/>
      <point x="211.67999999999998" y="509.48"/>
      <point x="423.82" y="509.48" type="curve" smooth="yes"/>
      <point x="621.04" y="509.48"/>
      <point x="725.56" y="436.62"/>
      <point x="725.56" y="293.94" type="curve" smooth="yes"/>
      <point x="725.56" y="116.00000000000003"/>
      <point x="617.94" y="22.68"/>
    </contour>
  </outline>
</glyph>
<glyph name="thorn" format="2">
  <advance width="796.1899999999999"/>
  <unicode hex="00FE"/>
  <outline>
    <contour>
      <point x="41.970000000000006" y="-210.0" type="line"/>
      <point x="84.64" y="-210.0" type="line"/>
      <point x="120.55" y="14.65" type="line"/>
      <point x="172.48" y="3.1899999999999995"/>
      <point x="239.59" y="-10.0"/>
      <point x="322.9" y="-10.0" type="curve" smooth="yes"/>
      <point x="571.85" y="-10.0"/>
      <point x="742.16" y="121.28"/>
      <point x="742.16" y="325.25" type="curve" smooth="yes"/>
      <point x="742.16" y="463.26"/>
      <point x="656.51" y="541.8"/>
      <point x="508.88" y="541.8" type="curve" smooth="yes"/>
      <point x="385.4" y="541.8"/>
      <point x="288.92" y="490.41"/>
      <point x="183.63" y="419.47999999999996" type="curve"/>
      <point x="234.54999999999998" y="740.0" type="line"/>
      <point x="192.06000000000003" y="740.0" type="line"/>
    </contour>
    <contour>
      <point x="324.89" y="23.58" type="curve" smooth="yes"/>
      <point x="240.57" y="23.58"/>
      <point x="174.35999999999999" y="39.589999999999996"/>
      <point x="125.89000000000001" y="50.41" type="curve"/>
      <point x="177.92" y="381.06" type="line"/>
      <point x="291.63" y="463.21999999999997"/>
      <point x="389.31" y="505.43"/>
      <point x="489.82" y="505.43" type="curve" smooth="yes"/>
      <point x="623.18" y="505.43"/>
      <point x="699.2199999999999" y="439.46999999999997"/>
      <point x="699.2199999999999" y="315.85" type="curve" smooth="yes"/>
      <point x="699.2199999999999" y="139.29000000000002"/>
      <point x="540.85" y="23.58"/>
    </contour>
  </outline>
</glyph>
<glyph name="Dcroat" format="2">
  <advance width="1074.8"/>
  <unicode hex="0110"/>
  <outline>
    <contour>
      <point x="24.639999999999997" y="344.08" type="line"/>
      <point x="396.54" y="344.08" type="line"/>
      <point x="402.24" y="377.02" type="line"/>
      <point x="31.8" y="377.02" type="line"/>
    </contour>
    <component base="D" xOffset="0.9000000000000001"/>
  </outline>
</glyph>
<glyph name="dcroat" format="2">
  <advance width="799.8800000000001"/>
  <unicode hex="0111"/>
  <outline>
    <contour>
      <point x="458.78000000000003" y="615.66" type="line"/>
      <point x="864.84" y="615.66" type="line"/>
      <point x="869.8199999999999" y="643.3799999999999" type="line"/>
      <point x="463.76000000000005" y="643.3799999999999" type="line"/>
    </contour>
    <component base="d"/>
  </outline>
</glyph>
<glyph name="Hbar" format="2">
  <advance width="1105.48"/>
  <unicode hex="0126"/>
  <outline>
    <contour>
      <point x="73.1" y="498.83" type="line"/>
      <point x="1104.29" y="498.83" type="line"/>
      <point x="1109.45" y="532.42" type="line"/>
      <point x="78.26" y="532.42" type="line"/>
    </contour>
    <component base="H" xOffset="0.9999999999999999"/>
  </outline>
</glyph>
<glyph name="hbar" format="2">
  <advance width="831.44"/>
  <unicode hex="0127"/>
  <outline>
    <contour>
      <point x="48.66" y="615.66" type="line"/>
      <point x="474.84" y="615.66" type="line"/>
      <point x="479.82" y="643.3799999999999" type="line"/>
      <point x="53.64" y="643.3799999999999" type="line"/>
    </contour>
    <component base="h" xOffset="-0.54"/>
  </outline>
</glyph>
<glyph name="Idotaccent" format="2">
  <advance width="306.95"/>
  <unicode hex="0130"/>
  <outline>
    <contour>
      <point x="249.82999999999998" y="877.2099999999999" type="curve" smooth="yes"/>
      <point x="226.57" y="877.2099999999999"/>
      <point x="216.43999999999997" y="873.52"/>
      <point x="215.53000000000003" y="842.12" type="curve" smooth="yes"/>
      <point x="215.53" y="830.53"/>
      <point x="225.04000000000002" y="826.47"/>
      <point x="239.22" y="826.47" type="curve" smooth="yes"/>
      <point x="264.51" y="826.47"/>
      <point x="273.43" y="828.9"/>
      <point x="275.24999999999994" y="862.5600000000001" type="curve" smooth="yes"/>
      <point x="275.25" y="873.15"/>
      <point x="268.47" y="877.2099999999999"/>
    </contour>
    <component base="I"/>
  </outline>
</glyph>
<glyph name="dotlessi" format="2">
  <advance width="279.15000000000003"/>
  <unicode hex="0131"/>
  <anchor x="95.15996" y="0.0" name="bottom"/>
  <anchor x="117.09" y="0.0" name="ogonek"/>
  <anchor x="180.35004" y="531.8" name="top"/>
  <outline>
    <contour>
      <point x="117.09" y="0.0" type="line"/>
      <point x="201.26999999999998" y="531.8" type="line"/>
      <point x="158.51" y="531.8" type="line"/>
      <point x="74.15" y="0.09" type="line"/>
    </contour>
  </outline>
</glyph>
<glyph name="kgreenlandic" format="2">
  <advance width="727.26"/>
  <unicode hex="0138"/>
  <anchor x="338.23999999999995" y="0.0" name="bottom"/>
  <anchor x="409.84000000000003" y="531.8" name="top"/>
  <outline>
    <contour>
      <point x="75.06" y="0.0" type="line"/>
      <point x="118.64" y="0.0" type="line"/>
      <point x="202.18" y="531.8" type="line"/>
      <point x="158.42000000000002" y="531.8" type="line"/>
    </contour>
    <contour>
      <point x="661.86" y="-10.0" type="curve" smooth="yes"/>
      <point x="671.4" y="-10.0"/>
      <point x="683.5799999999999" y="-7.18"/>
      <point x="690.3000000000001" y="-3.3599999999999994" type="curve"/>
      <point x="688.98" y="32.239999999999995" type="line"/>
      <point x="682.62" y="29.419999999999998"/>
      <point x="673.62" y="28.599999999999998"/>
      <point x="667.0799999999999" y="28.599999999999998" type="curve" smooth="yes"/>
      <point x="628.56" y="28.599999999999998"/>
      <point x="574.76" y="64.62"/>
      <point x="421.08000000000004" y="192.14000000000001" type="curve" smooth="yes"/>
      <point x="168.73999999999998" y="401.7" type="line"/>
      <point x="162.32" y="356.92" type="line"/>
      <point x="411.88" y="148.7" type="line" smooth="yes"/>
      <point x="559.12" y="26.72"/>
      <point x="609.4399999999999" y="-10.0"/>
    </contour>
    <contour>
      <point x="312.5" y="264.71999999999997" type="line"/>
      <point x="498.46" y="334.62"/>
      <point x="643.9399999999999" y="430.59999999999997"/>
      <point x="719.06" y="529.98" type="curve"/>
      <point x="675.1" y="541.8000000000001" type="line"/>
      <point x="581.78" y="432.03999999999996"/>
      <point x="491.94" y="371.68"/>
      <point x="274.0" y="282.48" type="curve"/>
    </contour>
  </outline>
</glyph>
<glyph name="Ldot" format="2">
  <advance width="806.99"/>
  <unicode hex="013F"/>
  <outline>
    <contour>
      <point x="555.55" y="369.10999999999996" type="curve" smooth="yes"/>
      <point x="554.64" y="355.43"/>
      <point x="562.15" y="351.37"/>
      <point x="579.44" y="351.37" type="curve" smooth="yes"/>
      <point x="604.9100000000001" y="351.37"/>
      <point x="612.03" y="355.97"/>
      <point x="614.76" y="385.0" type="curve" smooth="yes"/>
      <point x="615.6700000000001" y="398.86"/>
      <point x="608.16" y="402.91999999999996"/>
      <point x="590.96" y="402.91999999999996" type="curve" smooth="yes"/>
      <point x="565.58" y="402.91999999999996"/>
      <point x="558.2800000000001" y="397.78"/>
    </contour>
    <component base="L"/>
  </outline>
</glyph>
<glyph name="ldot" format="2">
  <advance width="356.98"/>
  <unicode hex="0140"/>
  <outline>
    <contour>
      <point x="309.88109" y="355.82336000000004" type="curve" smooth="yes"/>
      <point x="308.97109000000006" y="343.91744"/>
      <point x="314.82617" y="340.87534"/>
      <point x="328.61391000000003" y="340.87534" type="curve" smooth="yes"/>
      <point x="350.19672" y="340.87534"/>
      <point x="354.66118" y="344.28292999999996"/>
      <point x="357.39118" y="370.69546" type="curve" smooth="yes"/>
      <point x="358.30118" y="382.72333"/>
      <point x="352.4461" y="385.76543"/>
      <point x="338.70993" y="385.76543" type="curve" smooth="yes"/>
      <point x="317.1786" y="385.76543"/>
      <point x="312.61109000000005" y="381.99226"/>
    </contour>
    <component base="l"/>
  </outline>
</glyph>
<glyph name="Lslash" format="2">
  <advance width="805.64"/>
  <unicode hex="0141"/>
  <outline>
    <contour>
      <point x="85.8" y="0.0" type="line"/>
      <point x="742.9300000000001" y="0.0" type="line"/>
      <point x="749.26" y="37.54" type="line"/>
      <point x="136.23999999999998" y="37.54" type="line"/>
      <point x="169.26" y="248.76" type="line"/>
      <point x="553.74" y="457.49" type="line"/>
      <point x="560.71" y="498.03" type="line"/>
      <point x="176.23" y="289.3" type="line"/>
      <point x="241.45000000000002" y="700.0" type="line"/>
      <point x="197.16" y="700.0" type="line"/>
      <point x="128.04999999999998" y="265.87" type="line"/>
      <point x="35.48" y="215.94000000000003" type="line"/>
      <point x="28.689999999999998" y="175.85000000000002" type="line"/>
      <point x="121.08" y="225.69" type="line"/>
    </contour>
  </outline>
</glyph>
<glyph name="lslash" format="2">
  <advance width="352.48"/>
  <unicode hex="0142"/>
  <outline>
    <contour>
      <point x="20.58" y="152.60999999999999" type="line"/>
      <point x="321.13" y="426.69" type="line"/>
      <point x="327.46999999999997" y="468.91" type="line"/>
      <point x="26.830000000000002" y="194.83" type="line"/>
    </contour>
    <component base="l"/>
  </outline>
</glyph>
<glyph name="Eng" format="2">
  <advance width="1099.6399999999999"/>
  <unicode hex="014A"/>
  <outline>
    <contour>
      <point x="87.15" y="0.0" type="line"/>
      <point x="129.74" y="0.0" type="line"/>
      <point x="232.97" y="652.5899999999999" type="line"/>
      <point x="878.8" y="-4.65" type="line"/>
      <point x="839.58" y="-147.57999999999998"/>
      <point x="725.68" y="-185.7"/>
      <point x="610.25" y="-185.7" type="curve" smooth="yes"/>
      <point x="554.5" y="-185.7"/>
      <point x="496.73999999999995" y="-176.88000000000002"/>
      <point x="447.81" y="-166.52" type="curve"/>
      <point x="440.48" y="-201.73" type="line"/>
      <point x="492.38" y="-212.54"/>
      <point x="554.27" y="-220.0"/>
      <point x="610.6700000000001" y="-220.0" type="curve" smooth="yes"/>
      <point x="777.75" y="-220.0"/>
      <point x="899.5" y="-146.96"/>
      <point x="928.5" y="31.950000000000003" type="curve" smooth="yes"/>
      <point x="1035.49" y="700.0" type="line"/>
      <point x="992.9" y="700.0" type="line"/>
      <point x="889.31" y="43.7" type="line"/>
      <point x="239.75" y="709.1" type="line"/>
      <point x="200.42" y="709.1" type="line"/>
    </contour>
  </outline>
</glyph>
<glyph name="eng" format="2">
  <advance width="828.26"/>
  <unicode hex="014B"/>
  <outline>
    <contour>
      <point x="654.5400000000001" y="-63.32000000000001" type="curve" smooth="yes"/>
      <point x="654.99" y="-60.62"/>
      <point x="725.7399999999999" y="352.04"/>
      <point x="725.7399999999999" y="383.78999999999996" type="curve" smooth="yes"/>
      <point x="725.7399999999999" y="483.08000000000004"/>
      <point x="663.48" y="541.8"/>
      <point x="536.58" y="541.8" type="curve" smooth="yes"/>
      <point x="406.08" y="541.8"/>
      <point x="311.59000000000003" y="498.69000000000005"/>
      <point x="183.84" y="437.77" type="curve"/>
      <point x="198.39000000000001" y="531.8" type="line"/>
      <point x="158.42000000000002" y="531.8" type="line"/>
      <point x="75.05999999999999" y="0.0" type="line"/>
      <point x="117.37" y="0.0" type="line"/>
      <point x="181.56" y="404.42999999999995" type="line"/>
      <point x="308.83" y="464.75"/>
      <point x="395.7" y="506.51"/>
      <point x="521.07" y="506.51" type="curve" smooth="yes"/>
      <point x="633.6899999999999" y="506.51"/>
      <point x="680.71" y="454.11"/>
      <point x="679.99" y="368.98" type="curve" smooth="yes"/>
      <point x="678.9100000000001" y="327.92"/>
      <point x="614.13" y="-51.66000000000001"/>
      <point x="613.0500000000001" y="-58.14" type="curve" smooth="yes"/>
      <point x="599.23" y="-144.7"/>
      <point x="569.87" y="-191.0"/>
      <point x="508.87000000000006" y="-191.0" type="curve" smooth="yes"/>
      <point x="494.77" y="-191.0"/>
      <point x="474.29999999999995" y="-189.18"/>
      <point x="450.19000000000005" y="-179.17" type="curve"/>
      <point x="441.77" y="-213.17999999999998" type="line"/>
      <point x="461.58" y="-222.45999999999998"/>
      <point x="502.47" y="-225.46"/>
      <point x="516.71" y="-225.46" type="curve" smooth="yes"/>
      <point x="598.69" y="-225.46"/>
      <point x="638.0999999999999" y="-167.05"/>
    </contour>
  </outline>
</glyph>
<glyph name="OE" format="2">
  <advance width="1663.98"/>
  <unicode hex="0152"/>
  <outline>
    <contour>
      <point x="1562.6000000000001" y="0.0" type="line"/>
      <point x="1568.8399999999997" y="38.08" type="line"/>
      <point x="900.4599999999999" y="38.08" type="line"/>
      <point x="951.6" y="361.21999999999997" type="line"/>
      <point x="1563.8" y="361.21999999999997" type="line"/>
      <point x="1569.8600000000001" y="398.58000000000004" type="line"/>
      <point x="957.3" y="398.58000000000004" type="line"/>
      <point x="999.16" y="661.92" type="line"/>
      <point x="1640.9" y="661.92" type="line"/>
      <point x="1646.96" y="700.0" type="line"/>
      <point x="1006.12" y="700.0" type="line"/>
      <point x="877.22" y="706.46"/>
      <point x="737.0" y="710.0"/>
      <point x="635.88" y="710.0" type="curve" smooth="yes"/>
      <point x="301.9" y="710.0"/>
      <point x="87.4" y="560.86"/>
      <point x="87.4" y="307.00000000000006" type="curve" smooth="yes"/>
      <point x="87.4" y="94.62000000000002"/>
      <point x="236.24" y="-10.0"/>
      <point x="552.6600000000001" y="-10.0" type="curve" smooth="yes"/>
      <point x="667.14" y="-10.0"/>
      <point x="769.22" y="-6.459999999999999"/>
      <point x="894.7600000000001" y="0.0" type="curve"/>
    </contour>
    <contour>
      <point x="856.6199999999999" y="35.120000000000005" type="line"/>
      <point x="751.46" y="28.479999999999997"/>
      <point x="668.52" y="24.659999999999997"/>
      <point x="564.1199999999999" y="24.659999999999997" type="curve" smooth="yes"/>
      <point x="272.3" y="24.659999999999997"/>
      <point x="132.06" y="117.60000000000001"/>
      <point x="132.06" y="311.44" type="curve" smooth="yes"/>
      <point x="132.06" y="536.5200000000001"/>
      <point x="331.24" y="675.34"/>
      <point x="639.0799999999999" y="675.34" type="curve" smooth="yes"/>
      <point x="687.5" y="675.34"/>
      <point x="898.22" y="671.34"/>
      <point x="956.94" y="666.7" type="curve"/>
    </contour>
  </outline>
</glyph>
<glyph name="oe" format="2">
  <advance width="1433.76"/>
  <unicode hex="0153"/>
  <outline>
    <contour>
      <point x="404.18" y="-10.0" type="curve" smooth="yes"/>
      <point x="574.5400000000001" y="-10.0"/>
      <point x="687.02" y="44.34"/>
      <point x="733.54" y="152.06" type="curve"/>
      <point x="756.66" y="45.06"/>
      <point x="853.3000000000001" y="-10.0"/>
      <point x="1011.9999999999999" y="-10.0" type="curve" smooth="yes"/>
      <point x="1117.18" y="-10.0"/>
      <point x="1250.9399999999998" y="14.74"/>
      <point x="1345.3" y="50.12" type="curve"/>
      <point x="1338.04" y="82.7" type="line"/>
      <point x="1236.68" y="45.96"/>
      <point x="1109.56" y="23.4"/>
      <point x="1016.7800000000001" y="23.4" type="curve" smooth="yes"/>
      <point x="850.02" y="23.4"/>
      <point x="761.96" y="89.9"/>
      <point x="761.96" y="211.85999999999999" type="curve" smooth="yes"/>
      <point x="761.96" y="385.14000000000004"/>
      <point x="909.1400000000001" y="509.11999999999995"/>
      <point x="1135.38" y="509.11999999999995" type="curve" smooth="yes"/>
      <point x="1272.48" y="509.11999999999995"/>
      <point x="1346.72" y="470.0"/>
      <point x="1346.72" y="397.4" type="curve" smooth="yes"/>
      <point x="1346.72" y="312.34000000000003"/>
      <point x="1225.5600000000002" y="268.18"/>
      <point x="1009.8" y="267.82" type="curve" smooth="yes"/>
      <point x="923.66" y="267.64"/>
      <point x="825.6800000000001" y="276.73999999999995"/>
      <point x="755.36" y="291.48" type="curve"/>
      <point x="753.3399999999999" y="260.32" type="line"/>
      <point x="823.64" y="245.85999999999999"/>
      <point x="925.6" y="236.22"/>
      <point x="1013.6999999999999" y="236.4" type="curve" smooth="yes"/>
      <point x="1261.1799999999998" y="236.76"/>
      <point x="1390.92" y="294.65999999999997"/>
      <point x="1390.92" y="402.65999999999997" type="curve" smooth="yes"/>
      <point x="1390.92" y="490.35999999999996"/>
      <point x="1297.5" y="541.8"/>
      <point x="1138.54" y="541.8" type="curve" smooth="yes"/>
      <point x="946.28" y="541.8"/>
      <point x="808.96" y="465.17999999999995"/>
      <point x="755.16" y="345.98" type="curve"/>
      <point x="738.86" y="473.28"/>
      <point x="625.1" y="541.98"/>
      <point x="423.82" y="541.98" type="curve" smooth="yes"/>
      <point x="191.23999999999998" y="541.98"/>
      <point x="61.84" y="439.4"/>
      <point x="61.120000000000005" y="237.5" type="curve" smooth="yes"/>
      <point x="60.58" y="74.7"/>
      <point x="180.17999999999998" y="-10.0"/>
    </contour>
    <contour>
      <point x="405.26" y="22.68" type="curve" smooth="yes"/>
      <point x="208.22" y="22.68"/>
      <point x="104.24000000000001" y="97.16"/>
      <point x="104.24000000000001" y="237.5" type="curve" smooth="yes"/>
      <point x="104.24000000000001" y="416.88000000000005"/>
      <point x="212.22" y="509.47999999999996"/>
      <point x="424.54" y="509.47999999999996" type="curve" smooth="yes"/>
      <point x="624.4000000000001" y="509.47999999999996"/>
      <point x="725.74" y="435.35999999999996"/>
      <point x="725.74" y="294.48" type="curve" smooth="yes"/>
      <point x="725.74" y="113.83999999999999"/>
      <point x="616.14" y="22.68"/>
    </contour>
  </outline>
</glyph>
<glyph name="uni0162" format="2">
  <advance width="792.9"/>
  <unicode hex="0162"/>
  <anchor x="352.45" y="0.0" name="_bottom"/>
  <anchor x="307.42" y="-220.0" name="bottom"/>
  <outline>
    <contour>
      <point x="178.76" y="-182.52" type="line"/>
      <point x="221.49" y="-208.72"/>
      <point x="259.95" y="-220.0"/>
      <point x="315.61" y="-220.0" type="curve" smooth="yes"/>
      <point x="401.13" y="-220.0"/>
      <point x="455.44000000000005" y="-172.54999999999998"/>
      <point x="455.44000000000005" y="-98.86999999999999" type="curve" smooth="yes"/>
      <point x="455.44000000000005" y="-46.11000000000001"/>
      <point x="419.59" y="-9.730000000000002"/>
      <point x="366.27000000000004" y="5.449999999999999" type="curve"/>
      <point x="333.46" y="0.9" type="line"/>
      <point x="390.6" y="-19.929999999999996"/>
      <point x="417.35" y="-47.129999999999995"/>
      <point x="417.35" y="-97.99" type="curve" smooth="yes"/>
      <point x="417.35" y="-155.73999999999998"/>
      <point x="375.88" y="-189.04"/>
      <point x="307.93" y="-189.04" type="curve" smooth="yes"/>
      <point x="263.07" y="-189.04"/>
      <point x="228.14000000000001" y="-176.21"/>
      <point x="189.65" y="-153.36999999999998" type="curve"/>
    </contour>
    <component base="T"/>
  </outline>
</glyph>
<glyph name="Tbar" format="2">
  <advance width="794.6999999999999"/>
  <unicode hex="0166"/>
  <outline>
    <contour>
      <point x="846.02" y="663.81" type="line"/>
      <point x="852.26" y="700.0" type="line"/>
      <point x="77.07" y="700.0" type="line"/>
      <point x="70.74000000000001" y="663.81" type="line"/>
      <point x="436.78" y="663.81" type="line"/>
      <point x="393.12" y="387.92999999999995" type="line"/>
      <point x="146.70999999999998" y="387.92999999999995" type="line"/>
      <point x="141.28" y="354.81" type="line"/>
      <point x="387.78" y="354.81" type="line"/>
      <point x="331.57" y="0.0" type="line"/>
      <point x="375.86" y="0.0" type="line"/>
      <point x="432.07000000000005" y="354.81" type="line"/>
      <point x="685.76" y="354.81" type="line"/>
      <point x="691.19" y="387.92999999999995" type="line"/>
      <point x="437.40999999999997" y="387.92999999999995" type="line"/>
      <point x="480.98" y="663.81" type="line"/>
    </contour>
  </outline>
</glyph>
<glyph name="tbar" format="2">
  <advance width="560.14"/>
  <unicode hex="0167"/>
  <outline>
    <contour>
      <point x="47.86" y="307.34000000000003" type="line"/>
      <point x="462.46" y="307.34000000000003" type="line"/>
      <point x="467.62" y="335.78" type="line"/>
      <point x="53.02" y="335.78" type="line"/>
    </contour>
    <contour>
      <point x="495.68000000000006" y="64.66" type="line"/>
      <point x="434.21999999999997" y="42.74"/>
      <point x="368.64" y="26.639999999999997"/>
      <point x="306.06" y="26.639999999999997" type="curve" smooth="yes"/>
      <point x="208.54" y="26.639999999999997"/>
      <point x="176.98" y="72.22"/>
      <point x="176.98" y="138.07999999999998" type="curve" smooth="yes"/>
      <point x="176.98" y="152.18"/>
      <point x="177.98000000000002" y="167.28"/>
      <point x="180.79999999999998" y="182.38" type="curve" smooth="yes"/>
      <point x="230.73999999999998" y="500.21999999999997" type="line"/>
      <point x="548.98" y="500.21999999999997" type="line"/>
      <point x="554.5" y="531.8" type="line"/>
      <point x="236.07999999999998" y="531.8" type="line"/>
      <point x="257.72" y="665.0" type="line"/>
      <point x="225.12" y="665.0" type="line"/>
      <point x="193.68" y="531.8" type="line"/>
      <point x="37.36" y="524.54" type="line"/>
      <point x="32.02" y="500.22" type="line"/>
      <point x="187.8" y="500.22" type="line"/>
      <point x="137.85999999999999" y="181.48" type="line" smooth="yes"/>
      <point x="134.67999999999998" y="162.39999999999998"/>
      <point x="132.68" y="140.04000000000002"/>
      <point x="132.68" y="127.96000000000001" type="curve" smooth="yes"/>
      <point x="132.68" y="28.36"/>
      <point x="192.84" y="-10.0"/>
      <point x="287.90000000000003" y="-10.0" type="curve" smooth="yes"/>
      <point x="344.78000000000003" y="-10.0"/>
      <point x="420.88" y="1.1800000000000002"/>
      <point x="500.6" y="30.279999999999998" type="curve"/>
    </contour>
  </outline>
</glyph>
<glyph name="uogonek" format="2">
  <advance width="795.2099999999999"/>
  <unicode hex="0173"/>
  <outline>
    <contour>
      <point x="668.9699999999999" y="-217.66" type="curve" smooth="yes"/>
      <point x="692.6899999999999" y="-217.66"/>
      <point x="714.95" y="-214.57"/>
      <point x="734.2099999999999" y="-209.3" type="curve"/>
      <point x="733.19" y="-181.5" type="line"/>
      <point x="715.18" y="-186.14"/>
      <point x="699.99" y="-188.04999999999998"/>
      <point x="678.98" y="-188.04999999999998" type="curve" smooth="yes"/>
      <point x="636.5100000000001" y="-188.04999999999998"/>
      <point x="604.8599999999999" y="-169.95"/>
      <point x="604.8599999999999" y="-123.92" type="curve" smooth="yes"/>
      <point x="604.8599999999999" y="-73.16000000000001"/>
      <point x="649.62" y="-27.86"/>
      <point x="743.47" y="3.33" type="curve"/>
      <point x="740.5600000000001" y="32.660000000000004" type="line"/>
      <point x="726.65" y="27.75"/>
      <point x="710.64" y="25.02"/>
      <point x="704.0" y="25.02" type="curve" smooth="yes"/>
      <point x="668.52" y="25.02"/>
      <point x="648.51" y="42.85"/>
      <point x="648.51" y="97.16" type="curve" smooth="yes"/>
      <point x="648.51" y="110.25999999999999"/>
      <point x="649.51" y="138.28"/>
      <point x="712.61" y="531.8" type="curve"/>
      <point x="668.7600000000001" y="531.8" type="line"/>
      <point x="606.75" y="117.54" type="line"/>
      <point x="490.66" y="59.13"/>
      <point x="404.53" y="25.2"/>
      <point x="287.98999999999995" y="25.2" type="curve" smooth="yes"/>
      <point x="186.47000000000003" y="25.2"/>
      <point x="137.26" y="72.69000000000001"/>
      <point x="137.26" y="148.91" type="curve" smooth="yes"/>
      <point x="137.26000000000002" y="164.17"/>
      <point x="138.70999999999998" y="191.54000000000002"/>
      <point x="192.9" y="531.8" type="curve"/>
      <point x="149.96" y="531.8" type="line"/>
      <point x="94.51" y="171.44"/>
      <point x="93.50999999999999" y="153.16"/>
      <point x="93.50999999999999" y="140.26000000000002" type="curve" smooth="yes"/>
      <point x="93.50999999999999" y="50.0"/>
      <point x="151.4" y="-10.0"/>
      <point x="272.38" y="-10.0" type="curve" smooth="yes"/>
      <point x="393.7" y="-10.0"/>
      <point x="487.79" y="25.279999999999998"/>
      <point x="606.65" y="87.11" type="curve"/>
      <point x="608.81" y="24.18"/>
      <point x="633.78" y="-9.82"/>
      <point x="687.94" y="-9.82" type="curve" smooth="yes"/>
      <point x="698.37" y="-9.82"/>
      <point x="708.6099999999999" y="1.14"/>
      <point x="698.98" y="7.51" type="curve"/>
      <point x="622.05" y="-19.5"/>
      <point x="568.5799999999999" y="-65.78"/>
      <point x="568.5799999999999" y="-128.05999999999997" type="curve" smooth="yes"/>
      <point x="568.5799999999999" y="-193.07"/>
      <point x="614.49" y="-217.66"/>
    </contour>
  </outline>
</glyph>
<glyph name="longs" format="2">
  <advance width="357.65"/>
  <unicode hex="017F"/>
  <outline>
    <contour>
      <point x="-6.390000000000007" y="-220.0" type="curve" smooth="yes"/>
      <point x="83.39" y="-220.0"/>
      <point x="127.25" y="-155.02"/>
      <point x="155.62" y="24.57" type="curve" smooth="yes"/>
      <point x="226.71" y="481.3" type="line" smooth="yes"/>
      <point x="251.36" y="639.48"/>
      <point x="318.48" y="714.0799999999999"/>
      <point x="448.54999999999995" y="714.0799999999999" type="curve" smooth="yes"/>
      <point x="528.77" y="714.0799999999999"/>
      <point x="578.85" y="700.53"/>
      <point x="647.8" y="679.7" type="curve"/>
      <point x="658.84" y="713.27" type="line"/>
      <point x="583.46" y="738.8199999999999"/>
      <point x="520.3000000000001" y="750.0"/>
      <point x="450.76" y="750.0" type="curve" smooth="yes"/>
      <point x="295.63" y="750.0"/>
      <point x="214.41" y="669.29"/>
      <point x="183.4" y="484.0" type="curve"/>
      <point x="59.010000000000005" y="477.65" type="line"/>
      <point x="54.85" y="450.59999999999997" type="line"/>
      <point x="178.06" y="450.59999999999997" type="line"/>
      <point x="110.58000000000001" y="17.249999999999996" type="line" smooth="yes"/>
      <point x="86.47" y="-134.14000000000001"/>
      <point x="56.730000000000004" y="-186.07999999999998"/>
      <point x="-14.770000000000007" y="-186.07999999999998" type="curve" smooth="yes"/>
      <point x="-29.499999999999993" y="-186.07999999999998"/>
      <point x="-44.41" y="-183.17"/>
      <point x="-62.6" y="-176.53" type="curve"/>
      <point x="-72.02" y="-208.47" type="line"/>
      <point x="-48.68" y="-216.54999999999998"/>
      <point x="-27.979999999999997" y="-220.0"/>
    </contour>
  </outline>
</glyph>
